<svg width="94" height="94" viewBox="0 0 94 94" fill="none" xmlns="http://www.w3.org/2000/svg">
<rect width="94" height="94" rx="47" fill="#B7934D"/>
<path d="M70.2821 49.6181C68.1654 49.6181 67.0939 50.0327 66.0576 50.4336C65.1732 50.7758 64.3335 51.1002 62.7469 51.1465C65.2435 50.1399 67.2149 48.8777 68.6282 47.3766C70.2617 45.6413 70.7927 43.9715 70.9504 42.8762C71.012 42.449 70.8855 42.0171 70.6035 41.6917C70.3214 41.366 69.9118 41.1793 69.4799 41.1793H55.1688L50.5859 37.9057C50.0709 37.5379 49.464 37.3434 48.8311 37.3434H42.6642C41.8454 37.3434 41.1793 38.0095 41.1793 38.8283V41.1792H40.2311C40.013 41.1792 39.8079 41.0943 39.6537 40.94L39.1185 40.4048C38.6132 39.8995 37.89 39.6627 37.1836 39.7714L29.1529 41.0069C28.2821 41.1408 27.4345 41.4699 26.7016 41.9586L24.4793 43.4401C23.9555 43.7893 23.5997 44.3464 23.5031 44.9684C23.4065 45.5905 23.5767 46.2292 23.97 46.7208L26.9409 50.4344C26.9401 50.4341 26.9393 50.4338 26.9387 50.4336C25.9033 50.0326 24.8328 49.618 22.7178 49.618C22.3214 49.618 22 49.9393 22 50.3358C22 50.7322 22.3214 51.0535 22.7178 51.0535C24.5645 51.0535 25.4658 51.4027 26.4202 51.7723C27.4556 52.1733 28.5261 52.5878 30.6411 52.5878C32.7566 52.5878 33.8274 52.1732 34.863 51.7723C35.8176 51.4027 36.7192 51.0535 38.5665 51.0535C40.4144 51.0535 41.3164 51.4027 42.2714 51.7723C43.3072 52.1733 44.3785 52.5878 46.4945 52.5878C48.6101 52.5878 49.6809 52.1732 50.7165 51.7723C51.6711 51.4027 52.5728 51.0535 54.4201 51.0535C56.2688 51.0535 57.1713 51.4027 58.1266 51.7724C59.1629 52.1733 60.2344 52.5878 62.3512 52.5878C64.4681 52.5878 65.5395 52.1733 66.5757 51.7724C67.531 51.4027 68.4335 51.0535 70.2822 51.0535C70.6786 51.0535 71 50.7322 71 50.3358C71 49.9393 70.6785 49.6181 70.2821 49.6181ZM45.6834 38.7789H48.831C49.163 38.7789 49.4813 38.881 49.7515 39.0739L52.699 41.1793H45.6834V38.7789V38.7789ZM42.6146 38.8283C42.6146 38.801 42.6368 38.7789 42.664 38.7789H44.2477V41.1793H42.6146V38.8283ZM59.489 50.7425C59.1957 50.6466 58.9223 50.5409 58.6445 50.4335C57.6084 50.0327 56.5368 49.6181 54.42 49.6181C52.3045 49.6181 51.2337 50.0328 50.1981 50.4337C49.2434 50.8033 48.3417 51.1524 46.4944 51.1524C44.6464 51.1524 43.7444 50.8033 42.7895 50.4337C41.7536 50.0327 40.6825 49.6181 38.5664 49.6181C36.451 49.6181 35.3802 50.0328 34.3446 50.4337C33.3899 50.8033 32.4883 51.1524 30.641 51.1524C30.1255 51.1524 29.6837 51.1251 29.2938 51.0778L25.0908 45.8241C25.0553 45.7797 25.0251 45.7326 24.9999 45.6834H28.0882C28.4846 45.6834 28.8059 45.3621 28.8059 44.9657C28.8059 44.5693 28.4846 44.2479 28.0882 44.2479H25.8554L27.4977 43.153C28.0578 42.7797 28.7056 42.5282 29.371 42.4258L37.4018 41.1903C37.6576 41.1509 37.92 41.2367 38.1033 41.42L38.6384 41.955C39.0637 42.3804 39.6293 42.6147 40.2309 42.6147H69.4798C69.4863 42.6147 69.5037 42.6147 69.5183 42.6316C69.5328 42.6482 69.5304 42.6646 69.5294 42.6716C69.4717 43.072 69.3406 43.6175 69.0529 44.2478H31.1565C30.7601 44.2478 30.4387 44.5692 30.4387 44.9656C30.4387 45.362 30.7601 45.6833 31.1565 45.6833H68.1836C66.8776 47.3941 64.3534 49.3471 59.489 50.7425Z" fill="white"/>
<path d="M67.1161 53.8634C66.9735 53.4935 66.558 53.3093 66.1882 53.4519L66.0573 53.5024C65.6252 53.6696 65.2171 53.8275 64.7314 53.9536C64.3477 54.0534 64.1174 54.4452 64.2171 54.8288C64.301 55.152 64.5922 55.3663 64.9113 55.3663C64.9711 55.3663 65.0318 55.3588 65.0923 55.3431C65.6581 55.1961 66.1243 55.0157 66.5754 54.8411L66.7045 54.7912C67.0744 54.6486 67.2587 54.2332 67.1161 53.8634Z" fill="white"/>
<path d="M61.8692 54.2126C60.3378 54.1574 59.5154 53.8392 58.6446 53.5022C57.6083 53.1013 56.5368 52.6867 54.42 52.6867C52.3045 52.6867 51.2337 53.1014 50.1981 53.5023C49.2434 53.8719 48.3417 54.221 46.4945 54.221C44.6464 54.221 43.7445 53.8719 42.7895 53.5023C41.7536 53.1013 40.6825 52.6867 38.5664 52.6867C36.451 52.6867 35.3802 53.1014 34.3446 53.5023C33.4759 53.8387 32.6553 54.1563 31.1302 54.2123C30.734 54.2269 30.4247 54.5598 30.4392 54.9559C30.4538 55.3521 30.787 55.6607 31.1828 55.6469C32.9489 55.5821 33.922 55.2053 34.863 54.841C35.8176 54.4714 36.7193 54.1223 38.5665 54.1223C40.4144 54.1223 41.3164 54.4714 42.2715 54.841C43.3074 55.242 44.3785 55.6566 46.4946 55.6566C48.6101 55.6566 49.6809 55.2419 50.7165 54.841C51.6711 54.4714 52.5729 54.1223 54.4201 54.1223C56.2688 54.1223 57.1713 54.4714 58.1266 54.8411C59.0698 55.206 60.045 55.5834 61.8175 55.6473C62.2103 55.6619 62.5464 55.352 62.5606 54.9558C62.5749 54.5596 62.2653 54.227 61.8692 54.2126Z" fill="white"/>
<path d="M28.2693 53.9553C27.7808 53.8287 27.3712 53.67 26.9377 53.5021C26.5679 53.3589 26.1523 53.5425 26.0091 53.9121C25.8659 54.2818 26.0495 54.6975 26.4191 54.8407C26.8718 55.016 27.3398 55.1974 27.9091 55.3449C27.9695 55.3606 28.0301 55.3681 28.0897 55.3681C28.4089 55.3681 28.7002 55.1535 28.784 54.8302C28.8835 54.4466 28.6531 54.0549 28.2693 53.9553Z" fill="white"/>
</svg>
