<svg width="94" height="94" viewBox="0 0 94 94" fill="none" xmlns="http://www.w3.org/2000/svg">
<rect width="94" height="94" rx="47" fill="#B7934D"/>
<path d="M56.3002 42.8657C55.0495 41.4712 53.4963 40.4587 51.7058 39.8532C51.5401 39.4419 51.3639 39.0477 51.1772 38.6704C53.7524 35.094 58.4326 35.172 58.4798 35.173C58.8018 35.1838 59.089 34.9663 59.1678 34.6529C59.2467 34.3395 59.097 34.0135 58.8081 33.869C58.7405 33.8352 57.1274 33.0377 54.8862 32.707C54.0603 32.5851 53.2572 32.5438 52.4825 32.5807C54.0499 30.0709 56.3661 29.3944 56.4732 29.3644C56.7878 29.2788 56.9992 28.9843 56.9798 28.6589C56.9604 28.3335 56.7154 28.0663 56.3928 28.0189C56.3124 28.0071 54.3963 27.7354 52.1097 28.291C51.517 28.435 50.9547 28.6218 50.4237 28.8492C49.4606 25.205 48.0722 23.3529 48.01 23.2713C47.8797 23.1003 47.6772 23 47.4623 23C47.2474 23 47.0449 23.1003 46.9147 23.2713C46.853 23.3522 45.4664 25.2027 44.5031 28.8423C41.5935 27.5958 38.7014 27.9938 38.5319 28.0189C38.2111 28.0661 37.9668 28.3306 37.9451 28.654C37.9235 28.9774 38.1305 29.2722 38.442 29.3617C38.4686 29.3693 40.8363 30.0774 42.439 32.5754C39.0759 32.417 36.2686 33.7929 36.1165 33.869C35.8195 34.0176 35.6718 34.3568 35.764 34.6759C35.8563 34.9949 36.1638 35.2021 36.4946 35.1697C36.508 35.1682 37.8549 35.0425 39.4323 35.5991C41.3747 36.2845 42.809 37.6635 43.7016 39.7011C41.7065 40.2811 39.9861 41.3472 38.6243 42.8656C36.2193 45.5472 35 49.4933 35 54.5944C35 59.6954 36.2194 63.6415 38.6243 66.3232C40.7817 68.7285 43.8378 70 47.4623 70C51.0869 70 54.143 68.7285 56.3002 66.3232C58.7052 63.6415 59.9245 59.6953 59.9245 54.5944C59.9245 49.4934 58.7052 45.5473 56.3002 42.8657ZM56 45.5652L56.4102 45.3191C57.3373 46.8413 57.9655 48.6959 58.2893 50.8687L56 49.4951V45.5652ZM52.0754 41.474C53.3036 42.0132 54.3806 42.7876 55.2751 43.7849C55.3925 43.9158 55.5061 44.051 55.6173 44.189L55.3114 44.3725L52.0754 42.4309V41.474ZM54.6449 34.0634C54.9395 34.1059 55.2228 34.1576 55.4921 34.2152C53.8906 34.6539 51.9519 35.5484 50.447 37.3639C49.8993 36.4968 49.2829 35.7442 48.5994 35.1084C50.2968 34.0812 52.3257 33.7287 54.6449 34.0634ZM44.2263 42.4309V40.986C45.23 40.7082 46.3129 40.5658 47.4623 40.5658C48.6119 40.5658 49.6948 40.7083 50.6985 40.9861V42.4309L47.4623 44.3725L44.2263 42.4309ZM50.6985 52.6296V56.5594L47.4623 58.501L44.2262 56.5594V52.6296L47.4623 50.6879L50.6985 52.6296ZM52.3909 29.6398C52.7749 29.5447 53.1487 29.4762 53.5029 29.4276C52.5595 30.1572 51.5446 31.2357 50.7959 32.7952C49.584 33.0511 48.4638 33.5216 47.4631 34.2011C47.3098 34.0968 47.1536 33.9974 46.9949 33.9029C48.0718 31.6941 49.8849 30.2605 52.3909 29.6398ZM47.4637 24.9941C47.9397 25.8603 48.6339 27.3616 49.1689 29.4989C48.5426 29.8851 47.9735 30.3399 47.4653 30.8598C46.9283 30.3085 46.3513 29.8582 45.758 29.4919C46.2906 27.3687 46.987 25.8633 47.4637 24.9941ZM41.3925 29.425C42.9949 29.642 45.0194 30.2681 46.5762 31.9225C46.2727 32.3472 46.0008 32.8032 45.7623 33.2897C45.7068 33.2671 45.6515 33.2442 45.5955 33.2226C45.1098 33.0355 44.6225 32.8948 44.1393 32.7921C43.3755 31.2373 42.3444 30.1569 41.3925 29.425ZM39.8294 34.2793C39.7376 34.2477 39.6467 34.2179 39.5565 34.1901C41.1248 33.8711 43.1489 33.7559 45.1007 34.5076C47.1743 35.3061 48.8213 36.9544 50.0085 39.4145C49.1967 39.2651 48.3466 39.1888 47.4623 39.1888C46.6316 39.1888 45.8311 39.2564 45.0641 39.3884C43.7582 36.2145 41.5081 34.8579 39.8294 34.2793ZM46.7739 45.5652V49.4951L43.5378 51.4367L40.3017 49.4951V45.5652L43.5378 43.6236L46.7739 45.5652ZM39.6496 43.785C40.5442 42.7876 41.6212 42.0132 42.8494 41.474V42.4309L39.6133 44.3726L39.3074 44.1891C39.4186 44.0511 39.5322 43.9159 39.6496 43.785ZM38.5146 45.3192L38.9248 45.5653V49.4951L36.6355 50.8688C36.9592 48.6959 37.5874 46.8413 38.5146 45.3192ZM38.9247 63.6235L38.5145 63.8696C37.5874 62.3474 36.9592 60.4929 36.6354 58.32L38.9247 59.6937V63.6235ZM42.8495 67.715C41.6212 67.1756 40.5442 66.4013 39.6496 65.4039C39.5322 65.273 39.4186 65.1378 39.3074 64.9998L39.6133 64.8163L42.8495 66.7581V67.715V67.715ZM40.3017 63.6235V59.6937L41.3236 59.0806C41.6497 58.885 41.7554 58.4621 41.5597 58.136C41.3641 57.8099 40.9412 57.7042 40.6151 57.8999L39.6133 58.501L36.4481 56.6019C36.4013 55.9565 36.3771 55.2876 36.3771 54.5944C36.3771 53.9011 36.4013 53.2324 36.4481 52.587L39.6133 50.6879L42.8493 52.6296V56.9492H42.8499C42.8501 57.1829 42.9685 57.4106 43.1835 57.5396L46.7739 59.6938V63.6236L43.5378 65.5652L40.3017 63.6235ZM50.6986 68.2027C49.6948 68.4806 48.6119 68.623 47.4623 68.623C46.3129 68.623 45.23 68.4807 44.2264 68.2028V66.7578L47.4623 64.8162L50.6986 66.7579V68.2027ZM48.1508 63.6235V59.6937L51.3869 57.7521L54.623 59.6937V63.6235L51.3869 65.5652L48.1508 63.6235ZM55.2751 65.4039C54.3806 66.4013 53.3036 67.1755 52.0755 67.7148V66.7579L55.3114 64.8163L55.6173 64.9998C55.5061 65.1379 55.3925 65.273 55.2751 65.4039ZM56.4101 63.8696L55.9999 63.6235V59.6937L58.2892 58.32C57.9655 60.4929 57.3373 62.3474 56.4101 63.8696ZM55.3114 58.5011L52.0754 56.5595V52.6296L53.4304 51.8166C53.7565 51.621 53.8622 51.1981 53.6665 50.872C53.4709 50.5459 53.048 50.4402 52.7219 50.6359L51.3869 51.4369L48.1508 49.4951V45.5653L51.3869 43.6237L54.623 45.5653V49.885C54.623 50.1355 54.7573 50.3543 54.9576 50.4747L54.9572 50.4753L58.4766 52.587C58.5234 53.2324 58.5476 53.9012 58.5476 54.5945C58.5476 55.2877 58.5234 55.9565 58.4766 56.602L55.3114 58.5011Z" fill="white"/>
</svg>
