<svg width="94" height="94" viewBox="0 0 94 94" fill="none" xmlns="http://www.w3.org/2000/svg">
<rect width="94" height="94" rx="47" fill="#B7934D"/>
<path d="M61.0762 22H48.8014C47.9826 22 47.3165 22.6661 47.3165 23.4849V24.3015H42.6641C41.8452 24.3015 41.1791 24.9676 41.1791 25.7864V34.2747H31.9237C31.1048 34.2747 30.4387 34.9408 30.4387 35.7596V69.5151C30.4387 70.3339 31.1048 71 31.9237 71H56.4731C57.2919 71 57.958 70.3339 57.958 69.5151V52.588H61.0761C61.895 52.588 62.5611 51.9219 62.5611 51.1031V23.4849C62.5612 22.6661 61.895 22 61.0762 22ZM61.0762 51.1525H57.9581V50.336C57.9581 49.9396 57.6367 49.6183 57.2403 49.6183C56.8439 49.6183 56.5226 49.9396 56.5226 50.336V69.5152C56.5226 69.5424 56.5005 69.5645 56.4732 69.5645H31.9237C31.8964 69.5645 31.8743 69.5424 31.8743 69.5152V35.7596C31.8743 35.7324 31.8964 35.7103 31.9237 35.7103H56.4731C56.5004 35.7103 56.5225 35.7324 56.5225 35.7596V47.2672C56.5225 47.6636 56.8438 47.985 57.2402 47.985C57.6366 47.985 57.958 47.6636 57.958 47.2672V35.7596C57.958 34.9408 57.2919 34.2747 56.4731 34.2747H48.752V29.6223C48.752 29.2259 48.4307 28.9045 48.0343 28.9045C47.6379 28.9045 47.3165 29.2259 47.3165 29.6223V34.2747H42.6147V25.7864C42.6147 25.7591 42.6368 25.737 42.6641 25.737H47.3165V26.5537C47.3165 26.9501 47.6379 27.2714 48.0343 27.2714C48.4307 27.2714 48.752 26.9501 48.752 26.5537V23.4849C48.752 23.4577 48.7741 23.4355 48.8014 23.4355H61.0761C61.1034 23.4355 61.1255 23.4577 61.1255 23.4849V51.1031H61.1256C61.1256 51.1304 61.1035 51.1525 61.0762 51.1525Z" fill="white"/>
<path d="M58.5151 26.0461C58.235 25.7658 57.7805 25.7658 57.5002 26.046L56.5267 27.0196L52.7147 26.6071C52.3204 26.5644 51.9666 26.8495 51.9239 27.2436C51.8813 27.6377 52.1662 27.9917 52.5603 28.0344L55.2237 28.3225L53.1074 30.4388H52.6375C52.2411 30.4388 51.9197 30.7602 51.9197 31.1566C51.9197 31.553 52.2411 31.8744 52.6375 31.8744H53.4046C53.595 31.8744 53.7776 31.7988 53.9121 31.6641L56.2387 29.3376L56.5268 32.001C56.5666 32.3689 56.8777 32.6416 57.2395 32.6416C57.2653 32.6416 57.2913 32.6403 57.3176 32.6374C57.7117 32.5947 57.9966 32.2407 57.954 31.8466L57.5416 28.0346L58.5151 27.0612C58.7954 26.7808 58.7954 26.3263 58.5151 26.0461Z" fill="white"/>
<path d="M44.1985 41.1792C39.5726 41.1792 35.8091 44.9427 35.8091 49.5686C35.8091 54.1945 39.5726 57.9581 44.1985 57.9581C48.8245 57.9581 52.588 54.1945 52.588 49.5686C52.588 44.9427 48.8245 41.1792 44.1985 41.1792ZM38.8992 45.0734C39.1635 45.329 39.4445 45.5638 39.7397 45.7768C39.4651 46.7101 39.2905 47.7468 39.2373 48.8509H37.2816C37.4291 47.4186 38.0143 46.1149 38.8992 45.0734ZM38.8991 54.0639C38.0142 53.0224 37.4291 51.7187 37.2816 50.2864H39.2373C39.2905 51.3906 39.4651 52.4276 39.7398 53.361C39.4445 53.5738 39.1633 53.8085 38.8991 54.0639ZM40.6856 43.571C40.5352 43.821 40.395 44.0881 40.2648 44.3694C40.1526 44.2768 40.0437 44.1798 39.9376 44.079C40.1753 43.8941 40.425 43.7243 40.6856 43.571ZM41.0231 46.5249C41.7943 46.8783 42.6244 47.1024 43.4807 47.1832V48.8509H40.6733C40.7172 48.0354 40.8361 47.2515 41.0231 46.5249ZM39.9382 55.0588C40.0442 54.9582 40.1526 54.8605 40.2648 54.768C40.395 55.0493 40.5352 55.3164 40.6856 55.5664C40.425 55.4132 40.1756 55.2436 39.9382 55.0588ZM43.4808 56.3673C42.8729 56.1057 42.2971 55.5175 41.8123 54.6447C41.6959 54.4353 41.5887 54.2135 41.489 53.983C42.1122 53.6793 42.785 53.4798 43.4808 53.3983V56.3673ZM43.4808 51.9541C42.6255 52.0352 41.7952 52.2601 41.0235 52.6138C40.8363 51.887 40.7173 51.1025 40.6734 50.2864H43.4808V51.9541V51.9541ZM43.4808 45.7394C42.7841 45.6581 42.1116 45.4586 41.4887 45.1548C41.5885 44.9242 41.6959 44.7022 41.8123 44.4925C42.2971 43.6198 42.8729 43.0315 43.4808 42.77V45.7394ZM49.4978 45.0733C50.3828 46.1149 50.9679 47.4186 51.1154 48.8509H49.1598C49.1066 47.7469 48.932 46.7103 48.6575 45.7771C48.9526 45.564 49.2336 45.329 49.4978 45.0733ZM48.4598 44.0793C48.3538 44.1801 48.2444 44.2766 48.1321 44.3692C48.0019 44.088 47.8618 43.8209 47.7114 43.571C47.9723 43.7244 48.222 43.8943 48.4598 44.0793ZM44.9163 42.77C45.5242 43.0315 46.1 43.6198 46.5848 44.4925C46.7013 44.7022 46.8087 44.9243 46.9085 45.1551C46.2856 45.4588 45.6131 45.6583 44.9163 45.7395V42.77V42.77ZM44.9163 47.1833C45.773 47.1026 46.603 46.8786 47.374 46.5253C47.561 47.2517 47.6798 48.0356 47.7237 48.8509H44.9163V47.1833ZM46.5848 54.6447C46.1 55.5175 45.5242 56.1057 44.9163 56.3673V53.3978C45.6133 53.479 46.2858 53.6784 46.9086 53.9821C46.8087 54.2129 46.7013 54.4351 46.5848 54.6447ZM44.9163 51.954V50.2865H47.7237C47.6798 51.1019 47.561 51.8857 47.3741 52.6121C46.6031 52.2587 45.7731 52.0347 44.9163 51.954ZM47.7113 55.5665C47.8618 55.3165 48.0019 55.0495 48.1319 54.7684C48.2442 54.8609 48.3539 54.9571 48.4599 55.058C48.2221 55.2431 47.9722 55.413 47.7113 55.5665ZM49.4978 54.0641C49.2335 53.8083 48.9527 53.5731 48.6575 53.3601C48.932 52.4269 49.1065 51.3904 49.1597 50.2865H51.1154C50.9679 51.7187 50.3828 53.0225 49.4978 54.0641Z" fill="white"/>
<path d="M48.8015 61.8929H39.5955C39.1991 61.8929 38.8777 62.2143 38.8777 62.6107C38.8777 63.0071 39.1991 63.3284 39.5955 63.3284H48.8015C49.1979 63.3284 49.5192 63.0071 49.5192 62.6107C49.5192 62.2143 49.1979 61.8929 48.8015 61.8929Z" fill="white"/>
</svg>
