<svg width="94" height="94" viewBox="0 0 94 94" fill="none" xmlns="http://www.w3.org/2000/svg">
<rect width="94" height="94" rx="47" fill="#B7934D"/>
<path d="M56.7737 28.8395C55.5408 28.8395 54.3469 29.0659 53.2153 29.5116L52.9485 28.6782V27.1254C52.9485 25.9919 52.0987 25.0462 50.9717 24.9254L33.0798 23.0085C32.4819 22.9443 31.9144 23.2469 31.6344 23.7791C31.3543 24.3113 31.4262 24.9502 31.8176 25.4068L34.8525 28.9475L31.2265 40.2788C29.6761 45.1238 29.1466 50.1468 29.6528 55.2086L30.9647 68.328C31.1171 69.8514 32.3864 71 33.9173 71H53.97C55.5009 71 56.7702 69.8513 56.9225 68.328L58.2345 55.2086C58.3165 54.3883 58.3709 53.5691 58.3985 52.7514C63.0648 51.9677 66.5333 47.9025 66.5333 43.1274V38.5991C66.5333 33.2177 62.1551 28.8395 56.7737 28.8395ZM36.155 29.491H46.9624C47.3507 29.491 47.6655 29.1763 47.6655 28.7879C47.6655 28.3995 47.3507 28.0847 46.9624 28.0847H35.9652L32.8853 24.4916C32.8736 24.4779 32.8625 24.465 32.8788 24.434C32.8912 24.4105 32.904 24.4058 32.9173 24.4058C32.9214 24.4058 32.9256 24.4063 32.9299 24.4067L50.8218 26.3237C51.2324 26.3677 51.5422 26.7124 51.5422 27.1254V28.0847H49.9818C49.5935 28.0847 49.2787 28.3995 49.2787 28.7879C49.2787 29.1763 49.5935 29.491 49.9818 29.491H51.732L53.7146 35.6864C53.1705 35.7666 52.8043 35.9228 52.4701 36.0659C52.0518 36.245 51.7214 36.3865 50.9844 36.3865C50.2473 36.3865 49.9168 36.245 49.4985 36.0659C49.0233 35.8625 48.4847 35.6317 47.4593 35.6317C46.4343 35.6317 45.896 35.8625 45.421 36.066C45.003 36.245 44.6729 36.3865 43.9366 36.3865C43.2011 36.3865 42.8713 36.245 42.4539 36.0661C41.9793 35.8625 41.4413 35.6317 40.4169 35.6317C39.3927 35.6317 38.8548 35.8625 38.3802 36.0661C37.9628 36.245 37.6332 36.3865 36.8978 36.3865C36.1622 36.3865 35.8324 36.245 35.4149 36.0661C35.0812 35.923 34.7156 35.7669 34.1725 35.6866L36.155 29.491ZM56.8351 55.0686L55.5231 68.1881C55.4431 68.9895 54.7753 69.5938 53.9699 69.5938H33.9172C33.1118 69.5938 32.4441 68.9895 32.364 68.1881L31.052 55.0686C30.5651 50.1997 31.0744 45.3679 32.5657 40.7075L33.7357 37.0513C34.2335 37.0901 34.5177 37.2115 34.8606 37.3586C35.3353 37.5621 35.8733 37.7929 36.8977 37.7929C37.922 37.7929 38.4599 37.5621 38.9345 37.3585C39.3518 37.1796 39.6815 37.0381 40.4168 37.0381C41.1523 37.0381 41.4821 37.1796 41.8995 37.3585C42.3742 37.5621 42.9121 37.7929 43.9365 37.7929C44.9615 37.7929 45.4998 37.5621 45.9748 37.3586C46.3928 37.1796 46.7229 37.0381 47.4592 37.0381C48.1962 37.0381 48.5266 37.1796 48.9449 37.3587C49.4202 37.5621 49.9588 37.7929 50.9843 37.7929C52.0098 37.7929 52.5484 37.5622 53.0235 37.3587C53.3672 37.2115 53.652 37.09 54.1513 37.0512L55.3213 40.7075C56.8128 45.3678 57.322 50.1996 56.8351 55.0686ZM56.6607 40.2788L54.5691 33.7428C55.2581 33.4293 56.0118 33.2646 56.7736 33.2646C59.715 33.2646 62.1081 35.6577 62.1081 38.5992V43.1274C62.1081 45.5198 60.5262 47.5891 58.2749 48.2463C58.0348 45.5532 57.4964 42.8902 56.6607 40.2788ZM65.1271 43.1274H65.127C65.127 47.1271 62.2835 50.5431 58.4192 51.316C58.4164 50.768 58.4014 50.2209 58.3742 49.6748C61.3758 48.9442 63.5144 46.254 63.5144 43.1274V38.5991C63.5144 34.8822 60.4905 31.8583 56.7737 31.8583C55.8665 31.8583 54.9681 32.0433 54.1383 32.3962L53.6447 30.8537C54.6376 30.4501 55.6878 30.2458 56.7738 30.2458C61.3798 30.2458 65.1271 33.9931 65.1271 38.5991V43.1274V43.1274Z" fill="white"/>
<path d="M40.1701 52.9902C37.2855 52.9902 34.9387 55.3369 34.9387 58.2216C34.9387 61.1062 37.2855 63.453 40.1701 63.453C43.0547 63.453 45.4015 61.1062 45.4015 58.2216C45.4014 55.3369 43.0546 52.9902 40.1701 52.9902ZM40.1701 62.0466C38.0609 62.0466 36.345 60.3307 36.345 58.2215C36.345 56.1123 38.0609 54.3963 40.1701 54.3963C42.2793 54.3963 43.9952 56.1123 43.9952 58.2215C43.9951 60.3307 42.2792 62.0466 40.1701 62.0466Z" fill="white"/>
<path d="M41.6795 57.5184H40.8733V56.712C40.8733 56.3237 40.5584 56.0089 40.1701 56.0089C39.7818 56.0089 39.467 56.3237 39.467 56.712V57.5184H38.6606C38.2723 57.5184 37.9575 57.8331 37.9575 58.2215C37.9575 58.6098 38.2723 58.9246 38.6606 58.9246H39.467V59.7309C39.467 60.1192 39.7818 60.434 40.1701 60.434C40.5584 60.434 40.8733 60.1192 40.8733 59.7309V58.9246H41.6795C42.0678 58.9246 42.3826 58.6098 42.3826 58.2215C42.3826 57.8332 42.0678 57.5184 41.6795 57.5184Z" fill="white"/>
<path d="M47.717 41.6696C44.8324 41.6696 42.4856 44.0163 42.4856 46.9009C42.4856 49.7855 44.8325 52.1323 47.717 52.1323C50.6016 52.1323 52.9483 49.7855 52.9483 46.9009C52.9483 44.0163 50.6016 41.6696 47.717 41.6696ZM47.717 50.726C45.6078 50.726 43.8919 49.0101 43.8919 46.9009C43.8919 44.7917 45.6079 43.0758 47.717 43.0758C49.8262 43.0758 51.5421 44.7917 51.5421 46.9009C51.5421 49.0101 49.8262 50.726 47.717 50.726Z" fill="white"/>
<path d="M48.7113 46.9009L49.2814 46.3307C49.556 46.0561 49.556 45.6109 49.2814 45.3364C49.0068 45.0618 48.5616 45.0618 48.2871 45.3364L47.717 45.9066L47.1469 45.3364C46.8723 45.0618 46.427 45.0619 46.1525 45.3364C45.878 45.611 45.878 46.0562 46.1525 46.3307L46.7226 46.9009L46.1525 47.471C45.8779 47.7457 45.8779 48.1908 46.1525 48.4654C46.2898 48.6026 46.4698 48.6714 46.6497 48.6714C46.8296 48.6714 47.0096 48.6027 47.1469 48.4654L47.717 47.8953L48.2871 48.4654C48.4243 48.6027 48.6043 48.6714 48.7842 48.6714C48.9641 48.6714 49.1441 48.6027 49.2814 48.4654C49.556 48.1908 49.556 47.7456 49.2814 47.471L48.7113 46.9009Z" fill="white"/>
<path d="M52.6434 56.3117C52.1863 56.0715 51.403 56.0143 50.2678 57.1052C49.5646 57.7808 48.8489 58.7785 48.2523 59.9145C47.6558 61.0505 47.2407 62.2061 47.0836 63.1685C46.8299 64.7222 47.3217 65.3346 47.779 65.5748C47.9363 65.6574 48.1321 65.7184 48.3677 65.7184C48.8168 65.7184 49.41 65.4968 50.1546 64.7813C50.8577 64.1056 51.5734 63.1079 52.17 61.9719C52.7666 60.836 53.1817 59.6803 53.3387 58.7179C53.5923 57.1641 53.1006 56.5517 52.6434 56.3117ZM50.9249 61.3181C49.896 63.2773 48.8371 64.1665 48.4513 64.2945C48.3375 63.904 48.4684 62.5276 49.4973 60.5684C50.5262 58.6092 51.5851 57.7201 51.971 57.592C52.0847 57.9825 51.9539 59.3589 50.9249 61.3181Z" fill="white"/>
<path d="M39.6374 46.0519C39.2039 45.1484 38.6306 44.3664 38.0231 43.8498C36.9997 42.9797 36.2359 43.143 35.8715 43.3178C35.5072 43.4925 34.9019 43.9863 34.9402 45.3289C34.963 46.1261 35.2142 47.0625 35.6477 47.9661C36.0812 48.8695 36.6545 49.6515 37.262 50.1681C37.8735 50.688 38.3924 50.839 38.7887 50.839C39.0556 50.839 39.267 50.7704 39.4136 50.7001C39.7779 50.5254 40.3833 50.0317 40.3449 48.689C40.3221 47.8919 40.0709 46.9554 39.6374 46.0519ZM38.8072 49.4314C38.6168 49.4833 37.684 48.9596 36.9154 47.3577C36.147 45.7558 36.3214 44.7007 36.4776 44.5865C36.4862 44.5841 36.4961 44.5829 36.5074 44.5829C36.7514 44.5829 37.6352 45.1298 38.3693 46.6602C39.1379 48.2621 38.9634 49.3172 38.8072 49.4314Z" fill="white"/>
</svg>
