<svg width="94" height="94" viewBox="0 0 94 94" fill="none" xmlns="http://www.w3.org/2000/svg">
<rect width="94" height="94" rx="47" fill="#B7934D"/>
<path d="M70.1685 44.7541C69.7933 39.5889 67.7873 34.7938 64.3593 30.878C64.0981 30.5797 63.6447 30.5496 63.3464 30.8107C63.0481 31.0719 63.018 31.5253 63.2792 31.8235C66.3643 35.3477 68.2234 39.6293 68.6843 44.2479H67.0414C66.5343 39.5885 64.4449 35.2213 61.1119 31.8882C57.7788 28.5552 53.4116 26.4658 48.7522 25.9587V24.3158C53.3708 24.7766 57.6523 26.6358 61.1765 29.7209C61.3126 29.8402 61.4812 29.8987 61.649 29.8987C61.8488 29.8987 62.0475 29.8158 62.1894 29.6537C62.4506 29.3554 62.4204 28.9019 62.1221 28.6408C58.2062 25.2128 53.4112 23.2067 48.246 22.8316C47.8327 22.3245 47.2036 22 46.5 22C45.7963 22 45.1671 22.3246 44.7539 22.8318C39.0851 23.2446 33.7512 25.6855 29.7183 29.7184C25.6854 33.7512 23.2446 39.0852 22.8318 44.7538C22.3246 45.1671 22 45.7963 22 46.5C22 47.2036 22.3245 47.8327 22.8315 48.2459C23.2067 53.4111 25.2127 58.2061 28.6407 62.122C28.7827 62.2841 28.9814 62.367 29.1811 62.367C29.3489 62.367 29.5174 62.3085 29.6536 62.1893C29.9519 61.9282 29.982 61.4748 29.7208 61.1765C26.6357 57.6523 24.7766 53.3707 24.3157 48.7522H25.9586C26.4657 53.4117 28.5552 57.7789 31.8883 61.112C35.2214 64.4449 39.5885 66.5343 44.2478 67.0414V68.6842C39.6293 68.2234 35.3477 66.3642 31.8235 63.279C31.5251 63.0178 31.0717 63.0479 30.8107 63.3462C30.5495 63.6445 30.5797 64.098 30.878 64.3591C34.7939 67.7872 39.589 69.7932 44.754 70.1684C45.1673 70.6755 45.7964 71 46.5 71C47.2037 71 47.8329 70.6754 48.2461 70.1682C53.9147 69.7554 59.2486 67.3146 63.2814 63.2817C67.3144 59.2489 69.7553 53.9148 70.1682 48.2461C70.6754 47.8329 71 47.2037 71 46.5C71 45.7964 70.6755 45.1673 70.1685 44.7541ZM65.6148 44.4077C64.7835 44.7393 64.1943 45.5519 64.1943 46.5C64.1943 47.4481 64.7835 48.2607 65.6148 48.5923C65.1696 52.6919 63.4067 56.5484 60.594 59.5789L55.6327 54.6175C57.5552 52.4569 58.7252 49.6127 58.7252 46.4999C58.7252 43.3871 57.5551 40.5429 55.6327 38.3823L60.594 33.4209C63.4067 36.4517 65.1697 40.3081 65.6148 44.4077ZM46.5 57.2898C40.5505 57.2898 35.7102 52.4495 35.7102 46.5C35.7102 40.5505 40.5505 35.7102 46.5 35.7102C52.4495 35.7102 57.2898 40.5505 57.2898 46.5C57.2898 52.4495 52.4495 57.2898 46.5 57.2898ZM45.6835 24.2521C45.6835 23.8018 46.0498 23.4355 46.5 23.4355C46.9502 23.4355 47.3165 23.8019 47.3165 24.2521V26.5536C47.3165 27.0038 46.9502 27.3701 46.5 27.3701C46.0498 27.3701 45.6835 27.0037 45.6835 26.5536V24.2521V24.2521ZM46.5 28.8057C47.4481 28.8057 48.2607 28.2165 48.5923 27.3852C52.6919 27.8304 56.5484 29.5933 59.5789 32.406L54.6175 37.3673C52.4569 35.4448 49.6127 34.2747 46.4999 34.2747C43.3871 34.2747 40.5429 35.4448 38.3823 37.3673L33.4209 32.406C36.4517 29.5933 40.3081 27.8303 44.4077 27.3852C44.7393 28.2165 45.5519 28.8057 46.5 28.8057ZM30.7334 30.7335C34.3772 27.0896 39.1513 24.8295 44.2479 24.3166V25.9587C39.5885 26.4658 35.2213 28.5552 31.8882 31.8882C28.5552 35.2213 26.4658 39.5885 25.9587 44.2479H24.3166C24.8295 39.1513 27.0896 34.3774 30.7334 30.7335ZM26.5537 47.3165H24.2521C23.8018 47.3165 23.4355 46.9502 23.4355 46.5C23.4355 46.0498 23.8019 45.6835 24.2521 45.6835H26.5536C27.0038 45.6835 27.3701 46.0498 27.3701 46.5C27.3701 46.9502 27.0038 47.3165 26.5537 47.3165ZM27.3852 48.5923C28.2165 48.2607 28.8057 47.4481 28.8057 46.5C28.8057 45.5519 28.2165 44.7393 27.3852 44.4077C27.8304 40.3081 29.5933 36.4517 32.406 33.4211L37.3673 38.3825C35.4448 40.5431 34.2748 43.3873 34.2748 46.5001C34.2748 49.6129 35.4449 52.4571 37.3673 54.6177L32.406 59.5791C29.5933 56.5483 27.8303 52.6919 27.3852 48.5923ZM47.3165 68.7479C47.3165 69.1982 46.9502 69.5645 46.5 69.5645C46.0498 69.5645 45.6835 69.1981 45.6835 68.7479V66.4464C45.6835 65.9962 46.0498 65.6299 46.5 65.6299C46.9502 65.6299 47.3165 65.9963 47.3165 66.4464V68.7479ZM46.5 64.1943C45.5519 64.1943 44.7393 64.7835 44.4076 65.6148C40.3081 65.1696 36.4517 63.4067 33.421 60.594L38.3824 55.6327C40.543 57.5552 43.3872 58.7253 46.5 58.7253C49.6128 58.7253 52.457 57.5552 54.6176 55.6327L59.579 60.594C56.5483 63.4067 52.6919 65.1697 48.5924 65.6148C48.2607 64.7835 47.4482 64.1943 46.5 64.1943ZM62.2664 62.2667C58.6226 65.9105 53.8486 68.1705 48.7522 68.6834V67.0413C53.4116 66.5342 57.7789 64.4448 61.112 61.1117C64.4449 57.7786 66.5343 53.4114 67.0414 48.7521H68.6835C68.1705 53.8488 65.9103 58.6228 62.2664 62.2667ZM68.7478 47.3165H66.4464C65.9961 47.3165 65.6298 46.9502 65.6298 46.5C65.6298 46.0498 65.9962 45.6835 66.4464 45.6835H68.7478C69.1981 45.6835 69.5644 46.0498 69.5644 46.5C69.5644 46.9502 69.198 47.3165 68.7478 47.3165Z" fill="white"/>
</svg>
