<svg width="94" height="94" viewBox="0 0 94 94" fill="none" xmlns="http://www.w3.org/2000/svg">
<rect width="94" height="94" rx="47" fill="#B7934D"/>
<g clip-path="url(#clip0)">
<path d="M28.8551 45.7822H22.7178C22.3214 45.7822 22 46.1036 22 46.5C22 46.8964 22.3214 47.2178 22.7178 47.2178H28.8551C29.2515 47.2178 29.5729 46.8964 29.5729 46.5C29.5729 46.1036 29.2515 45.7822 28.8551 45.7822Z" fill="white"/>
<path d="M70.2821 45.7822H64.1448C63.7484 45.7822 63.427 46.1036 63.427 46.5C63.427 46.8964 63.7484 47.2178 64.1448 47.2178H70.2821C70.6785 47.2178 70.9999 46.8964 70.9999 46.5C70.9999 46.1036 70.6785 45.7822 70.2821 45.7822Z" fill="white"/>
<path d="M46.5 22C46.1036 22 45.7822 22.3214 45.7822 22.7178V28.8551C45.7822 29.2515 46.1036 29.5729 46.5 29.5729C46.8964 29.5729 47.2178 29.2516 47.2178 28.8551V22.7178C47.2178 22.3214 46.8964 22 46.5 22Z" fill="white"/>
<path d="M46.5 63.4271C46.1036 63.4271 45.7822 63.7484 45.7822 64.1449V70.2822C45.7822 70.6786 46.1036 71 46.5 71C46.8964 71 47.2178 70.6786 47.2178 70.2822V64.1449C47.2178 63.7485 46.8964 63.4271 46.5 63.4271Z" fill="white"/>
<path d="M34.5308 33.5158L30.1911 29.1758C29.9108 28.8955 29.4563 28.8955 29.1761 29.1758C28.8957 29.4561 28.8957 29.9106 29.1761 30.1908L33.5158 34.5308C33.6559 34.6709 33.8397 34.7409 34.0233 34.7409C34.207 34.7409 34.3907 34.6709 34.5308 34.5308C34.8112 34.2505 34.8112 33.796 34.5308 33.5158Z" fill="white"/>
<path d="M63.8243 62.8091L59.4845 58.4692C59.2043 58.1889 58.7498 58.1889 58.4695 58.4692C58.1892 58.7495 58.1892 59.204 58.4695 59.4842L62.8093 63.8241C62.9494 63.9642 63.1331 64.0343 63.3168 64.0343C63.5004 64.0343 63.6842 63.9642 63.8243 63.8241C64.1046 63.5438 64.1046 63.0893 63.8243 62.8091Z" fill="white"/>
<path d="M63.8243 29.1759C63.544 28.8956 63.0895 28.8956 62.8093 29.1759L58.4695 33.5158C58.1892 33.7961 58.1892 34.2506 58.4695 34.5308C58.6096 34.6709 58.7934 34.741 58.977 34.741C59.1607 34.741 59.3444 34.6709 59.4845 34.5308L63.8243 30.191C64.1046 29.9106 64.1046 29.4562 63.8243 29.1759Z" fill="white"/>
<path d="M34.5308 58.4692C34.2505 58.189 33.796 58.189 33.5158 58.4692L29.1761 62.8091C28.8957 63.0894 28.8957 63.5439 29.1761 63.8241C29.3162 63.9642 29.4999 64.0343 29.6836 64.0343C29.8672 64.0343 30.051 63.9642 30.1911 63.8241L34.5308 59.4842C34.8112 59.2039 34.8112 58.7494 34.5308 58.4692Z" fill="white"/>
<path d="M50.828 51.3477C50.5395 51.0758 50.0852 51.0893 49.8134 51.3778C49.0411 52.1973 47.8024 52.6867 46.4999 52.6867C45.1974 52.6867 43.9587 52.1973 43.1865 51.3778C42.9147 51.0893 42.4604 51.0758 42.1718 51.3477C41.8833 51.6196 41.8698 52.0738 42.1417 52.3623C43.1956 53.4807 44.7841 54.1223 46.4999 54.1223C48.2158 54.1223 49.8043 53.4808 50.8582 52.3623C51.13 52.0738 51.1166 51.6196 50.828 51.3477Z" fill="white"/>
<path d="M57.846 37.4355C57.5983 37.1261 57.1465 37.076 56.8371 37.3238C56.5277 37.5716 56.4777 38.0233 56.7254 38.3327C57.6193 39.4491 58.3018 40.6702 58.7771 41.9463H56.4281C56.4266 41.9445 56.4251 41.9426 56.4235 41.9409C55.9962 41.4568 55.3808 41.1792 54.7351 41.1792H49.9994C49.3441 41.1792 48.734 41.4572 48.3062 41.9463H44.6936C44.2659 41.4572 43.6557 41.1792 43.0004 41.1792H38.2647C37.619 41.1792 37.0036 41.4568 36.5763 41.9409C36.5747 41.9427 36.5733 41.9445 36.5717 41.9463H34.2208C34.8589 40.2272 35.8681 38.6178 37.2429 37.243C41.9665 32.5194 49.4573 32.103 54.6671 36.2745C54.9765 36.5223 55.4282 36.4721 55.676 36.1628C55.9237 35.8534 55.8737 35.4017 55.5643 35.1539C49.7826 30.5244 41.4696 30.9861 36.2277 36.228C30.9859 41.4698 30.5241 49.7827 35.1537 55.5645C35.2954 55.7416 35.5039 55.8336 35.7144 55.8336C35.8717 55.8336 36.0302 55.7821 36.1626 55.6761C36.472 55.4283 36.522 54.9766 36.2743 54.6672C33.6496 51.3893 32.8418 47.2084 33.7798 43.3819H36.0137C36.0113 43.4911 36.0161 43.6009 36.0298 43.7106L36.3294 46.1073C36.5178 47.615 37.8058 48.7521 39.3254 48.7521H41.634C43.022 48.7521 44.2265 47.8116 44.5631 46.4652L45.1851 43.9776C45.2346 43.7798 45.256 43.5798 45.2521 43.382H47.7472C47.7433 43.5798 47.7649 43.7798 47.8142 43.9776L48.4362 46.4652C48.7728 47.8117 49.9773 48.7522 51.3653 48.7522H53.6739C55.1934 48.7522 56.4814 47.6151 56.6699 46.1074L56.9695 43.7108C56.9832 43.6012 56.9881 43.4913 56.9857 43.3821H59.219C60.2805 47.7015 59.0938 52.4198 55.7565 55.7571C51.0329 60.4807 43.5421 60.8971 38.3324 56.7256C38.0229 56.4777 37.5712 56.5279 37.3235 56.8373C37.0757 57.1467 37.1257 57.5984 37.4351 57.8462C40.1015 59.9812 43.3058 61.0333 46.4994 61.0333C50.2306 61.0333 53.9473 59.5965 56.7717 56.7722C62.0138 51.5302 62.4756 43.2173 57.846 37.4355ZM43.7927 43.6294L43.1707 46.117C42.9941 46.8233 42.3623 47.3166 41.6343 47.3166H39.3257C38.5286 47.3166 37.853 46.7203 37.7541 45.9293L37.4546 43.5326C37.4251 43.2969 37.4954 43.069 37.6527 42.8909C37.8099 42.7128 38.0273 42.6147 38.2648 42.6147H43.0005C43.2537 42.6147 43.4883 42.7292 43.6441 42.9287C43.8 43.1284 43.8541 43.3837 43.7927 43.6294ZM55.5453 43.5326L55.2458 45.9292C55.1469 46.7202 54.4712 47.3165 53.6742 47.3165H51.3656C50.6376 47.3165 50.0057 46.8233 49.8292 46.1169L49.2073 43.6294C49.1459 43.3838 49.2 43.1284 49.3558 42.9288C49.5116 42.7293 49.7463 42.6148 49.9994 42.6148H54.7351C54.9726 42.6148 55.19 42.7129 55.3472 42.891C55.5045 43.0689 55.5748 43.2969 55.5453 43.5326Z" fill="white"/>
<path d="M40.4108 29.9235L39.2365 27.0885C39.0849 26.7223 38.6649 26.5484 38.2988 26.7C37.9325 26.8517 37.7586 27.2716 37.9103 27.6379L39.0846 30.4729C39.199 30.7494 39.4663 30.9162 39.748 30.9162C39.8396 30.9162 39.9326 30.8986 40.0224 30.8614C40.3886 30.7097 40.5625 30.2898 40.4108 29.9235Z" fill="white"/>
<path d="M55.0899 65.3621L53.9155 62.5271C53.7638 62.1609 53.344 61.987 52.9777 62.1386C52.6114 62.2903 52.4376 62.7102 52.5892 63.0765L53.7636 65.9115C53.8781 66.188 54.1454 66.3548 54.427 66.3548C54.5186 66.3548 54.6116 66.3372 54.7014 66.3C55.0677 66.1483 55.2416 65.7284 55.0899 65.3621Z" fill="white"/>
<path d="M66.2999 38.2986C66.1482 37.9323 65.7283 37.7584 65.3621 37.9101L62.527 39.0845C62.1608 39.2363 61.9869 39.656 62.1385 40.0223C62.253 40.2988 62.5203 40.4656 62.802 40.4656C62.8936 40.4656 62.9866 40.448 63.0763 40.4107L65.9115 39.2364C66.2777 39.0847 66.4516 38.6648 66.2999 38.2986Z" fill="white"/>
<path d="M30.8614 52.9777C30.7098 52.6114 30.2899 52.4376 29.9237 52.5892L27.0885 53.7636C26.7223 53.9153 26.5484 54.3351 26.7001 54.7014C26.8145 54.9779 27.0818 55.1447 27.3635 55.1447C27.4551 55.1447 27.5481 55.1271 27.6379 55.0899L30.473 53.9155C30.8391 53.7637 31.0131 53.344 30.8614 52.9777Z" fill="white"/>
<path d="M54.7014 26.7C54.3352 26.5484 53.9153 26.7222 53.7636 27.0885L52.5892 29.9236C52.4376 30.2898 52.6114 30.7097 52.9777 30.8614C53.0675 30.8987 53.1606 30.9162 53.2521 30.9162C53.5337 30.9162 53.801 30.7494 53.9155 30.4729L55.0899 27.6379C55.2416 27.2716 55.0677 26.8518 54.7014 26.7Z" fill="white"/>
<path d="M40.0222 62.1386C39.6561 61.987 39.2361 62.1608 39.0844 62.5271L37.91 65.3622C37.7584 65.7284 37.9322 66.1483 38.2985 66.3001C38.3883 66.3373 38.4814 66.3548 38.5729 66.3548C38.8545 66.3548 39.1218 66.188 39.2363 65.9115L40.4107 63.0765C40.5624 62.7102 40.3885 62.2904 40.0222 62.1386Z" fill="white"/>
<path d="M65.9115 53.7636L63.0764 52.5892C62.71 52.4376 62.2903 52.6114 62.1386 52.9777C61.9869 53.3439 62.1608 53.7638 62.527 53.9155L65.3621 55.0898C65.452 55.1271 65.545 55.1447 65.6365 55.1447C65.9182 55.1447 66.1855 54.9778 66.2999 54.7014C66.4516 54.3351 66.2776 53.9153 65.9115 53.7636Z" fill="white"/>
<path d="M30.4727 39.0845L27.6377 37.9101C27.2712 37.7585 26.8516 37.9323 26.6999 38.2986C26.5481 38.6648 26.7221 39.0847 27.0882 39.2364L29.9234 40.4108C30.0132 40.448 30.1062 40.4656 30.1977 40.4656C30.4794 40.4656 30.7467 40.2987 30.8612 40.0223C31.0128 39.656 30.8389 39.2362 30.4727 39.0845Z" fill="white"/>
</g>
<defs>
<clipPath id="clip0">
<rect width="49" height="49" fill="white" transform="translate(22 22)"/>
</clipPath>
</defs>
</svg>
