<svg width="94" height="94" viewBox="0 0 94 94" fill="none" xmlns="http://www.w3.org/2000/svg">
<rect width="94" height="94" rx="47" fill="#B7934D"/>
<path d="M66.0382 43.3368C65.7652 43.2331 65.4567 43.3087 65.2628 43.5269L59.2506 50.2905C59.0667 50.4975 59.0213 50.7931 59.1348 51.0457C59.2482 51.2983 59.4993 51.4608 59.7762 51.4608H60.9158C60.0401 53.1007 57.8479 56.4555 53.7974 58.3677C53.0897 58.7019 52.2983 58.6621 51.6261 58.2587C50.9542 57.8555 50.5471 57.1763 50.5089 56.395L49.6084 37.9335H53.7641C54.5662 37.9335 55.2187 37.281 55.2187 36.4788V33.4728C55.2187 33.0844 54.9039 32.7697 54.5156 32.7697C54.1273 32.7697 53.8125 33.0844 53.8125 33.4728V33.5212H49.3932L49.2844 31.292C50.6188 30.4935 51.4612 29.0323 51.4612 27.4607C51.4611 25.0011 49.46 23 47.0004 23C44.5408 23 42.5397 25.0011 42.5397 27.4607C42.5397 29.0309 43.3825 30.4934 44.7165 31.292L44.6077 33.5212H40.1883V33.4728C40.1883 33.0844 39.8735 32.7697 39.4852 32.7697C39.0969 32.7697 38.7821 33.0844 38.7821 33.4728V36.4788C38.7821 37.281 39.4346 37.9335 40.2367 37.9335H44.3925L44.3554 38.6934C44.3365 39.0813 44.6357 39.4111 45.0235 39.43C45.0352 39.4306 45.0467 39.4308 45.0583 39.4308C45.4309 39.4308 45.7417 39.1382 45.76 38.7619L45.8004 37.9335H48.2003L49.1043 56.4635C49.1647 57.7032 49.8369 58.825 50.9024 59.4645C51.9682 60.1041 53.2748 60.1695 54.3976 59.6394C60.4012 56.8051 62.5964 51.2453 62.6869 51.01C62.77 50.7937 62.7414 50.5506 62.6103 50.3596C62.4791 50.1686 62.2624 50.0545 62.0306 50.0545H61.3418L65.0851 45.8435V51.8719L64.7525 51.4299C64.5906 51.2149 64.3201 51.1112 64.056 51.1626C63.7918 51.2142 63.5803 51.4121 63.5111 51.6723C61.558 59.0242 57.0441 61.9587 52.6787 64.7967C50.8734 65.9704 49.1456 67.0951 47.7034 68.4834V59.7759C47.7034 59.3874 47.3886 59.0727 47.0003 59.0727C46.612 59.0727 46.2972 59.3874 46.2972 59.7759V68.4834C44.855 67.095 43.1272 65.9703 41.322 64.7967C36.9567 61.9587 32.4426 59.0242 30.4895 51.6723C30.4204 51.4121 30.2088 51.2142 29.9446 51.1626C29.6805 51.1113 29.4101 51.2149 29.2482 51.4299L28.9155 51.8719V45.8435L32.6588 50.0545H31.97C31.7383 50.0545 31.5215 50.1686 31.3903 50.3596C31.2592 50.5506 31.2305 50.7938 31.3138 51.01C31.4043 51.2453 33.5996 56.805 39.6031 59.6394C40.7259 60.1694 42.0325 60.104 43.0982 59.4645C44.1637 58.8251 44.8359 57.7032 44.8964 56.4635L45.6218 41.5912C45.6407 41.2033 45.3416 40.8736 44.9537 40.8547C44.5663 40.8357 44.2362 41.1348 44.2172 41.5227L43.4918 56.3949C43.4537 57.1762 43.0465 57.8555 42.3746 58.2586C41.7024 58.662 40.9111 58.7018 40.2033 58.3676C36.1526 56.4552 33.9602 53.1 33.0848 51.4607H34.2244C34.5014 51.4607 34.7524 51.2982 34.8659 51.0457C34.9793 50.7931 34.9339 50.4974 34.75 50.2904L28.7379 43.5268C28.544 43.3085 28.2353 43.233 27.9625 43.3367C27.6896 43.4404 27.5093 43.702 27.5093 43.9939V53.975C27.5093 54.2774 27.7026 54.546 27.9895 54.6418C28.2762 54.7376 28.5924 54.6395 28.7742 54.3978L29.5332 53.3894C31.8099 60.2902 36.4408 63.3006 40.5554 65.9756C42.821 67.4485 44.9612 68.8398 46.4473 70.7313C46.5806 70.901 46.7844 71 47.0001 71C47.2158 71 47.4198 70.9009 47.553 70.7313C49.0392 68.8398 51.1792 67.4486 53.4449 65.9756C57.5595 63.3006 62.1904 60.2901 64.4671 53.3894L65.2261 54.3978C65.408 54.6395 65.7241 54.7376 66.0108 54.6418C66.2977 54.546 66.491 54.2774 66.491 53.975V43.994C66.4914 43.7021 66.311 43.4405 66.0382 43.3368ZM43.9461 27.4608C43.9459 25.7764 45.3162 24.4063 47.0004 24.4063C48.6846 24.4063 50.0549 25.7764 50.0549 27.4607C50.0549 28.4334 49.5829 29.3435 48.8176 29.9137C48.4003 29.3645 47.7408 29.0122 47.0005 29.0122C46.2602 29.0122 45.6008 29.3645 45.1835 29.9136C44.4183 29.3433 43.9461 28.4326 43.9461 27.4608ZM47.9851 33.5212H46.0157L46.1265 31.2508C46.1492 30.784 46.5332 30.4184 47.0004 30.4184C47.4677 30.4184 47.8517 30.784 47.8743 31.2508L47.9851 33.5212ZM40.2368 36.5272C40.2101 36.5272 40.1884 36.5056 40.1884 36.4788V34.9274H53.8124V36.4788C53.8124 36.5055 53.7907 36.5272 53.764 36.5272H40.2368Z" fill="white"/>
<path d="M47.0002 54.5637C46.6119 54.5637 46.2971 54.8784 46.2971 55.2668V56.7698C46.2971 57.1581 46.6119 57.4729 47.0002 57.4729C47.3885 57.4729 47.7034 57.1581 47.7034 56.7698V55.2668C47.7034 54.8784 47.3885 54.5637 47.0002 54.5637Z" fill="white"/>
</svg>
