<svg width="94" height="94" viewBox="0 0 94 94" fill="none" xmlns="http://www.w3.org/2000/svg">
<rect width="94" height="94" rx="47" fill="#B7934D"/>
<path d="M54.2017 56.5408C53.4322 55.8438 53.2826 54.8486 53.8295 54.0643C54.5483 53.0333 54.8688 51.8402 54.7565 50.6138C54.5169 47.9981 52.2239 45.9161 49.2985 45.5449V33.6919C49.2985 33.2874 48.9705 32.9595 48.566 32.9595C48.1615 32.9595 47.8336 33.2874 47.8336 33.6919V51.8628C47.5684 51.7882 47.2892 51.7474 47.0004 51.7474C46.7116 51.7474 46.4324 51.7882 46.1672 51.8628V29.7274H47.8336V30.5609C47.8336 30.9654 48.1615 31.2934 48.566 31.2934C48.9705 31.2934 49.2985 30.9654 49.2985 30.5609V29.0406L49.9656 23.7032C50.0195 23.2722 49.8856 22.8382 49.5981 22.5125C49.3105 22.1868 48.8964 22 48.462 22H45.5386C45.1042 22 44.6902 22.1868 44.4026 22.5125C44.1151 22.8382 43.9812 23.2722 44.0351 23.7032L44.7023 29.0407V45.5449C41.7768 45.9161 39.4838 47.9981 39.2443 50.6138C39.1318 51.841 39.4527 53.0348 40.1724 54.066C40.7221 54.8538 40.5882 55.8339 39.8392 56.5048C39.5379 56.7747 39.5124 57.2377 39.7822 57.539C39.9269 57.7005 40.1271 57.7827 40.328 57.7827C40.5021 57.7827 40.6767 57.7211 40.8164 57.5958C42.1227 56.4258 42.3518 54.6295 41.3735 53.2277C40.8543 52.4836 40.6224 51.6259 40.7028 50.7474C40.8715 48.9062 42.5677 47.3768 44.7022 47.0261V52.7791C44.2157 53.324 43.9193 54.042 43.9193 54.8282C43.9193 56.2747 44.9215 57.4908 46.2678 57.8205V59.5253C46.2678 59.9298 46.5957 60.2577 47.0002 60.2577C47.4047 60.2577 47.7326 59.9298 47.7326 59.5253V57.8205C49.0789 57.4909 50.0811 56.2747 50.0811 54.8282C50.0811 54.042 49.7847 53.324 49.2983 52.7791V47.0261C51.4327 47.3768 53.1289 48.9062 53.2976 50.7474C53.378 51.6254 53.1464 52.4826 52.6278 53.2265C51.6552 54.6214 51.898 56.4308 53.2181 57.6266C54.7939 59.0537 55.6616 60.9327 55.6616 62.9175C55.6616 64.8201 54.8585 66.6424 53.4002 68.0485C51.6686 69.7183 49.2004 70.6211 46.6319 70.5285C44.4466 70.449 42.3816 69.6268 40.817 68.2133C39.2749 66.82 38.3958 65.0091 38.3415 63.114C38.309 61.9784 38.5546 60.8815 39.0714 59.8539C39.2531 59.4925 39.1075 59.0522 38.7462 58.8705C38.3848 58.6888 37.9445 58.8344 37.7628 59.1957C37.1357 60.4427 36.8377 61.775 36.8773 63.156C36.9431 65.4545 37.9935 67.6365 39.835 69.3003C41.6547 70.9443 44.0496 71.9004 46.5785 71.9925C46.7173 71.9976 46.8555 72 46.9938 72C49.8088 71.9999 52.4949 70.9563 54.4169 69.1031C56.1642 67.4185 57.1264 65.2217 57.1264 62.9177C57.1267 60.5139 56.0879 58.2492 54.2017 56.5408ZM45.5009 23.4818C45.5159 23.4648 45.5324 23.4648 45.5387 23.4648H48.4621C48.4683 23.4648 48.4849 23.4648 48.4999 23.4818C48.515 23.4989 48.5129 23.5152 48.5121 23.5215L47.9195 28.2626H46.0814L45.4887 23.5215C45.4879 23.5153 45.4859 23.4989 45.5009 23.4818ZM47.0003 56.4443C46.1092 56.4443 45.3843 55.7193 45.3843 54.8282C45.3843 53.9371 46.1092 53.2122 47.0003 53.2122C47.8914 53.2122 48.6163 53.9371 48.6163 54.8282C48.6163 55.7193 47.8914 56.4443 47.0003 56.4443Z" fill="white"/>
<path d="M49.3486 61.9241H44.6516C44.2471 61.9241 43.9192 62.2521 43.9192 62.6566C43.9192 63.061 44.2471 63.389 44.6516 63.389H49.3486C49.7531 63.389 50.081 63.061 50.081 62.6566C50.081 62.2521 49.7531 61.9241 49.3486 61.9241Z" fill="white"/>
</svg>
