<svg width="19" height="19" viewBox="0 0 19 19" fill="none" xmlns="http://www.w3.org/2000/svg">
<path d="M13.0625 0H5.9375C2.65873 0 0 2.65873 0 5.9375V13.0625C0 16.3413 2.65873 19 5.9375 19H13.0625C16.3413 19 19 16.3413 19 13.0625V5.9375C19 2.65873 16.3413 0 13.0625 0ZM17.2191 13.0625C17.2179 14.1645 16.7796 15.2211 16.0003 16.0003C15.2211 16.7796 14.1645 17.2179 13.0625 17.2191H5.9375C4.83547 17.2179 3.77891 16.7796 2.99966 16.0003C2.22041 15.2211 1.78211 14.1645 1.78093 13.0625V5.9375C1.78211 4.83547 2.22041 3.77891 2.99966 2.99966C3.77891 2.22041 4.83547 1.78211 5.9375 1.78093H13.0625C14.1645 1.78211 15.2211 2.22041 16.0003 2.99966C16.7796 3.77891 17.2179 4.83547 17.2191 5.9375V13.0625Z" fill="url(#paint0_linear)"/>
<path d="M9.5 4.75C8.24022 4.75 7.03204 5.25044 6.14124 6.14124C5.25044 7.03204 4.75 8.24022 4.75 9.5C4.75 10.7598 5.25044 11.968 6.14124 12.8588C7.03204 13.7496 8.24022 14.25 9.5 14.25C10.7598 14.25 11.968 13.7496 12.8588 12.8588C13.7496 11.968 14.25 10.7598 14.25 9.5C14.25 8.24022 13.7496 7.03204 12.8588 6.14124C11.968 5.25044 10.7598 4.75 9.5 4.75ZM9.5 12.4691C8.71286 12.4681 7.95825 12.1549 7.40166 11.5983C6.84507 11.0417 6.53194 10.2871 6.53093 9.5C6.53177 8.71281 6.84485 7.95811 7.40148 7.40148C7.95811 6.84485 8.71281 6.53177 9.5 6.53093C10.2872 6.53177 11.0419 6.84485 11.5985 7.40148C12.1551 7.95811 12.4682 8.71281 12.4691 9.5C12.4681 10.2871 12.1549 11.0417 11.5983 11.5983C11.0417 12.1549 10.2871 12.4681 9.5 12.4691Z" fill="url(#paint1_linear)"/>
<path d="M14.6066 5.02687C14.956 5.02687 15.2393 4.74361 15.2393 4.39417C15.2393 4.04474 14.956 3.76147 14.6066 3.76147C14.2571 3.76147 13.9739 4.04474 13.9739 4.39417C13.9739 4.74361 14.2571 5.02687 14.6066 5.02687Z" fill="url(#paint2_linear)"/>
<defs>
<linearGradient id="paint0_linear" x1="1.73945" y1="17.2603" x2="17.2613" y2="1.7385" gradientUnits="userSpaceOnUse">
<stop stop-color="#FFC107"/>
<stop offset="0.507" stop-color="#F44336"/>
<stop offset="0.99" stop-color="#9C27B0"/>
</linearGradient>
<linearGradient id="paint1_linear" x1="6.14151" y1="12.8582" x2="12.8592" y2="6.14056" gradientUnits="userSpaceOnUse">
<stop stop-color="#FFC107"/>
<stop offset="0.507" stop-color="#F44336"/>
<stop offset="0.99" stop-color="#9C27B0"/>
</linearGradient>
<linearGradient id="paint2_linear" x1="14.1583" y1="4.84155" x2="15.0537" y2="3.94617" gradientUnits="userSpaceOnUse">
<stop stop-color="#FFC107"/>
<stop offset="0.507" stop-color="#F44336"/>
<stop offset="0.99" stop-color="#9C27B0"/>
</linearGradient>
</defs>
</svg>
