<svg width="50" height="50" viewBox="0 0 50 50" fill="none" xmlns="http://www.w3.org/2000/svg">
<g clip-path="url(#clip0)">
<path fill-rule="evenodd" clip-rule="evenodd" d="M43.238 14.54C43.2253 14.475 43.2066 14.4114 43.182 14.35C43.1566 14.2944 43.1268 14.2409 43.093 14.19C43.0602 14.1341 43.019 14.0835 42.971 14.04C42.9283 13.992 42.878 13.9514 42.822 13.92C42.7711 13.8812 42.7144 13.8508 42.654 13.83C42.5968 13.8008 42.5354 13.7805 42.472 13.77C42.3454 13.75 42.2165 13.75 42.09 13.77C42.0262 13.7802 41.9645 13.8005 41.907 13.83C41.8462 13.8507 41.7891 13.8811 41.738 13.92C41.6823 13.9514 41.6323 13.992 41.59 14.04C41.542 14.0833 41.5012 14.1339 41.469 14.19C41.4345 14.2406 41.4044 14.2942 41.379 14.35C41.3548 14.4115 41.3361 14.4751 41.323 14.54C41.3102 14.6025 41.3039 14.6661 41.304 14.73C41.3039 14.8581 41.3291 14.9851 41.3781 15.1035C41.4272 15.2219 41.4992 15.3295 41.59 15.42C41.6323 15.4679 41.6823 15.5085 41.738 15.54C41.7894 15.5789 41.8469 15.6093 41.908 15.63C41.9669 15.655 42.0278 15.6751 42.09 15.69C42.1527 15.7016 42.2162 15.7083 42.28 15.71C42.3444 15.7083 42.4086 15.7016 42.472 15.69C42.5341 15.6748 42.595 15.6547 42.654 15.63C42.7144 15.6091 42.7711 15.5787 42.822 15.54C42.8783 15.5086 42.929 15.468 42.972 15.42C43.1546 15.2368 43.2571 14.9886 43.257 14.73C43.2576 14.6661 43.2512 14.6024 43.238 14.54ZM15.71 42.11C15.6987 42.0447 15.6799 41.9809 15.654 41.92C15.6283 41.8611 15.5982 41.8043 15.564 41.75C15.5291 41.6988 15.4885 41.6519 15.443 41.61C15.398 41.5619 15.3484 41.5184 15.295 41.48C15.242 41.45 15.185 41.42 15.125 41.39C15.0658 41.3682 15.005 41.3515 14.943 41.34C14.8171 41.3098 14.6859 41.3098 14.56 41.34C14.4981 41.3517 14.4372 41.3684 14.378 41.39C14.319 41.42 14.262 41.45 14.21 41.48C14.156 41.5181 14.1061 41.5617 14.061 41.61C14.0158 41.6519 13.9755 41.6989 13.941 41.75C13.9071 41.8045 13.8771 41.8613 13.851 41.92C13.825 41.9809 13.8063 42.0447 13.795 42.11C13.7814 42.1724 13.7747 42.2361 13.775 42.3C13.7757 42.3638 13.7824 42.4274 13.795 42.49C13.8073 42.5516 13.8258 42.6119 13.85 42.67C13.8739 42.7296 13.9041 42.7866 13.94 42.84C13.9773 42.8924 14.0177 42.9425 14.061 42.99C14.106 43.03 14.161 43.07 14.211 43.11C14.259 43.15 14.319 43.17 14.378 43.2C14.4372 43.2215 14.4981 43.2382 14.56 43.25C14.6229 43.2666 14.688 43.2733 14.753 43.27C14.817 43.2733 14.8811 43.2665 14.943 43.25C15.0053 43.2385 15.0665 43.2218 15.126 43.2C15.185 43.17 15.242 43.14 15.295 43.11C15.348 43.08 15.395 43.03 15.443 42.99C15.486 42.9424 15.526 42.8923 15.563 42.84C15.5993 42.7868 15.6295 42.7298 15.653 42.67C15.6779 42.612 15.697 42.5517 15.71 42.49C15.7218 42.4273 15.7281 42.3637 15.729 42.3C15.7288 42.2361 15.7221 42.1725 15.709 42.11H15.71ZM48.978 17.9C47.7903 13.9043 45.6243 10.2679 42.6763 7.32044C39.7283 4.37294 36.0914 2.20739 32.095 1.01996C27.4621 -0.339988 22.5359 -0.339988 17.903 1.01996C13.9066 2.2072 10.2697 4.37271 7.32185 7.32025C4.37396 10.2678 2.20826 13.9042 1.02099 17.9C-0.340575 22.532 -0.340575 27.4579 1.02099 32.09C2.20584 36.0881 4.37057 39.727 7.31869 42.6766C10.2668 45.6261 13.905 47.7928 17.903 48.98C22.5359 50.3399 27.4621 50.3399 32.095 48.98C36.093 47.7926 39.7312 45.6259 42.6795 42.6764C45.6277 39.7269 47.7927 36.088 48.978 32.09C50.3402 27.458 50.3402 22.5319 48.978 17.9ZM31.961 7.17996C34.4201 8.14699 36.6533 9.61083 38.521 11.48C38.757 11.71 38.991 11.96 39.221 12.21C39.3134 12.3108 39.4257 12.3912 39.5509 12.4463C39.676 12.5014 39.8113 12.5299 39.948 12.53C40.189 12.5314 40.4217 12.4422 40.6 12.28C40.6954 12.1942 40.773 12.0904 40.8283 11.9746C40.8836 11.8588 40.9156 11.7332 40.9224 11.6051C40.9291 11.4769 40.9106 11.3487 40.8678 11.2277C40.825 11.1067 40.7588 10.9954 40.673 10.9C40.425 10.63 40.167 10.35 39.906 10.09C37.7448 7.9351 35.1449 6.27073 32.283 5.20996L32.603 3.22996C35.8819 4.36743 38.8602 6.23354 41.3137 8.68791C43.7672 11.1423 45.6321 14.121 46.768 17.4L36.598 19.04C35.3554 16.617 33.3843 14.6445 30.962 13.4L31.961 7.17996ZM36.081 25C36.085 26.5433 35.7626 28.07 35.135 29.48C34.0213 32.0046 32.0055 34.0229 29.482 35.14C28.0677 35.7599 26.5402 36.08 24.996 36.08C23.4517 36.08 21.9243 35.7599 20.51 35.14C17.9867 34.0229 15.9712 32.0046 14.858 29.48C14.2338 28.0671 13.9114 26.5395 13.9114 24.995C13.9114 23.4504 14.2338 21.9228 14.858 20.51C15.9746 17.9901 17.9894 15.976 20.51 14.86C21.9226 14.2335 23.4507 13.9099 24.996 13.9099C26.5413 13.9099 28.0694 14.2335 29.482 14.86C32.0026 15.9762 34.0176 17.9902 35.135 20.51C35.7617 21.9238 36.084 23.4535 36.081 25ZM24.995 1.94996C26.9224 1.94952 28.8423 2.18801 30.711 2.65996L29.105 12.62C26.4357 11.7398 23.5543 11.7398 20.885 12.62L19.28 2.65996C21.1487 2.18801 23.0686 1.94952 24.996 1.94996H24.995ZM18.03 7.17996L19.03 13.4C16.6077 14.6445 14.6366 16.617 13.394 19.04L7.17399 18.03C8.14196 15.5737 9.6051 13.3429 11.4724 11.4763C13.3397 9.60969 15.5711 8.14725 18.028 7.17996H18.03ZM17.393 3.22996L17.712 5.20996C14.8474 6.2677 12.2462 7.93382 10.0878 10.0935C7.92927 12.2532 6.26478 14.8551 5.20899 17.72L3.22899 17.4C4.36492 14.1208 6.2299 11.1419 8.68361 8.68747C11.1373 6.23307 14.1158 4.36709 17.395 3.22996H17.393ZM1.94399 25C1.94275 23.071 2.1826 21.1494 2.65799 19.28L12.618 20.89C11.7365 23.5591 11.7365 26.4408 12.618 29.11L2.65799 30.71C2.18321 28.8438 1.94336 26.9256 1.94399 25ZM17.631 45.28L17.392 46.76C14.1135 45.6246 11.1353 43.7604 8.68175 41.3077C6.22817 38.855 4.3631 35.8777 3.22699 32.6L5.20599 32.28C6.26729 35.1412 7.93275 37.7402 10.089 39.9C10.413 40.23 10.753 40.54 11.099 40.85C11.2775 41.0046 11.5058 41.0898 11.742 41.09C11.9408 41.0907 12.1351 41.0305 12.2988 40.9177C12.4625 40.8049 12.5877 40.6447 12.6578 40.4586C12.7279 40.2725 12.7394 40.0695 12.6908 39.8767C12.6422 39.6839 12.5359 39.5106 12.386 39.38C12.0713 39.1034 11.7658 38.8166 11.47 38.52C9.60405 36.6505 8.14216 34.4177 7.17499 31.96L13.396 30.96C14.6392 33.3801 16.6104 35.3492 19.032 36.59L17.631 45.28ZM24.995 48.04C23.0676 48.0404 21.1477 47.8019 19.279 47.33L20.886 37.37C23.555 38.2499 26.436 38.2499 29.105 37.37L30.711 47.33C28.8423 47.8019 26.9224 48.0404 24.995 48.04ZM31.961 42.81L30.961 36.59C33.3826 35.3492 35.3538 33.3801 36.597 30.96L42.818 31.96C41.8538 34.4189 40.3916 36.652 38.5233 38.5191C36.6549 40.3863 34.4208 41.8471 31.961 42.81ZM32.599 46.76L32.359 45.28L32.279 44.78C35.1419 43.7222 37.7419 42.0572 39.9002 39.8994C42.0584 37.7417 43.7239 35.1423 44.782 32.28L46.761 32.6C45.6249 35.8775 43.7599 38.8547 41.3065 41.3074C38.8531 43.7601 35.8752 45.6244 32.597 46.76H32.599ZM47.332 30.71L37.373 29.11C38.2545 26.4408 38.2545 23.5591 37.373 20.89L47.332 19.28C48.2842 23.0305 48.2842 26.9594 47.332 30.71Z" fill="#B7934D"/>
</g>
<defs>
<clipPath id="clip0">
<rect width="50" height="50" fill="white"/>
</clipPath>
</defs>
</svg>
