<svg xmlns="http://www.w3.org/2000/svg" width="1738" height="748" viewBox="0 0 1738 748" fill="none">
<g clip-path="url(#clip0)">
<path d="M681.5 720.8C684.2 720.6 686.9 720.4 689.7 720.2C714.4 717.9 739.2 717.7 763.9 714.1C823.4 705.5 883.2 698.9 942.3 687.7C984 679.9 1025.7 672 1067 662.3C1171.7 637.7 1273.9 605.7 1373.4 564.9C1497.3 514.1 1615.1 451.6 1729.7 382.6C1738.5 377.3 1735.7 375.5 1729.4 371.4C1707.3 357.2 1685.7 342.5 1663.5 328.5C1570.1 269.5 1471.5 221 1368.1 182.5C1284.9 151.5 1199.8 126.9 1112.9 108.3C1069.4 99 1026 89.8 982.2 82.3C926.6 72.7 870.8 63.6 815.1 54.8C780.7 49.4 746.1 45.3 711.8 39.7C691.9 36.5 671.3 36.3 652.1 29C652.8 29 653.2 28.7 653.5 28.1C655.8 28.6 657.9 28.2 659.6 26.5C768.7 -1.50001 879.6 -5.50001 991 5.49999C1126.9 19 1257 54.8 1381.6 110.7C1466 148.6 1544.6 196 1616.4 254.4C1657.1 287.5 1694.6 324.1 1728.6 364.1C1739.9 377.4 1739.8 377.5 1729.3 391.5C1693.2 439.9 1650.8 482 1603.7 519.6C1509.2 595.2 1402.4 647.1 1287.5 683.6C1131.7 733.5 972 753 808.9 745.7C757.6 743.4 706.7 737 656.2 726.9C655.2 726.7 654.3 725.9 652 724.5C657 723.7 660.7 723.2 664.3 722.6C670.1 722.8 676 723.7 681.5 720.8V720.8Z" fill="white"/>
<path d="M652.1 29.1C671.3 36.4 691.9 36.5 711.8 39.8C746.2 45.4 780.8 49.4 815.1 54.9C870.9 63.7 926.6 72.8 982.2 82.4C1026 89.9 1069.4 99.2 1112.9 108.4C1199.8 126.9 1284.9 151.6 1368.1 182.6C1471.5 221.1 1570.2 269.6 1663.5 328.6C1685.7 342.6 1707.3 357.4 1729.4 371.5C1735.7 375.5 1738.4 377.4 1729.7 382.7C1615.2 451.8 1497.3 514.3 1373.4 565C1273.9 605.8 1171.7 637.8 1067 662.4C1025.7 672.1 984 679.9 942.3 687.8C883.2 698.9 823.4 705.6 763.9 714.2C739.2 717.8 714.4 718 689.7 720.3C690.4 717.4 690.1 713.7 694.7 713.6C706.5 713.5 717.8 709.9 729.3 708C745.5 705.4 761.4 700.2 777.6 696.9C794.6 693.4 811.6 689.4 828.4 685C845.2 680.6 861.6 674.2 878.6 670.7C901.7 666 923.2 655.9 946.5 651.8C961.9 649.1 976.4 641.8 991.4 637.2C1015.9 629.7 1040.2 622 1064.1 612.7C1100.5 598.5 1138.2 587.1 1173.8 571.2C1189.7 564.1 1206 556.9 1221.7 549C1242.5 538.5 1264.6 530.6 1284.8 519.1C1312.7 503.2 1342.1 490.6 1370.3 475.3C1399.3 459.6 1428.6 443.8 1458.4 429.4C1480.7 418.6 1500.7 403.7 1523.4 393.7C1530.3 390.7 1534.5 383.4 1543.3 382.6C1547.7 382.2 1547.8 377 1543.2 373.9C1527.5 363.3 1511 354.4 1494.1 346C1482.7 340.3 1471.9 333.4 1460.4 327.5C1430.5 312.1 1401.2 295.4 1371.4 279.7C1343.3 264.8 1314.7 250.7 1286.2 236.6C1256.3 221.7 1226.2 206.5 1194.5 195C1179.3 189.5 1164.3 182.7 1149.6 175.8C1125.6 164.5 1100.5 156.3 1075.8 147.1C1055.8 139.7 1035.6 132.8 1015.5 126C989.8 117.2 963.3 110.7 937.9 101.2C911.3 91.2 883.3 86.6 856.3 78.2C841.9 73.7 825.6 71.5 810.5 67.8C795 64 779.1 61.1 763.8 55.9C755.1 52.9 745.5 52.3 736.4 50.2C716.6 45.5 697 40.8 676.4 39.8C667.7 39.4 659.1 33.7 649.7 32.4C648 31.9 649.7 29.1 652.1 29.1Z" fill="#FADCBD"/>
<path d="M395.3 103.5C417.5 94.3 440.7 90.8 463.9 87.7C550.8 76.1 637.7 77.1 724.2 89.8C849.1 108.1 967.9 144.3 1074.2 214.9C1133.9 254.5 1185.6 302.5 1225.2 362.7C1229.5 369.2 1229.7 373.7 1225.2 380.4C1181.7 446.5 1123.9 497.6 1057.4 539.1C968.1 594.8 869.9 627.1 767.1 646.2C654.7 667.1 542 669.7 429.1 649.8C416.4 647.6 403.9 644.5 390.8 639.7C689 611 967.5 521.5 1226.4 370.5C1097.9 301.2 966 237.1 825.5 192.2C685.4 147.4 541.2 121.5 395.3 103.5V103.5ZM79.5 361.4H88.9C106.3 361.4 107.1 362.4 104 379.9C98.9 408 72.7 423.3 41 416.9C13.5 411.3 -5.2 382.1 1.4 354.4C6.2 334.1 18.4 319.8 38.7 314.6C58.3 309.7 77 312.8 91.7 328.3C94 330.7 100.8 334 94.5 338.1C89.8 341.1 85.3 349.3 77.7 342.4C73.6 338.7 69.3 335.6 63.8 333.9C48.1 329.1 32 335.3 24.6 349.2C16.8 363.9 20.4 381.8 33.1 391.5C45.6 401.1 65.6 400.9 76.7 391C79.5 388.5 83.7 385.6 82.3 381.5C80.9 377.5 76.2 379.9 72.9 379.5C69.8 379.1 66.6 379.2 63.5 379.5C57.3 380.1 53 379.8 53.3 371.4C53.6 364.3 54.6 360.3 63 361.4C68.4 362.1 73.9 361.5 79.4 361.5L79.5 361.4V361.4Z" fill="white"/>
<path d="M581.4 364.6C581.4 350.5 581.7 336.4 581.3 322.3C581.1 316 583.1 314 589.2 314.3C600.2 314.7 611.2 314.2 622.1 314.7C647.5 315.8 659.3 336.6 647.2 359.1C645 363.1 645.4 365 648.4 367.8C657.5 376.4 658.8 387.2 654.2 398C649.4 409.3 640 415.7 627.6 416.2C615.1 416.7 602.5 416.1 590 416.6C583.4 416.9 580.8 415.1 581.4 408.1C582.1 400.7 581.5 393.2 581.5 385.8C581.4 378.7 581.4 371.7 581.4 364.6V364.6ZM615.9 397.4H618.2C625.9 397.8 633.4 397.5 635.6 387.9C636.9 382.4 634.9 377.1 629.6 375.4C620.7 372.6 611.4 372.7 602.3 375.4C601.8 375.5 601.6 376.7 601.4 377.4C597 389.9 602.5 397.6 615.9 397.4ZM614 355.6C616.3 355.6 618.7 355.7 621 355.6C628 355.1 631.7 351.2 631.7 344.3C631.6 337.2 627.2 333.9 620.5 333.6C616.2 333.4 612 333.5 607.7 333.5C604.8 333.5 602.7 334 601.6 337.4C597.6 349.1 602 355.6 614 355.6V355.6ZM492 381.9C492 389.7 492.2 397.6 491.9 405.4C491.8 409 494.3 414.3 489.7 415.9C484.8 417.6 477.6 419 474.3 414.9C470.6 410.3 469.2 412.7 466.2 414.3C450.9 422.2 433.6 418.5 422.8 405.4C411.1 391.1 411.1 368.7 422.9 354.3C433.1 341.7 450.5 337.8 465.3 345.7C469.3 347.8 471.7 347.2 475.6 345.8C487.6 341.5 492 344.9 492 357.3C492.1 365.4 492 373.6 492 381.9ZM454.2 360.1C442.3 359.7 433.9 367.3 433.4 379C432.9 390.9 440.7 399.8 452 400.3C463 400.8 472.8 391.9 473.1 381.2C473.4 369.1 465.6 360.5 454.2 360.1V360.1ZM329.9 388.1C322.9 388.1 315.8 388 308.8 388.2C307 388.2 304.6 387.7 303.7 390C302.7 392.7 304.6 394.5 306.4 395.9C314.7 402.4 324.5 403.4 332.7 397.8C340.9 392.2 345 398.6 350.2 401.2C353.7 402.9 350.9 405.6 349 407.8C338.5 419.6 313.8 422 298.9 412.7C282.8 402.6 276.5 381.9 284.3 364.2C291.8 347 310.2 338.1 329 342.4C345.5 346.2 357.2 363.3 356.5 381.4C356.3 387.4 354 388.7 348.7 388.3C342.5 387.8 336.2 388.1 329.9 388.1V388.1ZM337 372.6C334.3 362.3 327.8 359.3 320.1 358.9C313.7 358.6 307.8 360.7 304 366.4C301.4 370.2 301.3 372.8 307 372.7C316.7 372.5 326.3 372.6 337 372.6ZM161.4 388.1C155.5 388.1 149.6 387.8 143.8 388.2C141.1 388.4 136.6 386.4 136 390.8C135.6 393.9 138.5 396.5 141.4 397.9C149.6 401.9 158.4 402.8 166 397.4C174.1 391.6 178.1 399.2 183.4 401.6C186.3 402.9 183.4 405.5 182 407.2C171.8 419.2 147.4 422 132 412.9C116.3 403.6 109.7 383.7 116.4 365.7C122.8 348.3 140.8 338.6 160.1 342.1C177 345.2 189.5 361.5 189.4 379.6C189.4 386.4 186.9 388.7 180.3 388.2C173.9 387.7 167.7 388.1 161.4 388.1V388.1ZM169.3 372.6C162.4 357.2 145.5 354.3 137.2 365.6C136.2 367 135.2 369.1 135.4 370.8C135.7 373.5 138.4 372.5 140.2 372.6H169.3ZM829 380.2V404.9C829 415.8 819 422.3 811.4 415.1C806.6 410.6 805.4 413.4 802.3 414.8C783 423.7 767.8 416 757 397.2C748.7 382.7 750.2 370.7 757.7 358.1C767.1 342.4 785 337.3 801.7 345C805.3 346.7 807.1 347.5 811.5 344.9C821.7 338.9 828.8 343.9 828.9 355.6V368.5C829 372.3 829 376.3 829 380.2V380.2ZM789.9 360.1C779.7 360.1 768.1 370.1 768.1 378.8C768 389.2 779.7 400.4 790.5 400.2C801.8 400 810.1 391.2 810.1 379.7C809.9 368 801.8 360.1 789.9 360.1V360.1ZM742 379.9C743.9 400.1 723.8 418.9 703.7 418.3C681.4 417.6 665.4 401.8 665.4 379.5C665.4 358.1 681.7 341.8 703.3 341.6C725.6 341.5 742.1 357.8 742 379.9V379.9ZM684.8 379.4C684.5 390.9 691.9 399.3 702.7 399.8C713.8 400.4 722.8 391.7 723.1 380.4C723.3 368.7 715.4 360.4 703.8 360.2C692.7 360.2 685.1 367.8 684.8 379.4ZM201.7 379.4V355.9C201.7 343.7 207.3 339.3 218.7 344.3C222.8 346.1 224.7 346.1 228.5 344.5C249.5 335.6 266.4 347.1 269.2 369.3C270.9 382.8 269.4 396.7 269.7 410.4C269.9 419.5 263.2 416.1 258.9 416.6C253.9 417.1 249.6 416.8 250 409.5C250.6 398.2 250.2 386.8 250.4 375.4C250.5 366.2 247 359.9 237.1 359.6C227.4 359.4 221.4 364.1 221.2 374.3C221 385.7 220.6 397.1 221.1 408.4C221.5 416.9 216.7 416.7 210.7 416.7C205 416.7 200.9 416.6 201.4 408.8C202.2 399 201.7 389.2 201.7 379.4V379.4ZM924.5 418.2C916 417.6 909.1 417.4 903.8 412.8C899.9 409.4 891.6 405.9 896.7 399.9C900 396 907.1 387.3 914.6 397.6C916.7 400.5 920.8 400.7 924.4 400.6C928.4 400.5 933 400.3 933.4 395.3C933.8 391.2 929.8 389.8 926.4 388.7C920.5 386.7 914.4 385.1 908.7 382.6C901.4 379.4 897.1 373.7 896.8 365.3C896.5 356.7 900 350.2 907.3 345.7C918.6 338.7 935.5 339.9 945.6 349C948 351.2 954.2 354.1 949.5 357.8C945.6 360.8 941.2 366.6 934.5 363.2C933.2 362.5 932.3 360.9 931 360.2C926.1 357.6 919.9 356.9 917.5 362.1C914.6 368.4 921.5 369 925.6 370.5C929.3 371.8 933.1 372.6 936.8 373.9C949.6 378.5 954.8 385.8 953.4 397.4C952 409.4 944.2 414.9 933.2 417C929.7 418 926.1 418.1 924.5 418.2V418.2ZM852.1 382C852.1 378.1 851.9 374.2 852.1 370.3C852.4 365.5 851.9 361.6 845.5 362C838 362.5 839.2 357 839.1 352.4C838.9 347.4 838.7 342.7 846 343.5C850.7 344 852.6 341.3 851.9 337.1C850.6 329.8 855.3 328.2 860.8 326C869.2 322.7 872.4 324.7 871.1 333.7C870 341 872.5 344.9 880.5 343.6C887.7 342.4 887.7 347 887.5 352.1C887.3 357.1 888.7 363.1 880.4 361.9C872.2 360.8 870.4 365 871 372.2C871.5 377.6 871.3 383.2 871.1 388.6C870.8 395.3 873.5 399.3 880.6 398.7C890.2 398 886.9 404.9 887.6 409.8C888.4 415.9 885.2 416.7 880.1 417C858.2 418.1 852 410.6 852.1 382V382ZM508.4 362.8C508.4 348 508.8 333.1 508.2 318.3C507.9 311 511 309.8 517.1 310.3C522.2 310.8 527.9 308.6 527.8 317.9C527.3 347.6 527.4 377.2 527.7 406.9C527.8 416.1 522.3 416.1 515.7 416.8C507.4 417.6 508.3 412.5 508.4 407.3C508.5 392.5 508.5 377.6 508.4 362.8ZM369.4 379.4C369.4 370.8 369.2 362.2 369.5 353.6C369.6 350.3 367.6 345.3 371.6 344.2C376.6 342.9 384.9 340.9 387 345.1C390.8 352.8 393.1 347.5 396.3 345.9C400.4 343.8 405.3 339.7 409.1 343.4C412.8 346.9 409.9 353.1 410.4 358C411.1 364.5 405.7 362.7 402.3 363.6C393.3 366.1 388.4 371.8 388.3 381.4C388.3 390.8 387.7 400.2 388.3 409.6C388.8 417 384.6 417 379.5 416.7C374.9 416.4 368.8 418.9 369.2 410C369.7 399.8 369.4 389.6 369.4 379.4V379.4Z" fill="white"/>
<path d="M659.6 26.7C657.9 28.4 655.8 28.7 653.5 28.3C655 25.7 657.5 26.8 659.6 26.7Z" fill="black"/>
</g>
<defs>
<clipPath id="clip0">
<rect width="1737.1" height="747.2" fill="white"/>
</clipPath>
</defs>
</svg>