<svg xmlns="http://www.w3.org/2000/svg" xmlns:xlink="http://www.w3.org/1999/xlink" width="506px" height="426px" viewBox="0 0 506 426" version="1.1">
    <!-- Generator: Sketch 48.2 (47327) - http://www.bohemiancoding.com/sketch -->
    <title>Untitled 125</title>
    <desc>Created with Sketch.</desc>
    <defs/>
    <g id="Page-1" stroke="none" stroke-width="1" fill="none" fill-rule="evenodd">
        <g id="audio" fill="#000000" fill-rule="nonzero">
            <path d="M106.138255,50 L106.138255,375.558442 C106.138255,403.172679 128.524018,425.558442 156.138255,425.558442 L174.735137,425.558442 L174.735137,396.539325 L171.158359,396.539325 C143.544122,396.539325 135.158359,388.153562 135.158359,360.539325 L135.158359,65.0191171 C135.158359,37.4048796 143.544122,29.0191171 171.158359,29.0191171 L334.515867,29.0191171 C362.130104,29.0191171 370.515867,37.4048796 370.515867,65.0191171 L370.515867,360.539325 C370.515867,388.153562 362.130104,396.539325 334.515867,396.539325 L194.763588,396.539325 L194.763588,425.558442 L349.535972,425.558442 C377.150209,425.558442 399.535972,403.172679 399.535972,375.558442 L399.535972,50 C399.535972,22.3857625 377.150209,-5.07265313e-15 349.535972,0 L156.138255,0 C128.524018,5.07265313e-15 106.138255,22.3857625 106.138255,50 Z M252.837113,52.6543165 C222.180613,52.6543165 197.239615,77.5943274 197.239615,108.250827 C197.239615,138.907328 222.180613,163.847338 252.837113,163.847338 C283.493613,163.847338 308.433624,138.907328 308.433624,108.250827 C308.433624,77.5943274 283.492625,52.6543165 252.837113,52.6543165 Z M252.837113,144.826246 C230.462016,144.826246 216.25972,130.623949 216.25972,108.249839 C216.25972,85.8757306 230.463004,71.6734338 252.837113,71.6734338 C275.211223,71.6734338 289.41352,85.8757306 289.41352,108.249839 C289.41352,130.623949 275.211223,144.826246 252.837113,144.826246 Z M252.837113,188.815003 C202.083025,188.815003 160.792552,230.106464 160.792552,280.859564 C160.792552,331.612664 202.084014,372.904125 252.837113,372.904125 C303.591201,372.904125 344.881674,331.612664 344.881674,280.859564 C344.881674,230.106464 303.591201,188.815003 252.837113,188.815003 Z M252.837113,347.885008 C210.365417,347.885008 185.812657,323.332248 185.812657,280.860552 C185.812657,238.388855 210.365417,213.836096 252.837113,213.836096 C295.30881,213.836096 319.861569,238.388855 319.861569,280.860552 C319.861569,323.332248 295.30881,347.885008 252.837113,347.885008 Z M252.837113,243.079181 C232.00373,243.079181 215.054755,260.028156 215.054755,280.860552 C215.054755,301.69196 232.00373,318.640935 252.837113,318.640935 C273.670496,318.640935 290.619472,301.69196 290.619472,280.860552 C290.619472,260.028156 273.670496,243.079181 252.837113,243.079181 Z M252.837113,299.62083 C240.286121,299.62083 234.074859,293.411544 234.074859,280.860552 C234.074859,268.309559 240.286121,262.099286 252.837113,262.099286 C265.388106,262.099286 271.599367,268.309559 271.599367,280.860552 C271.599367,293.409569 265.388106,299.62083 252.837113,299.62083 Z M463.03858,109.691802 C490.531654,137.185862 505.674227,173.794898 505.674227,212.778233 C505.674227,251.762556 490.531654,288.37258 463.03858,315.86664 L445.417447,298.245506 C470.074991,273.58895 482.654122,247.749754 482.654122,212.778233 C482.654122,177.8077 470.074991,151.968505 445.418434,127.311948 L463.03858,109.691802 Z M431.389497,141.339897 C470.78073,180.732117 470.78073,244.826325 431.389497,284.217557 L413.769351,266.596423 C447.303848,233.061925 447.303848,192.495528 413.769351,158.960043 L431.389497,141.339897 Z M60.2557922,127.31096 C9.26960815,178.297144 9.26960815,247.258334 60.2557922,298.244518 L42.6356459,315.86664 C15.1425728,288.373567 0,251.762556 0,212.778233 C0,173.794898 15.1425728,137.184874 42.6356459,109.690814 L60.2557922,127.31096 Z M91.905863,158.960043 C58.3713657,192.495528 58.3713657,233.061925 91.905863,266.596423 L74.2847289,284.217557 C34.8934969,244.826325 34.8934969,180.731129 74.2847289,141.339897 L91.905863,158.960043 Z" id="path-2"/>
        </g>
    </g>
</svg>