<svg xmlns="http://www.w3.org/2000/svg" xmlns:xlink="http://www.w3.org/1999/xlink" width="512px" height="512px" viewBox="0 0 512 512" version="1.1">
    <!-- Generator: Sketch 48.2 (47327) - http://www.bohemiancoding.com/sketch -->
    <title>Untitled 126</title>
    <desc>Created with Sketch.</desc>
    <defs/>
    <g id="Page-1" stroke="none" stroke-width="1" fill="none" fill-rule="evenodd">
        <g id="life-jacket" transform="translate(65.000000, 21.000000)" fill="#000000" fill-rule="nonzero" stroke="#000000" stroke-width="8">
            <path d="M383.784,161.124 C383.784,156.982 380.427,153.624 376.284,153.624 C346.536,153.624 322.335,129.422 322.335,99.675 L322.335,7.5 C322.335,3.358 318.978,0 314.835,0 L253.385,0 C249.242,0 245.885,3.358 245.885,7.5 L245.885,38.225 C245.885,67.973 221.684,92.174 191.936,92.174 C162.188,92.174 137.987,67.972 137.987,38.225 L137.987,7.5 C137.987,3.358 134.63,0 130.487,0 L69.038,0 C64.895,0 61.538,3.358 61.538,7.5 L61.538,99.674 C61.538,129.422 37.336,153.623 7.588,153.623 C3.445,153.623 0.088,156.981 0.088,161.123 L0.088,215.89 C0.088,228.968 5.212,241.452 14.119,250.735 C5.212,260.019 0.088,272.503 0.088,285.58 L0.088,331.091 C0.088,344.168 5.212,356.652 14.118,365.935 C5.212,375.219 0.088,387.702 0.088,400.779 L0.088,468.371 C0.088,472.513 3.445,475.871 7.588,475.871 L376.285,475.871 C380.428,475.871 383.785,472.513 383.785,468.371 L383.785,400.779 C383.785,387.701 378.661,375.218 369.755,365.935 C378.661,356.651 383.785,344.168 383.785,331.091 L383.785,285.58 C383.785,272.502 378.661,260.019 369.755,250.735 C378.661,241.451 383.785,228.968 383.785,215.89 L383.785,161.124 L383.784,161.124 Z M231.436,270.269 C231.436,271.647 230.315,272.769 228.936,272.769 L154.936,272.769 C153.557,272.769 152.436,271.647 152.436,270.269 L152.436,231.202 C152.436,229.824 153.557,228.702 154.936,228.702 L228.936,228.702 C230.315,228.702 231.436,229.824 231.436,231.202 L231.436,270.269 Z M15.088,168.218 C49.592,164.469 76.537,135.159 76.537,99.674 L76.537,15 L122.986,15 L122.986,38.225 C122.986,73.709 149.933,103.008 184.435,106.759 L184.435,213.702 L154.935,213.702 C145.286,213.702 137.435,221.553 137.435,231.202 L137.435,243.235 L28.073,243.235 C19.904,236.566 15.087,226.508 15.087,215.89 L15.088,168.218 Z M15.087,285.581 C15.087,274.963 19.904,264.906 28.073,258.236 L137.436,258.236 L137.436,270.27 C137.436,279.919 145.287,287.77 154.936,287.77 L184.436,287.77 L184.436,328.903 L154.936,328.903 C145.287,328.903 137.436,336.754 137.436,346.403 L137.436,358.436 L28.073,358.436 C19.904,351.767 15.087,341.709 15.087,331.092 L15.087,285.581 Z M231.436,385.469 C231.436,386.847 230.315,387.969 228.936,387.969 L154.936,387.969 C153.557,387.969 152.436,386.847 152.436,385.469 L152.436,346.403 C152.436,345.025 153.557,343.903 154.936,343.903 L228.936,343.903 C230.315,343.903 231.436,345.025 231.436,346.403 L231.436,385.469 Z M15.087,400.779 C15.087,390.162 19.904,380.105 28.073,373.435 L137.436,373.435 L137.436,385.468 C137.436,395.117 145.287,402.968 154.936,402.968 L184.436,402.968 L184.436,460.87 L15.087,460.87 L15.087,400.779 Z M368.784,215.891 C368.784,227.275 363.25,238.019 353.981,244.63 C352.007,246.037 350.835,248.312 350.835,250.736 C350.835,253.16 352.007,255.434 353.98,256.842 C363.25,263.453 368.784,274.197 368.784,285.581 L368.784,331.092 C368.784,342.476 363.25,353.219 353.98,359.831 C352.006,361.238 350.835,363.513 350.835,365.937 C350.835,368.361 352.007,370.635 353.981,372.043 C363.25,378.652 368.784,389.396 368.784,400.78 L368.784,460.872 L199.436,460.872 L199.436,402.97 L228.936,402.97 C238.585,402.97 246.436,395.119 246.436,385.47 L246.436,373.437 L314.835,373.437 C318.978,373.437 322.335,370.079 322.335,365.937 C322.335,361.795 318.978,358.437 314.835,358.437 L246.436,358.437 L246.436,346.404 C246.436,336.755 238.585,328.904 228.936,328.904 L199.436,328.904 L199.436,287.771 L228.936,287.771 C238.585,287.771 246.436,279.92 246.436,270.271 L246.436,258.237 L314.835,258.237 C318.978,258.237 322.335,254.879 322.335,250.737 C322.335,246.595 318.978,243.237 314.835,243.237 L246.436,243.237 L246.436,231.204 C246.436,221.555 238.585,213.704 228.936,213.704 L199.436,213.704 L199.436,106.759 C233.939,103.008 260.885,73.709 260.885,38.225 L260.885,15 L307.335,15 L307.335,99.674 C307.335,135.159 334.28,164.469 368.784,168.218 L368.784,215.891 Z" id="Shape"/>
        </g>
    </g>
</svg>