<svg xmlns="http://www.w3.org/2000/svg" xmlns:xlink="http://www.w3.org/1999/xlink" version="1.1" id="Capa_1" x="0px" y="0px" viewBox="0 0 512 512" style="enable-background:new 0 0 512 512;" xml:space="preserve">
<g>
	<g>
		<path d="M320,0H64C34.603,0,10.667,23.936,10.667,53.333v405.333C10.667,488.064,34.603,512,64,512h256    c29.397,0,53.333-23.936,53.333-53.333V53.333C373.333,23.936,349.397,0,320,0z M352,458.667c0,17.643-14.357,32-32,32H64    c-17.643,0-32-14.357-32-32V53.333c0-17.643,14.357-32,32-32h256c17.643,0,32,14.357,32,32V458.667z"/>
	</g>
</g>
<g>
	<g>
		<path d="M426.667,0c-17.643,0-32,14.357-32,32v448c0,17.643,14.357,32,32,32s32-14.357,32-32V32    C458.667,14.357,444.309,0,426.667,0z M437.333,480c0,5.888-4.779,10.667-10.667,10.667S416,485.888,416,480V32    c0-5.888,4.779-10.667,10.667-10.667S437.333,26.112,437.333,32V480z"/>
	</g>
</g>
<g>
	<g>
		<path d="M490.667,85.333H448c-5.888,0-10.667,4.779-10.667,10.667s4.779,10.667,10.667,10.667h32v170.667h-32    c-5.888,0-10.667,4.779-10.667,10.667s4.779,10.667,10.667,10.667h42.667c5.888,0,10.667-4.779,10.667-10.667V96    C501.333,90.112,496.555,85.333,490.667,85.333z"/>
	</g>
</g>
<g>
	<g>
		<path d="M320,42.667H64c-5.888,0-10.667,4.779-10.667,10.667v405.333c0,5.888,4.779,10.667,10.667,10.667h256    c5.888,0,10.667-4.779,10.667-10.667V53.333C330.667,47.445,325.888,42.667,320,42.667z M309.333,448H74.667V64h234.667V448z"/>
	</g>
</g>
<g>
	<g>
		<path d="M190.869,283.243c-6.229-12.501-9.536-26.475-9.536-40.427V224c0-5.888-4.779-10.667-10.667-10.667H128    c-5.888,0-10.667,4.779-10.667,10.667v18.816c0,13.952-3.307,27.925-9.536,40.405C100.075,298.667,96,315.947,96,333.184V416    c0,5.888,4.779,10.667,10.667,10.667H192c5.888,0,10.667-4.779,10.667-10.667v-82.816    C202.667,315.947,198.592,298.667,190.869,283.243z M181.333,405.333h-64v-72.149c0-13.952,3.307-27.925,9.536-40.405    c7.723-15.445,11.797-32.725,11.797-49.963v-8.149H160v8.149c0,17.237,4.075,34.517,11.797,49.941    c6.229,12.501,9.536,26.475,9.536,40.427V405.333z"/>
	</g>
</g>
<g>
	<g>
		<path d="M276.203,283.243c-6.229-12.501-9.536-26.475-9.536-40.427V224c0-5.888-4.779-10.667-10.667-10.667h-42.667    c-5.888,0-10.667,4.779-10.667,10.667v18.816c0,13.952-3.307,27.925-9.536,40.405c-7.723,15.445-11.797,32.725-11.797,49.963V416    c0,5.888,4.779,10.667,10.667,10.667h85.333c5.888,0,10.667-4.779,10.667-10.667v-82.816    C288,315.947,283.925,298.667,276.203,283.243z M266.667,405.333h-64v-72.149c0-13.952,3.307-27.925,9.536-40.405    C219.925,277.333,224,260.053,224,242.816v-8.149h21.333v8.149c0,17.237,4.075,34.517,11.797,49.941    c6.229,12.501,9.536,26.475,9.536,40.427V405.333z"/>
	</g>
</g>
<g>
	<g>
		<path d="M320,170.667H64c-5.888,0-10.667,4.779-10.667,10.667S58.112,192,64,192h256c5.888,0,10.667-4.779,10.667-10.667    S325.888,170.667,320,170.667z"/>
	</g>
</g>
<g>
</g>
<g>
</g>
<g>
</g>
<g>
</g>
<g>
</g>
<g>
</g>
<g>
</g>
<g>
</g>
<g>
</g>
<g>
</g>
<g>
</g>
<g>
</g>
<g>
</g>
<g>
</g>
<g>
</g>
</svg>