<svg width="20" height="22" viewBox="0 0 20 22" fill="none" xmlns="http://www.w3.org/2000/svg">
<g clip-path="url(#clip0)">
<path fill-rule="evenodd" clip-rule="evenodd" d="M19.1889 17.303C19.0639 16.596 18.7449 15.9368 18.2667 15.3974C17.7885 14.858 17.1696 14.4593 16.4778 14.245L13.3111 13.222V12.771H12.5778V13.739L13.8222 14.135L12.1 17.182L10.9889 17.754C10.904 17.7448 10.8187 17.7411 10.7333 17.743H10.6222L12.5333 14.366L11.8889 14.025L10 17.358L8.11111 14.025L7.46667 14.366L9.37778 17.743H9.26667C9.18133 17.7411 9.09597 17.7448 9.01111 17.754L7.9 17.182L6.17778 14.135L7.42222 13.739V12.771H6.68889V13.222L3.52222 14.245C2.83064 14.4598 2.21199 14.8586 1.73386 15.3979C1.25574 15.9372 0.936527 16.5962 0.811111 17.303L0 22H20L19.1889 17.303ZM14.5333 14.366L16.2444 14.916L16.4111 14.982L13.2778 16.577L14.5333 14.366ZM9.63333 18.447H10.3667V19.162H9.63333V18.447ZM3.75556 14.916L5.46667 14.366L6.72222 16.577L3.58889 14.982L3.75556 14.916ZM6.68889 20.218V21.285H4.15556L4.47778 18.128L3.74444 18.062L3.41111 21.285H0.868889L1.53556 17.424C1.67996 16.6079 2.14295 15.8808 2.82444 15.4L8.02444 18.051C7.62297 18.2567 7.28618 18.5676 7.0507 18.9496C6.81523 19.3317 6.69008 19.7704 6.68889 20.218ZM7.42222 21.252V20.218C7.42875 19.8041 7.57935 19.4052 7.84859 19.0885C8.11783 18.7719 8.48921 18.5569 8.9 18.48V19.514C8.89536 19.9283 8.74543 20.3282 8.47587 20.6453C8.20631 20.9623 7.83386 21.1768 7.42222 21.252ZM8.85556 21.285C9.25492 20.9047 9.51986 20.4071 9.61111 19.866H10.3889C10.4754 20.4086 10.7411 20.9076 11.1444 21.285H8.85556ZM12.5778 21.252C12.1661 21.1768 11.7937 20.9623 11.5241 20.6453C11.2546 20.3282 11.1046 19.9283 11.1 19.514V18.48C11.5116 18.5552 11.8841 18.7696 12.1537 19.0867C12.4232 19.4037 12.5731 19.8036 12.5778 20.218V21.252ZM16.5889 21.285L16.2556 18.062L15.5222 18.128L15.8444 21.285H13.3111V20.218C13.3078 19.7711 13.182 19.3335 12.9472 18.9519C12.7124 18.5702 12.3773 18.2589 11.9778 18.051L17.1778 15.389C17.8563 15.8775 18.3181 16.6065 18.4667 17.424L19.1333 21.285H16.5889ZM3.74444 7.79896C3.75098 8.23967 3.92105 8.6626 4.22226 8.98717C4.52347 9.31173 4.93476 9.51526 5.37778 9.55896C5.56889 10.1903 5.92093 10.7623 6.4 11.22L7.83333 12.606C8.18371 12.9369 8.64908 13.122 9.13333 13.123H10.8667C11.3509 13.122 11.8163 12.9369 12.1667 12.606L13.6 11.22C14.0791 10.7623 14.4311 10.1903 14.6222 9.55896C15.0652 9.51526 15.4765 9.31173 15.7777 8.98717C16.0789 8.6626 16.249 8.23967 16.2556 7.79896C16.2541 7.5252 16.1868 7.25572 16.0593 7.01279C15.9318 6.76987 15.7477 6.56049 15.5222 6.40196L16.3333 2.48596H14.6556C14.1484 1.72209 13.4575 1.09498 12.6448 0.661026C11.8322 0.227071 10.9233 -0.00012207 10 -0.00012207C9.07667 -0.00012207 8.16782 0.227071 7.35518 0.661026C6.54254 1.09498 5.85158 1.72209 5.34444 2.48596H3.66667L4.47778 6.40196C4.25233 6.56049 4.06823 6.76987 3.94071 7.01279C3.8132 7.25572 3.74592 7.5252 3.74444 7.79896ZM14.0444 8.45896C14.0449 8.88152 13.9595 9.29985 13.7935 9.68911C13.6274 10.0784 13.384 10.4306 13.0778 10.725L11.6444 12.1C11.5425 12.2014 11.4213 12.2818 11.2878 12.3365C11.1543 12.3913 11.0112 12.4193 10.8667 12.419H9.13333C8.98883 12.4193 8.84569 12.3913 8.71219 12.3365C8.57869 12.2818 8.45747 12.2014 8.35556 12.1L6.92222 10.725C6.61597 10.4306 6.37259 10.0784 6.20653 9.68911C6.04047 9.29985 5.95513 8.88152 5.95556 8.45896V6.74296H14.0444V8.45896ZM14.7667 8.81096C14.7778 8.68996 14.7778 8.57996 14.7778 8.45896V6.80896C14.9915 6.8751 15.1786 7.00649 15.3123 7.18432C15.4461 7.36214 15.5195 7.57729 15.5222 7.79896C15.5194 8.02477 15.4449 8.24398 15.3093 8.42559C15.1737 8.6072 14.9839 8.74201 14.7667 8.81096ZM10 0.703962C10.7224 0.703966 11.4356 0.864008 12.0873 1.17236C12.7391 1.4807 13.3129 1.92954 13.7667 2.48596H6.23333C6.68711 1.92954 7.26091 1.4807 7.91267 1.17236C8.56444 0.864008 9.27764 0.703966 10 0.703962ZM15.4333 3.18996L14.8444 6.02796H5.15556L5 5.32396H14.0444V4.60896H4.85556L4.56667 3.18996H15.4333ZM5.22222 6.80896V8.45896C5.22222 8.57996 5.22222 8.68996 5.23333 8.81096C5.01612 8.74201 4.82629 8.6072 4.69071 8.42559C4.55512 8.24398 4.48063 8.02477 4.47778 7.79896C4.48048 7.57729 4.55394 7.36214 4.68766 7.18432C4.82138 7.00649 5.00849 6.8751 5.22222 6.80896Z" fill="black"/>
</g>
<defs>
<clipPath id="clip0">
<rect width="20" height="22" fill="white"/>
</clipPath>
</defs>
</svg>
