<svg width="32" height="32" viewBox="0 0 32 32" fill="none" xmlns="http://www.w3.org/2000/svg">
<path d="M27.3008 4.69925C24.2704 1.66888 20.2571 0 16 0C11.7429 0 7.72956 1.66888 4.69925 4.69925C1.66888 7.72956 0 11.7429 0 16C0 20.2571 1.66888 24.2704 4.69925 27.3008C7.72956 30.3311 11.7429 32 16 32C20.2571 32 24.2704 30.3311 27.3008 27.3008C30.3311 24.2704 32 20.2571 32 16C32 11.7429 30.3311 7.72956 27.3008 4.69925ZM16 30.125C8.21144 30.125 1.875 23.7886 1.875 16C1.875 8.21144 8.21144 1.875 16 1.875C23.7886 1.875 30.125 8.21144 30.125 16C30.125 23.7886 23.7886 30.125 16 30.125Z" fill="#B7934D"/>
<path d="M16 3.8125C9.27981 3.8125 3.8125 9.27981 3.8125 16C3.8125 22.7202 9.27981 28.1875 16 28.1875C22.7202 28.1875 28.1875 22.7202 28.1875 16C28.1875 9.27981 22.7202 3.8125 16 3.8125ZM16 26.3125C10.3137 26.3125 5.6875 21.6863 5.6875 16C5.6875 10.3137 10.3137 5.6875 16 5.6875C21.6863 5.6875 26.3125 10.3137 26.3125 16C26.3125 21.6863 21.6863 26.3125 16 26.3125Z" fill="#B7934D"/>
<path d="M18.8125 13.178C18.8125 13.6958 19.2323 14.1155 19.75 14.1155C20.2677 14.1155 20.6875 13.6958 20.6875 13.178C20.6875 12.1398 20.1505 11.1415 19.2141 10.4393C18.5746 9.9596 17.7876 9.63917 16.9375 9.50285V8.49048C16.9375 7.97273 16.5177 7.55298 16 7.55298C15.4823 7.55298 15.0625 7.97273 15.0625 8.49048V9.50285C14.2123 9.63917 13.4254 9.9596 12.7859 10.4393C11.8495 11.1415 11.3125 12.1398 11.3125 13.178C11.3125 14.2163 11.8495 15.2145 12.7859 15.9168C13.4254 16.3965 14.2124 16.7169 15.0625 16.8532V20.5663C13.9825 20.3024 13.1875 19.6015 13.1875 18.803C13.1875 18.2853 12.7678 17.8655 12.25 17.8655C11.7322 17.8655 11.3125 18.2853 11.3125 18.803C11.3125 19.8413 11.8495 20.8395 12.7859 21.5418C13.4254 22.0215 14.2124 22.3419 15.0625 22.4782V23.5C15.0625 24.0178 15.4823 24.4375 16 24.4375C16.5177 24.4375 16.9375 24.0178 16.9375 23.5V22.4782C17.7877 22.3419 18.5746 22.0215 19.2141 21.5418C20.1505 20.8395 20.6875 19.8413 20.6875 18.803C20.6875 17.7648 20.1505 16.7665 19.2141 16.0643C18.5746 15.5846 17.7876 15.2642 16.9375 15.1279V11.4148C18.0175 11.6788 18.8125 12.3796 18.8125 13.178ZM13.1875 13.178C13.1875 12.3796 13.9825 11.6787 15.0625 11.4148V14.9412C13.9825 14.6774 13.1875 13.9765 13.1875 13.178ZM18.8125 18.803C18.8125 19.6015 18.0175 20.3024 16.9375 20.5663V17.0399C18.0175 17.3038 18.8125 18.0046 18.8125 18.803Z" fill="#B7934D"/>
</svg>
