<svg width="304" height="54" viewBox="0 0 304 54" fill="none" xmlns="http://www.w3.org/2000/svg">
<path d="M0 0V54H304V0H0ZM276 40.49C275.51 40.49 275.02 40.62 274.59 40.88L262.37 48.18L265.53 34.28C265.75 33.28 265.42 32.25 264.65 31.58L253.94 22.19L268.11 20.9C269.13 20.8 270.01 20.16 270.4 19.23L276 6.12L281.6 19.23C282 20.17 282.87 20.81 283.89 20.9L298.07 22.19L287.35 31.58C286.59 32.25 286.25 33.29 286.48 34.28L289.64 48.19L277.42 40.88C276.98 40.62 276.5 40.49 276 40.49ZM214 40.49C213.51 40.49 213.02 40.62 212.59 40.88L200.37 48.18L203.53 34.28C203.75 33.28 203.42 32.25 202.65 31.58L191.94 22.19L206.11 20.9C207.13 20.8 208.01 20.16 208.4 19.23L214 6.12L219.6 19.23C220 20.17 220.87 20.81 221.89 20.9L236.07 22.19L225.35 31.58C224.59 32.25 224.25 33.29 224.48 34.28L227.64 48.19L215.42 40.88C214.98 40.62 214.5 40.49 214 40.49ZM152 40.49C151.51 40.49 151.02 40.62 150.59 40.88L138.37 48.18L141.53 34.28C141.75 33.28 141.42 32.25 140.65 31.58L129.94 22.19L144.11 20.9C145.13 20.8 146.01 20.16 146.4 19.23L152 6.12L157.6 19.23C158 20.17 158.87 20.81 159.89 20.9L174.07 22.19L163.35 31.58C162.59 32.25 162.25 33.29 162.48 34.28L165.64 48.19L153.42 40.88C152.98 40.62 152.5 40.49 152 40.49ZM90 40.49C89.51 40.49 89.02 40.62 88.59 40.88L76.37 48.18L79.52 34.28C79.75 33.28 79.42 32.25 78.65 31.58L67.94 22.19L82.11 20.9C83.13 20.8 84.01 20.16 84.4 19.23L90 6.12L95.6 19.23C96 20.17 96.87 20.81 97.89 20.9L112.07 22.19L101.35 31.58C100.59 32.25 100.25 33.29 100.48 34.28L103.64 48.19L91.42 40.88C90.98 40.62 90.5 40.49 90 40.49ZM28 40.49C27.51 40.49 27.02 40.62 26.59 40.88L14.37 48.18L17.52 34.28C17.75 33.28 17.42 32.25 16.65 31.58L5.94 22.19L20.11 20.9C21.13 20.8 22.01 20.16 22.4 19.23L28 6.12L33.6 19.23C34 20.17 34.87 20.81 35.89 20.9L50.07 22.19L39.35 31.58C38.59 32.25 38.25 33.29 38.48 34.28L41.64 48.19L29.42 40.88C28.98 40.62 28.5 40.49 28 40.49Z" fill="#BD9E62"/>
<path d="M53.8699 20.95C53.5299 19.9 52.5899 19.15 51.4899 19.05L36.4799 17.69L30.5399 3.8C30.1099 2.78 29.1099 2.12 27.9999 2.12C26.8999 2.12 25.8999 2.78 25.4599 3.8L19.5299 17.69L4.51991 19.05C3.40991 19.15 2.47991 19.9 2.13991 20.95C1.79991 22.01 2.11991 23.16 2.94991 23.89L14.2899 33.84L10.9499 48.57C10.6999 49.65 11.1199 50.77 12.0199 51.42C12.5099 51.77 13.0699 51.95 13.6399 51.95C14.1299 51.95 14.6199 51.82 15.0599 51.56L27.9999 43.82L40.9499 51.55C41.8899 52.12 43.0899 52.07 43.9899 51.42C44.8799 50.77 45.2999 49.65 45.0599 48.57L41.7099 33.83L53.0599 23.89C53.8899 23.16 54.2099 22 53.8699 20.95ZM39.3499 31.58C38.5899 32.25 38.2499 33.29 38.4799 34.28L41.6399 48.19L29.4199 40.88C28.9799 40.62 28.4999 40.49 27.9999 40.49C27.5099 40.49 27.0199 40.62 26.5899 40.88L14.3699 48.18L17.5199 34.28C17.7499 33.28 17.4199 32.25 16.6499 31.58L5.93991 22.19L20.1099 20.9C21.1299 20.8 22.0099 20.16 22.3999 19.23L27.9999 6.12L33.5999 19.23C33.9999 20.17 34.8699 20.81 35.8899 20.9L50.0699 22.19L39.3499 31.58Z" fill="#010202"/>
<path d="M115.87 20.95C115.53 19.9 114.59 19.15 113.49 19.05L98.4799 17.69L92.5399 3.8C92.1099 2.78 91.1099 2.12 89.9999 2.12C88.8999 2.12 87.8999 2.78 87.4599 3.8L81.5299 17.69L66.5199 19.05C65.4099 19.15 64.4799 19.9 64.1399 20.95C63.7999 22.01 64.1199 23.16 64.9499 23.89L76.2899 33.84L72.9499 48.57C72.6999 49.65 73.1199 50.77 74.0199 51.42C74.5099 51.77 75.0699 51.95 75.6399 51.95C76.1299 51.95 76.6199 51.82 77.0599 51.56L89.9999 43.82L102.95 51.55C103.89 52.12 105.09 52.07 105.99 51.42C106.88 50.77 107.3 49.65 107.06 48.57L103.71 33.83L115.06 23.89C115.89 23.16 116.21 22 115.87 20.95ZM101.35 31.58C100.59 32.25 100.25 33.29 100.48 34.28L103.64 48.19L91.4199 40.88C90.9799 40.62 90.4999 40.49 89.9999 40.49C89.5099 40.49 89.0199 40.62 88.5899 40.88L76.3699 48.18L79.5199 34.28C79.7499 33.28 79.4199 32.25 78.6499 31.58L67.9399 22.19L82.1099 20.9C83.1299 20.8 84.0099 20.16 84.3999 19.23L89.9999 6.12L95.5999 19.23C95.9999 20.17 96.8699 20.81 97.8899 20.9L112.07 22.19L101.35 31.58Z" fill="#010202"/>
<path d="M177.87 20.95C177.53 19.9 176.59 19.15 175.49 19.05L160.48 17.69L154.54 3.8C154.11 2.78 153.11 2.12 152 2.12C150.9 2.12 149.9 2.78 149.46 3.8L143.53 17.69L128.52 19.05C127.41 19.15 126.48 19.9 126.14 20.95C125.8 22.01 126.12 23.16 126.95 23.89L138.29 33.84L134.95 48.57C134.7 49.65 135.12 50.77 136.02 51.42C136.51 51.77 137.07 51.95 137.64 51.95C138.13 51.95 138.62 51.82 139.06 51.56L152 43.82L164.95 51.55C165.89 52.12 167.09 52.07 167.99 51.42C168.88 50.77 169.3 49.65 169.06 48.57L165.71 33.83L177.06 23.89C177.89 23.16 178.21 22 177.87 20.95ZM163.35 31.58C162.59 32.25 162.25 33.29 162.48 34.28L165.64 48.19L153.42 40.88C152.98 40.62 152.5 40.49 152 40.49C151.51 40.49 151.02 40.62 150.59 40.88L138.37 48.18L141.53 34.28C141.75 33.28 141.42 32.25 140.65 31.58L129.94 22.19L144.11 20.9C145.13 20.8 146.01 20.16 146.4 19.23L152 6.12L157.6 19.23C158 20.17 158.87 20.81 159.89 20.9L174.07 22.19L163.35 31.58Z" fill="#010202"/>
<path d="M239.87 20.95C239.53 19.9 238.59 19.15 237.49 19.05L222.48 17.69L216.54 3.8C216.11 2.78 215.11 2.12 214 2.12C212.9 2.12 211.9 2.78 211.46 3.8L205.53 17.69L190.52 19.05C189.41 19.15 188.48 19.9 188.14 20.95C187.8 22.01 188.12 23.16 188.95 23.89L200.29 33.84L196.95 48.57C196.7 49.65 197.12 50.77 198.02 51.42C198.51 51.77 199.07 51.95 199.64 51.95C200.13 51.95 200.62 51.82 201.06 51.56L214 43.82L226.95 51.55C227.89 52.12 229.09 52.07 229.99 51.42C230.88 50.77 231.3 49.65 231.06 48.57L227.71 33.83L239.06 23.89C239.89 23.16 240.21 22 239.87 20.95ZM225.35 31.58C224.59 32.25 224.25 33.29 224.48 34.28L227.64 48.19L215.42 40.88C214.98 40.62 214.5 40.49 214 40.49C213.51 40.49 213.02 40.62 212.59 40.88L200.37 48.18L203.53 34.28C203.75 33.28 203.42 32.25 202.65 31.58L191.94 22.19L206.11 20.9C207.13 20.8 208.01 20.16 208.4 19.23L214 6.12L219.6 19.23C220 20.17 220.87 20.81 221.89 20.9L236.07 22.19L225.35 31.58Z" fill="#010202"/>
<path d="M301.87 20.95C301.53 19.9 300.59 19.15 299.49 19.05L284.48 17.69L278.54 3.8C278.11 2.78 277.11 2.12 276 2.12C274.9 2.12 273.9 2.78 273.46 3.8L267.53 17.69L252.52 19.05C251.41 19.15 250.48 19.9 250.14 20.95C249.8 22.01 250.12 23.16 250.95 23.89L262.29 33.84L258.95 48.57C258.7 49.65 259.12 50.77 260.02 51.42C260.51 51.77 261.07 51.95 261.64 51.95C262.13 51.95 262.62 51.82 263.06 51.56L276 43.82L288.95 51.55C289.89 52.12 291.09 52.07 291.99 51.42C292.88 50.77 293.3 49.65 293.06 48.57L289.71 33.83L301.06 23.89C301.89 23.16 302.21 22 301.87 20.95ZM287.35 31.58C286.59 32.25 286.25 33.29 286.48 34.28L289.64 48.19L277.42 40.88C276.98 40.62 276.5 40.49 276 40.49C275.51 40.49 275.02 40.62 274.59 40.88L262.37 48.18L265.53 34.28C265.75 33.28 265.42 32.25 264.65 31.58L253.94 22.19L268.11 20.9C269.13 20.8 270.01 20.16 270.4 19.23L276 6.12L281.6 19.23C282 20.17 282.87 20.81 283.89 20.9L298.07 22.19L287.35 31.58Z" fill="#010202"/>
</svg>
