<svg width="350" height="285" viewBox="0 0 350 285" fill="none" xmlns="http://www.w3.org/2000/svg">
<path d="M277.742 285C248.387 285 226.183 272.937 211.129 248.81C198.333 228.452 191.935 203.571 191.935 174.167C191.935 136.468 201.344 102.54 220.161 72.381C239.731 42.2223 269.086 18.0953 308.226 0L318.387 20.3571C295.054 30.1587 274.731 45.6151 257.419 66.7262C240.86 87.8373 232.581 109.325 232.581 131.191C232.581 140.238 233.71 148.155 235.968 154.94C248.011 145.139 261.935 140.238 277.742 140.238C298.065 140.238 315 147.024 328.548 160.595C342.849 173.413 350 190.754 350 212.619C350 232.976 342.849 250.317 328.548 264.643C315 278.214 298.065 285 277.742 285ZM85.8065 285C56.4516 285 34.2473 272.937 19.1935 248.81C6.39785 228.452 0 203.571 0 174.167C0 136.468 9.4086 102.54 28.2258 72.381C47.7957 42.2223 77.1505 18.0953 116.29 0L126.452 20.3571C103.118 30.1587 82.7957 45.6151 65.4839 66.7262C48.9247 87.8373 40.6452 109.325 40.6452 131.191C40.6452 140.238 41.7742 148.155 44.0323 154.94C56.0753 145.139 70 140.238 85.8065 140.238C106.129 140.238 123.065 147.024 136.613 160.595C150.914 173.413 158.065 190.754 158.065 212.619C158.065 232.976 150.914 250.317 136.613 264.643C123.065 278.214 106.129 285 85.8065 285Z" fill="#B7934D"/>
</svg>
