<svg width="32" height="32" viewBox="0 0 32 32" fill="none" xmlns="http://www.w3.org/2000/svg">
<path d="M26.1653 7.41344C23.6723 4.91531 20.4247 3.44869 16.9375 3.22519V1.875H18.3125C18.8302 1.875 19.25 1.45525 19.25 0.9375C19.25 0.41975 18.8302 0 18.3125 0H13.6875C13.1697 0 12.75 0.41975 12.75 0.9375C12.75 1.45525 13.1697 1.875 13.6875 1.875H15.0625V3.22519C12.6714 3.37844 10.3932 4.11625 8.39356 5.37044L7.503 4.47806C7.06956 4.04375 6.493 3.80463 5.87944 3.80463C5.26587 3.80463 4.68931 4.04381 4.25594 4.47806L2.9015 5.83544C2.00994 6.72875 2.00994 8.18237 2.9015 9.07575L3.79812 9.97425C2.38294 12.2387 1.62506 14.8594 1.62506 17.5971C1.62506 21.4439 3.12006 25.0606 5.83469 27.7808C8.54981 30.5016 12.1599 32 16 32C19.8401 32 23.4502 30.5016 26.1653 27.7808C28.8799 25.0606 30.3749 21.4439 30.3749 17.5971C30.3749 13.7504 28.8799 10.1337 26.1653 7.41344ZM4.22869 7.15994L5.58319 5.80263C5.68994 5.69569 5.81462 5.67969 5.8795 5.67969C5.94437 5.67969 6.06912 5.69563 6.17587 5.80263L6.85525 6.48338C6.50294 6.77544 6.16219 7.08537 5.83475 7.4135C5.50825 7.74069 5.19981 8.08112 4.90912 8.43312L4.22869 7.75131C4.06594 7.58825 4.06594 7.32294 4.22869 7.15994ZM16 30.125C9.1075 30.125 3.50006 24.505 3.50006 17.5971C3.50006 10.6892 9.1075 5.06925 16 5.06925C22.8925 5.06925 28.4999 10.6892 28.4999 17.5971C28.4999 24.5051 22.8925 30.125 16 30.125Z" fill="#B7934D"/>
<path d="M16 6.82666C10.0724 6.82666 5.24994 11.6583 5.24994 17.5972C5.24994 23.536 10.0724 28.3677 16 28.3677C21.9276 28.3677 26.7501 23.536 26.7501 17.5972C26.7501 11.6583 21.9276 6.82666 16 6.82666ZM16.9375 26.443V25.3472C16.9375 24.8295 16.5178 24.4097 16 24.4097C15.4823 24.4097 15.0625 24.8295 15.0625 25.3472V26.443C10.9153 26.0046 7.61063 22.6917 7.17419 18.5347H8.25C8.76775 18.5347 9.1875 18.1149 9.1875 17.5972C9.1875 17.0794 8.76775 16.6597 8.25 16.6597H7.17425C7.61063 12.5026 10.9153 9.18972 15.0625 8.75129V9.8471C15.0625 10.3648 15.4823 10.7846 16 10.7846C16.5178 10.7846 16.9375 10.3648 16.9375 9.8471V8.75129C21.0848 9.18972 24.3894 12.5026 24.8258 16.6597H23.75C23.2323 16.6597 22.8125 17.0794 22.8125 17.5972C22.8125 18.1149 23.2323 18.5347 23.75 18.5347H24.8258C24.3894 22.6917 21.0848 26.0046 16.9375 26.443Z" fill="#B7934D"/>
<path d="M18.3125 17.0561H16.9899V13.2644C16.9899 12.7467 16.5701 12.3269 16.0524 12.3269C15.5346 12.3269 15.1149 12.7467 15.1149 13.2644V17.9936C15.1149 18.5114 15.5346 18.9311 16.0524 18.9311H18.3125C18.8303 18.9311 19.25 18.5114 19.25 17.9936C19.25 17.4759 18.8303 17.0561 18.3125 17.0561Z" fill="#B7934D"/>
</svg>
