<svg width="24" height="24" viewBox="0 0 24 24" fill="none" xmlns="http://www.w3.org/2000/svg">
<path fill-rule="evenodd" clip-rule="evenodd" d="M12.5 24H11.5C6.08 24 3.36 24 1.68 22.32C0 20.64 0 17.92 0 12.52V11.5C0 6.08 0 3.36 1.67 1.68C3.35 0 6.06 0 11.5 0H12.5C17.93 0 20.65 0 22.33 1.68C24 3.36 24 6.08 24 11.48V12.5C24 17.92 24 20.64 22.33 22.32C20.65 24 17.94 24 12.5 24ZM4.05005 7.30005C4.18005 13.54 7.30005 17.2901 12.77 17.2901H13.08V13.72C14.0449 13.8416 14.9524 14.2451 15.6889 14.8802C16.4253 15.5153 16.958 16.3536 17.22 17.2901H20.06C19.7681 16.2119 19.2508 15.2078 18.5424 14.3442C17.8339 13.4806 16.9504 12.7771 15.95 12.28C16.8462 11.7361 17.6205 11.013 18.2244 10.1561C18.8284 9.29923 19.249 8.32693 19.46 7.30005H16.88C16.32 9.28005 14.66 11.08 13.08 11.25V7.30005H10.5V14.22C8.90005 13.82 6.88005 11.88 6.79005 7.30005H4.05005Z" fill="white"/>
</svg>
