<svg width="27" height="14" viewBox="0 0 27 14" fill="none" xmlns="http://www.w3.org/2000/svg">
<g clip-path="url(#clip0)">
<path fill-rule="evenodd" clip-rule="evenodd" d="M17.5633 10.213C17.65 10.2107 17.7354 10.2338 17.8086 10.2793C17.8818 10.3248 17.9395 10.3907 17.9742 10.4685C18.009 10.5464 18.0193 10.6326 18.0038 10.7162C17.9883 10.7998 17.9477 10.877 17.8872 10.9379C17.8267 10.9987 17.7491 11.0405 17.6642 11.0579C17.5794 11.0752 17.4911 11.0674 17.4109 11.0353C17.3306 11.0032 17.2619 10.9484 17.2136 10.8779C17.1653 10.8073 17.1395 10.7242 17.1397 10.6392C17.1389 10.584 17.1493 10.5291 17.1702 10.4778C17.1911 10.4265 17.2221 10.3797 17.2615 10.3401C17.3008 10.3005 17.3477 10.2689 17.3995 10.2471C17.4513 10.2253 17.507 10.2137 17.5633 10.213ZM19.3707 10.213C19.4573 10.2107 19.5427 10.2338 19.6159 10.2793C19.6891 10.3248 19.7468 10.3907 19.7816 10.4685C19.8164 10.5464 19.8267 10.6326 19.8111 10.7162C19.7956 10.7998 19.7551 10.877 19.6946 10.9379C19.6341 10.9987 19.5564 11.0405 19.4716 11.0579C19.3867 11.0752 19.2985 11.0674 19.2182 11.0353C19.138 11.0032 19.0693 10.9484 19.021 10.8779C18.9726 10.8073 18.9469 10.7242 18.947 10.6392C18.9463 10.584 18.9567 10.5291 18.9776 10.4778C18.9985 10.4265 19.0295 10.3797 19.0688 10.3401C19.1081 10.3005 19.1551 10.2689 19.2069 10.2471C19.2587 10.2253 19.3143 10.2137 19.3707 10.213ZM21.5525 10.4316C21.5177 10.3584 21.4588 10.2989 21.3851 10.2628C21.3022 10.2202 21.2075 10.2051 21.1151 10.2195C21.0227 10.2339 20.9375 10.2772 20.8721 10.3429C20.8068 10.4086 20.7648 10.4932 20.7525 10.5842C20.7401 10.6751 20.7581 10.7675 20.8036 10.8477C20.8383 10.9211 20.8973 10.9808 20.971 11.0172C21.0541 11.0596 21.1489 11.0746 21.2413 11.0599C21.3338 11.0453 21.4189 11.0019 21.4842 10.936C21.5495 10.8702 21.5914 10.7855 21.6037 10.6945C21.616 10.6035 21.5981 10.511 21.5525 10.4308V10.4316ZM26.8016 8.6948C26.7465 8.6609 26.6826 8.64334 26.6176 8.64424H24.0398L22.0912 6.92691L22.0809 6.92224L18.5305 3.79402C18.498 3.74399 18.4522 3.70364 18.398 3.67736L16.9017 2.35902C16.8426 2.30614 16.7658 2.27626 16.6859 2.27502H13.1949L10.595 0.0972448C10.5229 0.0348966 10.4301 0.000347263 10.3339 2.25767e-05H6.70178C6.63689 -0.00072517 6.57319 0.0171159 6.5185 0.0513559C6.4685 0.0819268 6.42558 0.122425 6.3925 0.170243C6.35943 0.218061 6.33694 0.272138 6.32647 0.328993C6.31601 0.385849 6.31781 0.444223 6.33175 0.500356C6.34569 0.556489 6.37147 0.609136 6.40743 0.654911L7.69431 2.27502H5.65767C5.58284 2.27737 5.51003 2.29937 5.44684 2.33872C5.38364 2.37807 5.33239 2.43333 5.29842 2.49874C5.26445 2.56414 5.24902 2.63728 5.25374 2.71053C5.25846 2.78378 5.28315 2.85444 5.32524 2.91513C5.35574 2.96582 5.39926 3.0078 5.45146 3.03686C5.50367 3.06593 5.56273 3.08108 5.62276 3.0808H16.5089L17.1436 3.63925H14.9507C14.8774 3.63829 14.8057 3.66097 14.7468 3.7038C14.6958 3.73986 14.6537 3.78657 14.6234 3.84057C14.5932 3.89456 14.5755 3.95448 14.5718 4.01598C14.5681 4.07748 14.5784 4.13902 14.6019 4.19614C14.6255 4.25326 14.6617 4.30454 14.7079 4.34624L18.3329 7.53125C18.4053 7.59497 18.4991 7.6304 18.5963 7.6308H21.6731L22.8236 8.64191H9.83093V8.08891H10.3339C10.4089 8.08666 10.4818 8.06468 10.5452 8.02529C10.6085 7.98589 10.6598 7.93053 10.6938 7.865C10.7278 7.79947 10.7432 7.72619 10.7384 7.65283C10.7335 7.57947 10.7087 7.50873 10.6664 7.44802C10.6359 7.39733 10.5923 7.35536 10.5401 7.32629C10.4879 7.29723 10.4289 7.28208 10.3688 7.28236H5.31255V6.72002H6.78667C6.87618 6.71879 6.96153 6.68281 7.024 6.61996C7.08647 6.55712 7.12096 6.47254 7.1199 6.3848V5.40791C7.12116 5.32163 7.09407 5.23723 7.04263 5.1672C6.9912 5.09717 6.91815 5.04522 6.83428 5.01902L4.93013 4.44347H7.60149L11.1226 7.54447C11.1828 7.59796 11.2611 7.62762 11.3423 7.62769H16.2098C16.2722 7.62616 16.3335 7.61082 16.389 7.5828C16.4446 7.55478 16.4929 7.51482 16.5305 7.46589C16.568 7.41697 16.5938 7.36035 16.6059 7.30028C16.6179 7.24022 16.616 7.17825 16.6002 7.11902C16.584 7.04759 16.5451 6.98305 16.4891 6.93469L12.9188 3.79013C12.8878 3.74245 12.8449 3.7032 12.7943 3.67601C12.7437 3.64882 12.6869 3.63457 12.6292 3.63458H2.60072V3.0808H4.0082C4.08316 3.07855 4.15612 3.05657 4.21943 3.01718C4.28275 2.97778 4.33409 2.92242 4.36808 2.85689C4.40207 2.79136 4.41745 2.71808 4.41263 2.64472C4.4078 2.57135 4.38293 2.50062 4.34064 2.43991C4.3102 2.38917 4.26669 2.34715 4.21447 2.31808C4.16226 2.289 4.10316 2.27389 4.04311 2.27424H2.13341C2.08903 2.27485 2.0452 2.28403 2.00443 2.30124C1.96366 2.31846 1.92675 2.34338 1.89581 2.37458C1.86486 2.40578 1.84049 2.44265 1.82408 2.48309C1.80768 2.52352 1.79956 2.56673 1.80019 2.61025V4.04913C1.80019 4.04913 1.80019 4.0538 1.80019 4.05613C1.80405 4.13379 1.8272 4.20935 1.86763 4.27624C1.89566 4.32304 1.93485 4.36249 1.98182 4.3912C2.0288 4.41992 2.08218 4.43705 2.13738 4.44113L6.31777 5.70347V5.91113H4.84444C4.80006 5.91174 4.75623 5.92092 4.71546 5.93813C4.67469 5.95535 4.63778 5.98027 4.60683 6.01147C4.57589 6.04267 4.55152 6.07954 4.53511 6.11998C4.51871 6.16041 4.51059 6.20362 4.51122 6.24713V7.27613H3.10453C3.02957 7.27839 2.95662 7.30036 2.8933 7.33976C2.82999 7.37915 2.77865 7.43451 2.74466 7.50004C2.71066 7.56557 2.69528 7.63886 2.70011 7.71222C2.70493 7.78558 2.7298 7.85632 2.7721 7.91702C2.80254 7.96777 2.84604 8.00978 2.89826 8.03885C2.95048 8.06793 3.00957 8.08305 3.06962 8.08269H3.60754V8.64113H2.81415C2.55079 8.64213 2.29397 8.72159 2.07774 8.86897C1.86151 9.01635 1.69609 9.22469 1.60343 9.46636L0.0245715 13.447C-0.015067 13.5461 -0.0139862 13.6564 0.0275867 13.7548C0.0691597 13.8531 0.147989 13.9318 0.247515 13.9744C0.290126 13.9921 0.336091 14.0009 0.382393 14H22.9711C23.0314 13.9997 23.0908 13.986 23.1448 13.9599C23.1988 13.9337 23.2461 13.8958 23.2829 13.8491L26.9119 9.29991C26.9481 9.2541 26.974 9.20138 26.9881 9.14514C27.0022 9.08889 27.0041 9.03038 26.9937 8.97337C26.9833 8.91636 26.9608 8.86212 26.9278 8.81414C26.8947 8.76616 26.8517 8.72551 26.8016 8.6948ZM8.71938 2.27502L7.5523 0.8058H8.33459L9.50167 2.27502H8.71938ZM10.5267 2.27502L9.35965 0.8058H10.1887L11.939 2.27502H10.5267ZM18.7487 6.82424L16.0416 4.4458H18.0584L20.756 6.82424H18.7487ZM12.4452 4.4458L15.1427 6.82424H11.5177L8.82014 4.4458H12.4452ZM8.02595 8.0858H9.0296V8.64424H8.02357V8.08891L8.02595 8.0858ZM6.2186 8.0858H7.22542V8.64424H6.21305V8.08891L6.2186 8.0858ZM4.41125 8.0858H5.41807V8.64424H4.40887V8.08891L4.41125 8.0858ZM22.7791 13.1935H0.984579L1.56852 11.7235H1.60105H9.26444L10.0705 12.5347C10.1014 12.566 10.1383 12.591 10.1792 12.6079C10.2201 12.6249 10.2641 12.6336 10.3085 12.6335H23.225L22.7791 13.1935ZM23.8677 11.8285H10.4974L9.69129 11.0165C9.66042 10.9852 9.62342 10.9604 9.58251 10.9436C9.5416 10.9267 9.49764 10.9182 9.45327 10.9185H1.88825L2.34525 9.76813C2.38087 9.67473 2.44468 9.59419 2.52816 9.53722C2.61164 9.48025 2.71084 9.44956 2.81256 9.44924H25.7655L23.8677 11.8285Z" fill="black"/>
</g>
<defs>
<clipPath id="clip0">
<rect width="27" height="14" fill="white"/>
</clipPath>
</defs>
</svg>
