<svg width="37" height="37" fill="none" xmlns="http://www.w3.org/2000/svg"><path d="M.879 15.034l3.465 18.744A3.905 3.905 0 008.152 37h20.696a3.905 3.905 0 003.808-3.222l3.465-18.744H.88zm11.275 8.396a.976.976 0 11-1.952 0v-2.929a.976.976 0 111.952 0v2.93zm14.644 0a.976.976 0 01-1.952 0v-2.929a.976.976 0 111.952 0v2.93z" fill="url(#paint0_linear)"/><path d="M12.154 8.298a6.346 6.346 0 0112.692 0v5.76h1.952v-5.76a8.298 8.298 0 10-16.596 0v5.76h1.952v-5.76z" fill="url(#paint1_linear)"/><defs><linearGradient id="paint0_linear" x1="18.5" y1="0" x2="19" y2="29" gradientUnits="userSpaceOnUse"><stop stop-color="#A3A3A3"/><stop offset="1" stop-color="#4D4C4C"/></linearGradient><linearGradient id="paint1_linear" x1="18.5" y1="0" x2="19" y2="29" gradientUnits="userSpaceOnUse"><stop stop-color="#A3A3A3"/><stop offset="1" stop-color="#4D4C4C"/></linearGradient></defs></svg>