<svg width="94" height="94" fill="none" xmlns="http://www.w3.org/2000/svg"><rect width="94" height="94" rx="47" fill="#B7934D"/><path d="M70.282 49.618c-2.117 0-3.188.415-4.224.816-.885.342-1.725.666-3.311.713 2.496-1.007 4.468-2.27 5.881-3.77 1.634-1.736 2.165-3.406 2.322-4.5a1.484 1.484 0 00-1.47-1.698H55.169l-4.583-3.273a3.003 3.003 0 00-1.755-.563h-6.167c-.819 0-1.485.666-1.485 1.485v2.351h-.948a.81.81 0 01-.577-.239l-.536-.535a2.26 2.26 0 00-1.934-.634l-8.031 1.236a6.126 6.126 0 00-2.451.952l-2.223 1.481a2.26 2.26 0 00-.976 1.528 2.263 2.263 0 00.467 1.753l2.97 3.713h-.001c-1.036-.401-2.106-.816-4.221-.816a.718.718 0 100 1.435c1.846 0 2.748.35 3.702.72 1.036.4 2.106.815 4.221.815 2.116 0 3.186-.415 4.222-.816.955-.37 1.856-.718 3.703-.718 1.848 0 2.75.349 3.705.718 1.036.401 2.108.816 4.224.816 2.115 0 3.186-.415 4.222-.816.954-.37 1.856-.718 3.703-.718 1.849 0 2.751.349 3.707.718 1.036.401 2.107.816 4.224.816s3.189-.415 4.225-.816c.955-.37 1.858-.718 3.706-.718a.718.718 0 100-1.436zm-24.599-10.84h3.148c.332 0 .65.103.92.296l2.948 2.105h-7.016v-2.4zm-3.068.05a.05.05 0 01.049-.05h1.584v2.401h-1.633v-2.35zm16.874 11.914c-.293-.095-.567-.201-.844-.308-1.037-.401-2.108-.816-4.225-.816-2.116 0-3.186.415-4.222.816-.955.37-1.856.718-3.704.718s-2.75-.349-3.705-.718c-1.035-.401-2.107-.816-4.223-.816-2.115 0-3.186.415-4.221.816-.955.37-1.857.718-3.704.718-.515 0-.957-.027-1.347-.074l-4.203-5.254a.833.833 0 01-.091-.14h3.088a.718.718 0 100-1.436h-2.233l1.643-1.095a4.686 4.686 0 011.873-.727l8.03-1.236a.82.82 0 01.702.23l.535.535c.426.425.991.66 1.593.66H69.48c.006 0 .024 0 .038.017.015.016.012.033.011.04-.057.4-.188.946-.476 1.576H31.157a.718.718 0 000 1.435h37.027c-1.306 1.711-3.83 3.664-8.695 5.06zm7.627 3.121a.718.718 0 00-.928-.411l-.13.05c-.433.168-.84.325-1.327.452a.718.718 0 00.361 1.39 12.97 12.97 0 001.483-.503l.13-.05a.718.718 0 00.411-.928zm-5.246.35c-1.532-.056-2.355-.374-3.225-.71-1.037-.402-2.108-.816-4.225-.816-2.116 0-3.186.414-4.222.815-.955.37-1.856.719-3.703.719-1.849 0-2.75-.35-3.706-.719-1.035-.4-2.107-.815-4.223-.815-2.115 0-3.186.414-4.221.815-.87.337-1.69.654-3.215.71a.718.718 0 00.053 1.435c1.766-.065 2.739-.442 3.68-.806.955-.37 1.856-.719 3.703-.719 1.848 0 2.75.35 3.706.719 1.035.401 2.107.816 4.223.816 2.115 0 3.186-.415 4.222-.816.954-.37 1.856-.719 3.703-.719 1.849 0 2.751.35 3.707.72.943.364 1.918.741 3.69.805a.718.718 0 00.052-1.435zm-33.6-.258c-.49-.126-.899-.285-1.332-.453a.718.718 0 10-.519 1.339c.453.175.92.356 1.49.504a.717.717 0 10.36-1.39z" fill="#fff"/></svg>