<svg width="94" height="94" fill="none" xmlns="http://www.w3.org/2000/svg"><rect width="94" height="94" rx="47" fill="#B7934D"/><path d="M56.3 42.866a10.706 10.706 0 00-4.594-3.013 16.934 16.934 0 00-.529-1.183c2.575-3.576 7.256-3.498 7.303-3.497a.688.688 0 00.328-1.304c-.068-.034-1.68-.831-3.922-1.162a12.413 12.413 0 00-2.404-.126c1.568-2.51 3.884-3.187 3.991-3.217a.689.689 0 00-.08-1.345c-.08-.012-1.997-.284-4.283.272-.593.144-1.155.33-1.686.558-.963-3.644-2.352-5.496-2.414-5.578a.688.688 0 00-1.095 0c-.062.081-1.449 1.932-2.412 5.571-2.91-1.246-5.802-.848-5.971-.823a.689.689 0 00-.09 1.343c.027.007 2.394.715 3.997 3.213-3.363-.158-6.17 1.218-6.322 1.294a.688.688 0 00.378 1.3c.013 0 1.36-.127 2.937.43 1.943.686 3.377 2.065 4.27 4.102-1.995.58-3.716 1.646-5.078 3.165C36.22 45.547 35 49.493 35 54.594s1.22 9.047 3.624 11.73C40.782 68.727 43.838 70 47.462 70c3.625 0 6.681-1.272 8.838-3.677 2.405-2.681 3.625-6.628 3.625-11.729 0-5.1-1.22-9.047-3.625-11.728zm-.3 2.7l.41-.247c.927 1.522 1.556 3.377 1.88 5.55L56 49.495v-3.93zm-3.925-4.092a9.269 9.269 0 013.542 2.715l-.306.184-3.236-1.942v-.957zm2.57-7.41c.294.042.578.094.847.151-1.601.439-3.54 1.333-5.045 3.149a11.302 11.302 0 00-1.848-2.256c1.698-1.027 3.727-1.38 6.046-1.045zM44.226 42.43v-1.445a12.11 12.11 0 013.236-.42c1.15 0 2.233.142 3.236.42v1.445l-3.236 1.942-3.236-1.942zm6.474 10.2v3.93l-3.238 1.94-3.236-1.942v-3.93l3.236-1.941 3.236 1.942zm1.692-22.99c.384-.095.758-.164 1.112-.212a9.316 9.316 0 00-2.707 3.367 9.32 9.32 0 00-3.333 1.406 9.2 9.2 0 00-.468-.298c1.077-2.209 2.89-3.642 5.396-4.263zm-4.927-4.646c.476.866 1.17 2.368 1.705 4.505a8.928 8.928 0 00-1.704 1.36 8.912 8.912 0 00-1.707-1.367c.533-2.123 1.229-3.629 1.706-4.498zm-6.072 4.431c1.603.217 3.627.843 5.184 2.497a9.757 9.757 0 00-.814 1.368c-.055-.023-.11-.046-.166-.067a9.594 9.594 0 00-1.457-.43 9.503 9.503 0 00-2.747-3.368zm-1.563 4.854a8.821 8.821 0 00-.273-.089c1.569-.319 3.593-.434 5.545.318 2.073.798 3.72 2.446 4.907 4.906a14.057 14.057 0 00-2.546-.225c-.83 0-1.63.067-2.398.2-1.306-3.175-3.556-4.531-5.235-5.11zm6.945 11.286v3.93l-3.236 1.942-3.236-1.942v-3.93l3.236-1.941 3.236 1.941zm-7.124-1.78a9.269 9.269 0 013.2-2.311v.957l-3.237 1.942-.306-.184c.112-.138.225-.273.343-.404zm-1.135 1.534l.41.246v3.93l-2.29 1.374c.324-2.173.952-4.028 1.88-5.55zm.41 18.304l-.41.247c-.928-1.523-1.556-3.377-1.88-5.55l2.29 1.374v3.93zm3.925 4.092A9.271 9.271 0 0139.306 65l.306-.184 3.236 1.942v.957zm-2.548-4.092v-3.93l1.022-.612a.688.688 0 10-.709-1.181l-1.002.601-3.165-1.9a27.756 27.756 0 01-.07-2.007c0-.693.023-1.362.07-2.007l3.165-1.9 3.236 1.943v4.32c.001.233.12.46.335.59l3.59 2.154v3.93l-3.236 1.941-3.236-1.941zm10.397 4.58c-1.004.278-2.087.42-3.237.42s-2.232-.142-3.236-.42v-1.445l3.236-1.942 3.237 1.942v1.445zm-2.548-4.58v-3.93l3.236-1.94 3.236 1.94v3.93l-3.236 1.942-3.236-1.941zm7.124 1.78a9.27 9.27 0 01-3.2 2.312v-.957l3.236-1.942.306.184a9.961 9.961 0 01-.342.404zm1.135-1.533l-.41-.246v-3.93l2.29-1.374c-.325 2.173-.953 4.027-1.88 5.55zm-1.1-5.37l-3.236-1.941v-3.93l1.355-.813a.688.688 0 10-.708-1.181l-1.335.8-3.236-1.94v-3.93l3.236-1.942 3.236 1.941v4.32c0 .25.134.47.335.59l3.519 2.112c.046.645.07 1.314.07 2.007 0 .694-.024 1.362-.07 2.008l-3.166 1.9z" fill="#fff"/></svg>