<svg width="94" height="94" fill="none" xmlns="http://www.w3.org/2000/svg"><rect width="94" height="94" rx="47" fill="#B7934D"/><path d="M61.076 22H48.801c-.818 0-1.485.666-1.485 1.485v.817h-4.652c-.819 0-1.485.666-1.485 1.484v8.489h-9.255c-.82 0-1.485.666-1.485 1.485v33.755c0 .819.666 1.485 1.485 1.485h24.55c.818 0 1.484-.666 1.484-1.485V52.588h3.118c.819 0 1.485-.666 1.485-1.485V23.485c0-.819-.666-1.485-1.485-1.485zm0 29.153h-3.118v-.817a.718.718 0 00-1.435 0v19.18a.05.05 0 01-.05.048h-24.55a.05.05 0 01-.049-.049V35.76a.05.05 0 01.05-.05h24.55a.05.05 0 01.049.05v11.507a.718.718 0 101.435 0V35.76c0-.82-.666-1.485-1.485-1.485h-7.721v-4.653a.718.718 0 10-1.436 0v4.653h-4.701v-8.489a.05.05 0 01.05-.049h4.651v.817a.718.718 0 001.436 0v-3.07a.05.05 0 01.05-.049h12.274a.05.05 0 01.05.05v27.618a.05.05 0 01-.05.05z" fill="#fff"/><path d="M58.515 26.046a.718.718 0 00-1.015 0l-.973.974-3.812-.413a.718.718 0 10-.155 1.427l2.664.289-2.117 2.116h-.47a.718.718 0 000 1.435h.768c.19 0 .373-.075.507-.21l2.327-2.326.288 2.663a.718.718 0 101.427-.154l-.412-3.812.973-.974a.718.718 0 000-1.015zM44.199 41.18c-4.626 0-8.39 3.763-8.39 8.389 0 4.625 3.764 8.39 8.39 8.39 4.626 0 8.389-3.765 8.389-8.39 0-4.626-3.764-8.39-8.39-8.39zm-5.3 3.893c.264.256.545.49.84.704-.274.933-.448 1.97-.502 3.074h-1.955a6.923 6.923 0 011.617-3.778zm0 8.99a6.923 6.923 0 01-1.617-3.777h1.955c.053 1.105.228 2.142.503 3.075a7.615 7.615 0 00-.84.703zm1.787-10.492c-.15.25-.291.517-.421.798a6.268 6.268 0 01-.327-.29c.237-.185.487-.355.748-.508zm.337 2.954a7.615 7.615 0 002.458.658v1.668h-2.808c.044-.816.163-1.6.35-2.326zm-1.085 8.534c.106-.1.215-.198.327-.291.13.281.27.548.42.798a6.953 6.953 0 01-.747-.507zm3.543 1.308c-.608-.261-1.184-.85-1.669-1.722a7.453 7.453 0 01-.323-.662 6.191 6.191 0 011.992-.585v2.97zm0-4.413a7.626 7.626 0 00-2.458.66 11.937 11.937 0 01-.35-2.328h2.808v1.668zm0-6.215a6.177 6.177 0 01-1.992-.584c.1-.23.207-.453.323-.663.485-.872 1.06-1.46 1.669-1.722v2.97zm6.017-.666a6.923 6.923 0 011.617 3.778H49.16a13.18 13.18 0 00-.502-3.074c.295-.213.576-.448.84-.704zm-1.038-.994a5.964 5.964 0 01-.328.29 8.363 8.363 0 00-.42-.798c.26.153.51.323.748.508zm-3.544-1.309c.608.261 1.184.85 1.669 1.722.116.21.224.432.323.663a6.176 6.176 0 01-1.992.584V42.77zm0 4.413a7.612 7.612 0 002.458-.658c.187.727.306 1.51.35 2.326h-2.808v-1.668zm1.669 7.462c-.485.872-1.06 1.46-1.669 1.722v-2.97c.697.082 1.37.281 1.993.585-.1.23-.208.453-.324.663zm-1.669-2.691v-1.668h2.808c-.044.816-.163 1.6-.35 2.326a7.609 7.609 0 00-2.458-.658zm2.795 3.612c.15-.25.29-.517.42-.798a6.1 6.1 0 01.329.29 6.986 6.986 0 01-.749.508zm1.787-1.502a7.618 7.618 0 00-.84-.704c.274-.933.448-1.97.502-3.074h1.955a6.923 6.923 0 01-1.617 3.778zm-.697 7.829h-9.206a.718.718 0 000 1.435h9.206a.718.718 0 100-1.435z" fill="#fff"/></svg>