<svg width="94" height="94" fill="none" xmlns="http://www.w3.org/2000/svg"><rect width="94" height="94" rx="47" fill="#B7934D"/><path d="M56.774 28.84a9.656 9.656 0 00-3.559.672l-.267-.834v-1.553a2.21 2.21 0 00-1.976-2.2L33.08 23.01a1.45 1.45 0 00-1.446.77 1.45 1.45 0 00.184 1.628l3.034 3.54-3.625 11.332a36.715 36.715 0 00-1.574 14.93l1.312 13.119A2.958 2.958 0 0033.917 71H53.97a2.96 2.96 0 002.953-2.672l1.311-13.12c.082-.82.137-1.639.164-2.457a9.772 9.772 0 008.135-9.624V38.6c0-5.381-4.378-9.76-9.76-9.76zm-20.619.651h10.807a.703.703 0 100-1.406H35.965l-3.08-3.593c-.011-.014-.023-.027-.006-.058.012-.024.025-.028.038-.028h.013l17.892 1.918c.41.044.72.388.72.801v.96h-1.56a.703.703 0 000 1.406h1.75l1.983 6.195c-.545.08-.91.237-1.245.38-.418.179-.749.32-1.486.32s-1.067-.141-1.486-.32c-.475-.204-1.013-.434-2.039-.434-1.025 0-1.563.23-2.038.434-.418.179-.748.32-1.484.32s-1.066-.141-1.483-.32c-.475-.204-1.013-.434-2.037-.434s-1.562.23-2.037.434c-.417.179-.747.32-1.482.32-.736 0-1.066-.141-1.483-.32-.334-.143-.7-.3-1.242-.38l1.982-6.195zm20.68 25.578l-1.312 13.12a1.556 1.556 0 01-1.553 1.405H33.917a1.556 1.556 0 01-1.553-1.406l-1.312-13.12a35.3 35.3 0 011.514-14.36l1.17-3.657c.498.04.782.16 1.125.308.474.203 1.012.434 2.037.434 1.024 0 1.562-.23 2.036-.434.418-.18.748-.32 1.483-.32.735 0 1.065.14 1.483.32.474.203 1.012.434 2.037.434s1.563-.23 2.038-.434c.418-.18.748-.32 1.484-.32.737 0 1.068.14 1.486.32.475.203 1.014.434 2.04.434 1.025 0 1.563-.23 2.038-.434.344-.148.629-.269 1.128-.308l1.17 3.657a35.3 35.3 0 011.514 14.36zm-.174-14.79l-2.092-6.536a5.331 5.331 0 012.205-.478 5.34 5.34 0 015.334 5.334v4.528a5.33 5.33 0 01-3.833 5.12 36.83 36.83 0 00-1.614-7.968zm8.466 2.848c0 4-2.843 7.416-6.708 8.189a36.765 36.765 0 00-.045-1.641 6.734 6.734 0 005.14-6.548V38.6a6.748 6.748 0 00-6.74-6.74c-.907 0-1.806.184-2.636.537l-.493-1.542a8.26 8.26 0 013.129-.608c4.606 0 8.353 3.747 8.353 8.353v4.528z" fill="#fff"/><path d="M40.17 52.99a5.237 5.237 0 00-5.231 5.232 5.237 5.237 0 005.231 5.231 5.237 5.237 0 005.231-5.231 5.237 5.237 0 00-5.23-5.232zm0 9.057a3.83 3.83 0 01-3.825-3.825 3.83 3.83 0 013.825-3.826 3.83 3.83 0 013.825 3.825 3.83 3.83 0 01-3.825 3.826z" fill="#fff"/><path d="M41.68 57.518h-.807v-.806a.703.703 0 00-1.406 0v.806h-.806a.703.703 0 100 1.407h.806v.806a.703.703 0 001.406 0v-.806h.806a.703.703 0 000-1.407zm6.037-15.848a5.237 5.237 0 00-5.231 5.23 5.237 5.237 0 005.231 5.232 5.237 5.237 0 005.231-5.231 5.237 5.237 0 00-5.231-5.231zm0 9.056a3.83 3.83 0 01-3.825-3.825 3.83 3.83 0 013.825-3.825 3.83 3.83 0 013.825 3.825 3.83 3.83 0 01-3.825 3.825z" fill="#fff"/><path d="M48.711 46.9l.57-.57a.703.703 0 10-.994-.994l-.57.57-.57-.57a.703.703 0 00-.994.995l.57.57-.57.57a.703.703 0 10.994.994l.57-.57.57.57a.7.7 0 00.994 0 .703.703 0 000-.994l-.57-.57zm3.932 9.412c-.457-.24-1.24-.298-2.375.793-.703.676-1.42 1.674-2.016 2.81-.596 1.136-1.011 2.291-1.168 3.254-.254 1.553.238 2.166.695 2.406.157.082.353.143.589.143.449 0 1.042-.221 1.787-.937.703-.675 1.418-1.673 2.015-2.81.597-1.135 1.012-2.29 1.169-3.253.253-1.554-.238-2.166-.696-2.406zm-1.718 5.006c-1.029 1.96-2.088 2.849-2.474 2.977-.114-.391.017-1.767 1.046-3.727 1.03-1.959 2.088-2.848 2.474-2.976.114.39-.017 1.767-1.046 3.726zM39.637 46.052c-.433-.904-1.006-1.686-1.614-2.202-1.023-.87-1.787-.707-2.152-.532-.364.175-.97.668-.93 2.01.022.798.273 1.734.707 2.638.433.904 1.006 1.685 1.614 2.202.611.52 1.13.671 1.527.671.267 0 .478-.069.625-.139.364-.175.97-.668.93-2.011-.022-.797-.273-1.734-.707-2.637zm-.83 3.38c-.19.051-1.123-.472-1.892-2.074-.768-1.602-.594-2.657-.437-2.771a.111.111 0 01.03-.004c.243 0 1.127.547 1.861 2.077.769 1.602.594 2.657.438 2.771z" fill="#fff"/></svg>