<svg width="94" height="94" fill="none" xmlns="http://www.w3.org/2000/svg"><rect width="94" height="94" rx="47" fill="#B7934D"/><path d="M70.168 44.754c-.375-5.165-2.38-9.96-5.809-13.876a.718.718 0 00-1.08.945c3.085 3.525 4.944 7.806 5.405 12.425h-1.643a20.652 20.652 0 00-5.93-12.36 20.652 20.652 0 00-12.359-5.93v-1.642c4.619.46 8.9 2.32 12.424 5.405a.715.715 0 001.013-.067.718.718 0 00-.067-1.013c-3.916-3.428-8.71-5.434-13.876-5.81a2.248 2.248 0 00-3.492 0 23.694 23.694 0 00-15.036 6.887 23.693 23.693 0 00-6.886 15.036 2.248 2.248 0 000 3.492c.375 5.165 2.38 9.96 5.809 13.876a.716.716 0 001.013.067.718.718 0 00.067-1.013c-3.085-3.524-4.944-7.805-5.405-12.424h1.643a20.652 20.652 0 005.93 12.36 20.653 20.653 0 0012.359 5.93v1.642c-4.619-.46-8.9-2.32-12.424-5.405a.718.718 0 10-.946 1.08c3.916 3.428 8.711 5.434 13.876 5.81a2.248 2.248 0 003.492 0 23.693 23.693 0 0015.035-6.887 23.694 23.694 0 006.887-15.036 2.248 2.248 0 000-3.492zm-4.553-.346a2.255 2.255 0 00-1.42 2.092c0 .948.589 1.76 1.42 2.092a19.21 19.21 0 01-5.021 10.987l-4.961-4.962a12.175 12.175 0 003.092-8.117c0-3.113-1.17-5.957-3.092-8.118l4.961-4.961a19.212 19.212 0 015.02 10.987zM46.5 57.29c-5.95 0-10.79-4.84-10.79-10.79 0-5.95 4.84-10.79 10.79-10.79 5.95 0 10.79 4.84 10.79 10.79 0 5.95-4.84 10.79-10.79 10.79zm-.816-33.038a.817.817 0 011.633 0v2.302a.817.817 0 01-1.633 0v-2.302zm.816 4.554c.948 0 1.76-.59 2.092-1.42a19.21 19.21 0 0110.987 5.02l-4.962 4.961a12.175 12.175 0 00-8.117-3.092c-3.113 0-5.957 1.17-8.118 3.092l-4.961-4.961a19.212 19.212 0 0110.987-5.02 2.255 2.255 0 002.092 1.42zm-15.767 1.927a22.263 22.263 0 0113.515-6.416v1.642a20.652 20.652 0 00-12.36 5.93 20.652 20.652 0 00-5.93 12.359h-1.641a22.263 22.263 0 016.416-13.514zm-4.18 16.583h-2.3a.817.817 0 010-1.633h2.3a.817.817 0 010 1.633zm.832 1.276a2.255 2.255 0 001.42-2.092c0-.948-.588-1.76-1.42-2.092a19.211 19.211 0 015.021-10.987l4.961 4.962a12.175 12.175 0 00-3.092 8.117c0 3.113 1.17 5.957 3.092 8.118l-4.961 4.961a19.212 19.212 0 01-5.02-10.987zm19.931 20.156a.817.817 0 01-1.633 0v-2.302a.817.817 0 011.633 0v2.302zm-.816-4.554c-.948 0-1.76.59-2.092 1.42a19.212 19.212 0 01-10.987-5.02l4.961-4.961a12.175 12.175 0 008.118 3.092c3.113 0 5.957-1.17 8.118-3.092l4.961 4.961a19.211 19.211 0 01-10.987 5.02 2.255 2.255 0 00-2.092-1.42zm15.766-1.927a22.263 22.263 0 01-13.514 6.416v-1.642a20.652 20.652 0 0012.36-5.93 20.653 20.653 0 005.93-12.359h1.641a22.264 22.264 0 01-6.417 13.515zm6.482-14.95h-2.302a.817.817 0 010-1.633h2.302a.817.817 0 010 1.633z" fill="#fff"/></svg>