<svg width="94" height="94" fill="none" xmlns="http://www.w3.org/2000/svg"><rect width="94" height="94" rx="47" fill="#B7934D"/><g clip-path="url(#clip0)" fill="#fff"><path d="M28.855 45.782h-6.137a.718.718 0 000 1.436h6.137a.718.718 0 000-1.436zm41.427 0h-6.137a.718.718 0 000 1.436h6.137a.718.718 0 000-1.436zM46.5 22a.718.718 0 00-.718.718v6.137a.718.718 0 001.436 0v-6.137A.718.718 0 0046.5 22zm0 41.427a.718.718 0 00-.718.718v6.137a.718.718 0 001.436 0v-6.137a.718.718 0 00-.718-.718zM34.53 33.516l-4.339-4.34a.718.718 0 10-1.015 1.015l4.34 4.34a.716.716 0 001.015 0 .718.718 0 000-1.015zM63.824 62.81l-4.34-4.34a.718.718 0 10-1.015 1.014l4.34 4.34a.716.716 0 001.015 0 .718.718 0 000-1.015zm0-33.634a.718.718 0 00-1.015 0l-4.34 4.34a.718.718 0 101.015 1.015l4.34-4.34a.718.718 0 000-1.015zM34.53 58.47a.718.718 0 00-1.014 0l-4.34 4.34a.718.718 0 101.015 1.014l4.34-4.34a.718.718 0 000-1.015zm16.298-7.122a.718.718 0 00-1.015.03c-.772.82-2.01 1.309-3.313 1.309-1.303 0-2.541-.49-3.313-1.31a.718.718 0 00-1.045.985c1.054 1.119 2.642 1.76 4.358 1.76 1.716 0 3.304-.641 4.358-1.76a.718.718 0 00-.03-1.014z"/><path d="M57.846 37.435a.718.718 0 10-1.12.898 13.078 13.078 0 012.051 3.613h-2.349l-.005-.005a2.253 2.253 0 00-1.688-.762H50c-.655 0-1.265.278-1.693.767h-3.612A2.236 2.236 0 0043 41.18h-4.735c-.646 0-1.261.278-1.689.762l-.004.005H34.22a13.076 13.076 0 013.022-4.703 13.066 13.066 0 0117.424-.968.718.718 0 00.897-1.121 14.5 14.5 0 00-19.336 1.074 14.5 14.5 0 00-1.074 19.337.716.716 0 001.009.111.718.718 0 00.111-1.009 13.05 13.05 0 01-2.494-11.285h2.234c-.003.11.002.219.016.329l.3 2.396a3.024 3.024 0 002.995 2.645h2.309c1.388 0 2.593-.94 2.93-2.287l.621-2.487c.05-.198.071-.398.067-.596h2.495c-.004.198.018.398.067.596l.622 2.487a3.015 3.015 0 002.93 2.287h2.308a3.024 3.024 0 002.996-2.645l.3-2.396c.013-.11.018-.22.016-.329h2.233a13.072 13.072 0 01-3.462 12.375 13.065 13.065 0 01-17.425.969.718.718 0 10-.897 1.12 14.465 14.465 0 009.064 3.187c3.732 0 7.448-1.437 10.273-4.26a14.5 14.5 0 001.074-19.338zM43.793 43.63l-.622 2.488a1.581 1.581 0 01-1.537 1.2h-2.308a1.586 1.586 0 01-1.572-1.388l-.3-2.396a.806.806 0 01.199-.642.806.806 0 01.612-.276H43a.81.81 0 01.643.314c.156.2.21.455.149.7zm11.752-.096l-.3 2.396a1.586 1.586 0 01-1.57 1.387h-2.31a1.58 1.58 0 01-1.536-1.2l-.622-2.487a.812.812 0 01.149-.7.81.81 0 01.643-.314h4.736c.238 0 .455.098.612.276a.805.805 0 01.198.642zM40.41 29.924l-1.173-2.835a.718.718 0 10-1.327.549l1.175 2.835a.718.718 0 101.326-.55zm14.68 35.438l-1.175-2.835a.718.718 0 00-1.326.55l1.175 2.835a.718.718 0 101.326-.55zM66.3 38.299a.718.718 0 00-.938-.389l-2.835 1.175a.718.718 0 00.55 1.326l2.835-1.175a.718.718 0 00.388-.937zM30.861 52.978a.718.718 0 00-.937-.389l-2.835 1.175a.718.718 0 00.549 1.326l2.835-1.175a.718.718 0 00.388-.937zM54.701 26.7a.718.718 0 00-.937.389l-1.175 2.835a.718.718 0 001.327.549l1.174-2.835a.718.718 0 00-.389-.938zM40.022 62.139a.718.718 0 00-.938.388l-1.174 2.835a.718.718 0 001.326.55l1.175-2.836a.718.718 0 00-.389-.937zm25.89-8.375l-2.836-1.175a.718.718 0 00-.549 1.327l2.835 1.174a.714.714 0 00.938-.389.718.718 0 00-.388-.937zm-35.439-14.68l-2.835-1.174a.718.718 0 00-.55 1.326l2.835 1.175a.715.715 0 00.938-.389.718.718 0 00-.388-.938z"/></g><defs><clipPath id="clip0"><path fill="#fff" transform="translate(22 22)" d="M0 0h49v49H0z"/></clipPath></defs></svg>