<svg width="94" height="94" fill="none" xmlns="http://www.w3.org/2000/svg"><rect width="94" height="94" rx="47" fill="#B7934D"/><path d="M66.038 43.337a.703.703 0 00-.775.19L59.25 50.29a.703.703 0 00.525 1.17h1.14c-.876 1.64-3.068 4.995-7.119 6.907a2.268 2.268 0 01-2.17-.11 2.271 2.271 0 01-1.118-1.863l-.9-18.462h4.155c.802 0 1.455-.652 1.455-1.454v-3.006a.703.703 0 10-1.407 0v.048h-4.419l-.109-2.229a4.486 4.486 0 002.177-3.831c.001-2.46-2-4.46-4.459-4.46a4.466 4.466 0 00-4.461 4.46c0 1.57.843 3.033 2.177 3.832l-.11 2.23h-4.419v-.05a.703.703 0 10-1.406 0v3.007c0 .802.653 1.455 1.455 1.455h4.155l-.037.76a.703.703 0 001.405.068l.04-.828h2.4l.904 18.53a3.704 3.704 0 001.798 3 3.706 3.706 0 003.496.175c6.003-2.834 8.198-8.394 8.289-8.629a.703.703 0 00-.656-.956h-.69l3.744-4.21v6.028l-.332-.442a.704.704 0 00-1.242.242c-1.953 7.352-6.467 10.287-10.832 13.125-1.806 1.173-3.533 2.298-4.976 3.686v-8.707a.703.703 0 10-1.406 0v8.707c-1.442-1.388-3.17-2.513-4.975-3.686-4.365-2.838-8.88-5.773-10.833-13.125a.703.703 0 00-1.24-.242l-.333.442v-6.029l3.743 4.211h-.689a.703.703 0 00-.656.956c.09.235 2.286 5.795 8.29 8.63a3.705 3.705 0 003.494-.175 3.705 3.705 0 001.798-3.002l.726-14.872a.703.703 0 00-1.405-.068l-.725 14.872a2.27 2.27 0 01-1.117 1.864 2.272 2.272 0 01-2.172.109c-4.05-1.913-6.243-5.268-7.118-6.907h1.14a.703.703 0 00.525-1.17l-6.012-6.764a.703.703 0 00-1.229.467v9.981a.703.703 0 001.265.423l.76-1.009c2.276 6.901 6.907 9.912 11.021 12.587 2.266 1.472 4.406 2.864 5.892 4.755a.703.703 0 001.106 0c1.486-1.891 3.626-3.282 5.892-4.755 4.114-2.675 8.745-5.686 11.022-12.587l.76 1.009a.703.703 0 001.264-.423v-9.981a.702.702 0 00-.453-.657zM43.946 27.46A3.058 3.058 0 0147 24.406a3.058 3.058 0 013.055 3.055c0 .972-.472 1.883-1.237 2.453A2.277 2.277 0 0047 29.012c-.74 0-1.4.352-1.817.902a3.074 3.074 0 01-1.238-2.453zm4.04 6.06h-1.97l.11-2.27a.874.874 0 011.748 0l.111 2.27zm-7.75 3.006a.048.048 0 01-.048-.048v-1.552h13.624v1.552a.048.048 0 01-.048.048H40.237z" fill="#fff"/><path d="M47 54.564a.703.703 0 00-.703.703v1.503a.703.703 0 001.406 0v-1.503a.703.703 0 00-.703-.703z" fill="#fff"/></svg>