<svg width="94" height="94" fill="none" xmlns="http://www.w3.org/2000/svg"><rect width="94" height="94" rx="47" fill="#B7934D"/><path d="M54.202 56.54c-.77-.696-.92-1.691-.372-2.476a5.146 5.146 0 00.927-3.45c-.24-2.616-2.533-4.698-5.459-5.07V33.693a.732.732 0 00-1.464 0v18.17a3.072 3.072 0 00-1.667 0V29.728h1.667v.834a.732.732 0 101.464 0v-1.52l.668-5.338A1.516 1.516 0 0048.462 22h-2.923a1.516 1.516 0 00-1.504 1.703l.667 5.338v16.504c-2.925.371-5.218 2.453-5.458 5.069a5.145 5.145 0 00.928 3.452c.55.788.416 1.768-.333 2.439a.732.732 0 00.977 1.09c1.307-1.17 1.536-2.965.557-4.367a3.7 3.7 0 01-.67-2.48c.168-1.842 1.865-3.371 4-3.722v5.753a3.068 3.068 0 00-.784 2.05 3.086 3.086 0 002.349 2.992v1.704a.732.732 0 101.465 0v-1.704a3.086 3.086 0 002.348-2.993c0-.786-.296-1.504-.783-2.049v-5.753c2.135.35 3.83 1.88 4 3.721a3.7 3.7 0 01-.67 2.48c-.973 1.394-.73 3.204.59 4.4 1.576 1.427 2.444 3.306 2.444 5.29 0 1.903-.803 3.725-2.262 5.132-1.731 1.67-4.2 2.572-6.768 2.48-2.185-.08-4.25-.902-5.815-2.316-1.542-1.393-2.421-3.204-2.475-5.099a6.753 6.753 0 01.73-3.26.732.732 0 00-1.31-.658 8.202 8.202 0 00-.885 3.96c.066 2.298 1.116 4.48 2.958 6.144 1.82 1.644 4.215 2.6 6.743 2.693.14.005.277.007.416.007 2.815 0 5.5-1.044 7.423-2.897 1.747-1.684 2.71-3.881 2.71-6.185 0-2.404-1.04-4.669-2.925-6.377zM45.5 23.483c.015-.017.031-.017.038-.017h2.923c.006 0 .023 0 .038.017s.013.033.012.04l-.593 4.74H46.08l-.592-4.74a.047.047 0 01.012-.04zM47 56.444a1.618 1.618 0 01-1.617-1.616c0-.89.725-1.616 1.616-1.616.891 0 1.616.725 1.616 1.616 0 .891-.725 1.616-1.616 1.616z" fill="#fff"/><path d="M49.349 61.924h-4.697a.732.732 0 000 1.465h4.697a.732.732 0 000-1.465z" fill="#fff"/></svg>