<svg width="19" height="19" fill="none" xmlns="http://www.w3.org/2000/svg"><path d="M13.063 0H5.936A5.938 5.938 0 000 5.938v7.125A5.938 5.938 0 005.938 19h7.125A5.938 5.938 0 0019 13.062V5.939A5.938 5.938 0 0013.062 0zm4.156 13.063a4.16 4.16 0 01-4.157 4.156H5.939a4.161 4.161 0 01-4.157-4.157V5.939A4.161 4.161 0 015.938 1.78h7.125a4.16 4.16 0 014.156 4.157v7.125z" fill="url(#paint0_linear)"/><path d="M9.5 4.75a4.75 4.75 0 100 9.5 4.75 4.75 0 000-9.5zm0 7.72A2.973 2.973 0 016.53 9.5 2.972 2.972 0 019.5 6.53a2.972 2.972 0 012.97 2.97 2.973 2.973 0 01-2.97 2.97z" fill="url(#paint1_linear)"/><path d="M14.607 5.027a.633.633 0 100-1.266.633.633 0 000 1.266z" fill="url(#paint2_linear)"/><defs><linearGradient id="paint0_linear" x1="1.739" y1="17.26" x2="17.261" y2="1.738" gradientUnits="userSpaceOnUse"><stop stop-color="#FFC107"/><stop offset=".507" stop-color="#F44336"/><stop offset=".99" stop-color="#9C27B0"/></linearGradient><linearGradient id="paint1_linear" x1="6.142" y1="12.858" x2="12.859" y2="6.141" gradientUnits="userSpaceOnUse"><stop stop-color="#FFC107"/><stop offset=".507" stop-color="#F44336"/><stop offset=".99" stop-color="#9C27B0"/></linearGradient><linearGradient id="paint2_linear" x1="14.158" y1="4.842" x2="15.054" y2="3.946" gradientUnits="userSpaceOnUse"><stop stop-color="#FFC107"/><stop offset=".507" stop-color="#F44336"/><stop offset=".99" stop-color="#9C27B0"/></linearGradient></defs></svg>