<svg xmlns="http://www.w3.org/2000/svg" width="1738" height="748" fill="none"><g clip-path="url(#clip0)"><path d="M681.5 720.8c2.7-.2 5.4-.4 8.2-.6 24.7-2.3 49.5-2.5 74.2-6.1 59.5-8.6 119.3-15.2 178.4-26.4 41.7-7.8 83.4-15.7 124.7-25.4 104.7-24.6 206.9-56.6 306.4-97.4 123.9-50.8 241.7-113.3 356.3-182.3 8.8-5.3 6-7.1-.3-11.2-22.1-14.2-43.7-28.9-65.9-42.9-93.4-59-192-107.5-295.4-146-83.2-31-168.3-55.6-255.2-74.2-43.5-9.3-86.9-18.5-130.7-26-55.6-9.6-111.4-18.7-167.1-27.5-34.4-5.4-69-9.5-103.3-15.1-19.9-3.2-40.5-3.4-59.7-10.7.7 0 1.1-.3 1.4-.9 2.3.5 4.4.1 6.1-1.6 109.1-28 220-32 331.4-21 135.9 13.5 266 49.3 390.6 105.2 84.4 37.9 163 85.3 234.8 143.7 40.7 33.1 78.2 69.7 112.2 109.7 11.3 13.3 11.2 13.4.7 27.4-36.1 48.4-78.5 90.5-125.6 128.1-94.5 75.6-201.3 127.5-316.2 164-155.8 49.9-315.5 69.4-478.6 62.1-51.3-2.3-102.2-8.7-152.7-18.8-1-.2-1.9-1-4.2-2.4 5-.8 8.7-1.3 12.3-1.9 5.8.2 11.7 1.1 17.2-1.8z" fill="#fff"/><path d="M652.1 29.1c19.2 7.3 39.8 7.4 59.7 10.7 34.4 5.6 69 9.6 103.3 15.1 55.8 8.8 111.5 17.9 167.1 27.5 43.8 7.5 87.2 16.8 130.7 26 86.9 18.5 172 43.2 255.2 74.2 103.4 38.5 202.1 87 295.4 146 22.2 14 43.8 28.8 65.9 42.9 6.3 4 9 5.9.3 11.2-114.5 69.1-232.4 131.6-356.3 182.3-99.5 40.8-201.7 72.8-306.4 97.4-41.3 9.7-83 17.5-124.7 25.4-59.1 11.1-118.9 17.8-178.4 26.4-24.7 3.6-49.5 3.8-74.2 6.1.7-2.9.4-6.6 5-6.7 11.8-.1 23.1-3.7 34.6-5.6 16.2-2.6 32.1-7.8 48.3-11.1 17-3.5 34-7.5 50.8-11.9 16.8-4.4 33.2-10.8 50.2-14.3 23.1-4.7 44.6-14.8 67.9-18.9 15.4-2.7 29.9-10 44.9-14.6 24.5-7.5 48.8-15.2 72.7-24.5 36.4-14.2 74.1-25.6 109.7-41.5 15.9-7.1 32.2-14.3 47.9-22.2 20.8-10.5 42.9-18.4 63.1-29.9 27.9-15.9 57.3-28.5 85.5-43.8 29-15.7 58.3-31.5 88.1-45.9 22.3-10.8 42.3-25.7 65-35.7 6.9-3 11.1-10.3 19.9-11.1 4.4-.4 4.5-5.6-.1-8.7-15.7-10.6-32.2-19.5-49.1-27.9-11.4-5.7-22.2-12.6-33.7-18.5-29.9-15.4-59.2-32.1-89-47.8-28.1-14.9-56.7-29-85.2-43.1-29.9-14.9-60-30.1-91.7-41.6-15.2-5.5-30.2-12.3-44.9-19.2-24-11.3-49.1-19.5-73.8-28.7-20-7.4-40.2-14.3-60.3-21.1-25.7-8.8-52.2-15.3-77.6-24.8-26.6-10-54.6-14.6-81.6-23-14.4-4.5-30.7-6.7-45.8-10.4-15.5-3.8-31.4-6.7-46.7-11.9-8.7-3-18.3-3.6-27.4-5.7-19.8-4.7-39.4-9.4-60-10.4-8.7-.4-17.3-6.1-26.7-7.4-1.7-.5 0-3.3 2.4-3.3z" fill="#FADCBD"/><path d="M395.3 103.5c22.2-9.2 45.4-12.7 68.6-15.8 86.9-11.6 173.8-10.6 260.3 2.1 124.9 18.3 243.7 54.5 350 125.1 59.7 39.6 111.4 87.6 151 147.8 4.3 6.5 4.5 11 0 17.7-43.5 66.1-101.3 117.2-167.8 158.7-89.3 55.7-187.5 88-290.3 107.1-112.4 20.9-225.1 23.5-338 3.6-12.7-2.2-25.2-5.3-38.3-10.1C689 611 967.5 521.5 1226.4 370.5 1097.9 301.2 966 237.1 825.5 192.2c-140.1-44.8-284.3-70.7-430.2-88.7zM79.5 361.4h9.4c17.4 0 18.2 1 15.1 18.5-5.1 28.1-31.3 43.4-63 37-27.5-5.6-46.2-34.8-39.6-62.5 4.8-20.3 17-34.6 37.3-39.8 19.6-4.9 38.3-1.8 53 13.7 2.3 2.4 9.1 5.7 2.8 9.8-4.7 3-9.2 11.2-16.8 4.3-4.1-3.7-8.4-6.8-13.9-8.5-15.7-4.8-31.8 1.4-39.2 15.3-7.8 14.7-4.2 32.6 8.5 42.3 12.5 9.6 32.5 9.4 43.6-.5 2.8-2.5 7-5.4 5.6-9.5-1.4-4-6.1-1.6-9.4-2-3.1-.4-6.3-.3-9.4 0-6.2.6-10.5.3-10.2-8.1.3-7.1 1.3-11.1 9.7-10 5.4.7 10.9.1 16.4.1l.1-.1z" fill="#fff"/><path d="M581.4 364.6c0-14.1.3-28.2-.1-42.3-.2-6.3 1.8-8.3 7.9-8 11 .4 22-.1 32.9.4 25.4 1.1 37.2 21.9 25.1 44.4-2.2 4-1.8 5.9 1.2 8.7 9.1 8.6 10.4 19.4 5.8 30.2-4.8 11.3-14.2 17.7-26.6 18.2-12.5.5-25.1-.1-37.6.4-6.6.3-9.2-1.5-8.6-8.5.7-7.4.1-14.9.1-22.3-.1-7.1-.1-14.1-.1-21.2zm34.5 32.8h2.3c7.7.4 15.2.1 17.4-9.5 1.3-5.5-.7-10.8-6-12.5-8.9-2.8-18.2-2.7-27.3 0-.5.1-.7 1.3-.9 2-4.4 12.5 1.1 20.2 14.5 20zm-1.9-41.8c2.3 0 4.7.1 7 0 7-.5 10.7-4.4 10.7-11.3-.1-7.1-4.5-10.4-11.2-10.7-4.3-.2-8.5-.1-12.8-.1-2.9 0-5 .5-6.1 3.9-4 11.7.4 18.2 12.4 18.2zm-122 26.3c0 7.8.2 15.7-.1 23.5-.1 3.6 2.4 8.9-2.2 10.5-4.9 1.7-12.1 3.1-15.4-1-3.7-4.6-5.1-2.2-8.1-.6-15.3 7.9-32.6 4.2-43.4-8.9-11.7-14.3-11.7-36.7.1-51.1 10.2-12.6 27.6-16.5 42.4-8.6 4 2.1 6.4 1.5 10.3.1 12-4.3 16.4-.9 16.4 11.5.1 8.1 0 16.3 0 24.6zm-37.8-21.8c-11.9-.4-20.3 7.2-20.8 18.9-.5 11.9 7.3 20.8 18.6 21.3 11 .5 20.8-8.4 21.1-19.1.3-12.1-7.5-20.7-18.9-21.1zm-124.3 28c-7 0-14.1-.1-21.1.1-1.8 0-4.2-.5-5.1 1.8-1 2.7.9 4.5 2.7 5.9 8.3 6.5 18.1 7.5 26.3 1.9s12.3.8 17.5 3.4c3.5 1.7.7 4.4-1.2 6.6-10.5 11.8-35.2 14.2-50.1 4.9-16.1-10.1-22.4-30.8-14.6-48.5 7.5-17.2 25.9-26.1 44.7-21.8 16.5 3.8 28.2 20.9 27.5 39-.2 6-2.5 7.3-7.8 6.9-6.2-.5-12.5-.2-18.8-.2zm7.1-15.5c-2.7-10.3-9.2-13.3-16.9-13.7-6.4-.3-12.3 1.8-16.1 7.5-2.6 3.8-2.7 6.4 3 6.3 9.7-.2 19.3-.1 30-.1zm-175.6 15.5c-5.9 0-11.8-.3-17.6.1-2.7.2-7.2-1.8-7.8 2.6-.4 3.1 2.5 5.7 5.4 7.1 8.2 4 17 4.9 24.6-.5 8.1-5.8 12.1 1.8 17.4 4.2 2.9 1.3 0 3.9-1.4 5.6-10.2 12-34.6 14.8-50 5.7-15.7-9.3-22.3-29.2-15.6-47.2 6.4-17.4 24.4-27.1 43.7-23.6 16.9 3.1 29.4 19.4 29.3 37.5 0 6.8-2.5 9.1-9.1 8.6-6.4-.5-12.6-.1-18.9-.1zm7.9-15.5c-6.9-15.4-23.8-18.3-32.1-7-1 1.4-2 3.5-1.8 5.2.3 2.7 3 1.7 4.8 1.8h29.1zm659.7 7.6v24.7c0 10.9-10 17.4-17.6 10.2-4.8-4.5-6-1.7-9.1-.3-19.3 8.9-34.5 1.2-45.3-17.6-8.3-14.5-6.8-26.5.7-39.1 9.4-15.7 27.3-20.8 44-13.1 3.6 1.7 5.4 2.5 9.8-.1 10.2-6 17.3-1 17.4 10.7v12.9c.1 3.8.1 7.8.1 11.7zm-39.1-20.1c-10.2 0-21.8 10-21.8 18.7-.1 10.4 11.6 21.6 22.4 21.4 11.3-.2 19.6-9 19.6-20.5-.2-11.7-8.3-19.6-20.2-19.6zM742 379.9c1.9 20.2-18.2 39-38.3 38.4-22.3-.7-38.3-16.5-38.3-38.8 0-21.4 16.3-37.7 37.9-37.9 22.3-.1 38.8 16.2 38.7 38.3zm-57.2-.5c-.3 11.5 7.1 19.9 17.9 20.4 11.1.6 20.1-8.1 20.4-19.4.2-11.7-7.7-20-19.3-20.2-11.1 0-18.7 7.6-19 19.2zm-483.1 0v-23.5c0-12.2 5.6-16.6 17-11.6 4.1 1.8 6 1.8 9.8.2 21-8.9 37.9 2.6 40.7 24.8 1.7 13.5.2 27.4.5 41.1.2 9.1-6.5 5.7-10.8 6.2-5 .5-9.3.2-8.9-7.1.6-11.3.2-22.7.4-34.1.1-9.2-3.4-15.5-13.3-15.8-9.7-.2-15.7 4.5-15.9 14.7-.2 11.4-.6 22.8-.1 34.1.4 8.5-4.4 8.3-10.4 8.3-5.7 0-9.8-.1-9.3-7.9.8-9.8.3-19.6.3-29.4zm722.8 38.8c-8.5-.6-15.4-.8-20.7-5.4-3.9-3.4-12.2-6.9-7.1-12.9 3.3-3.9 10.4-12.6 17.9-2.3 2.1 2.9 6.2 3.1 9.8 3 4-.1 8.6-.3 9-5.3.4-4.1-3.6-5.5-7-6.6-5.9-2-12-3.6-17.7-6.1-7.3-3.2-11.6-8.9-11.9-17.3-.3-8.6 3.2-15.1 10.5-19.6 11.3-7 28.2-5.8 38.3 3.3 2.4 2.2 8.6 5.1 3.9 8.8-3.9 3-8.3 8.8-15 5.4-1.3-.7-2.2-2.3-3.5-3-4.9-2.6-11.1-3.3-13.5 1.9-2.9 6.3 4 6.9 8.1 8.4 3.7 1.3 7.5 2.1 11.2 3.4 12.8 4.6 18 11.9 16.6 23.5-1.4 12-9.2 17.5-20.2 19.6-3.5 1-7.1 1.1-8.7 1.2zM852.1 382c0-3.9-.2-7.8 0-11.7.3-4.8-.2-8.7-6.6-8.3-7.5.5-6.3-5-6.4-9.6-.2-5-.4-9.7 6.9-8.9 4.7.5 6.6-2.2 5.9-6.4-1.3-7.3 3.4-8.9 8.9-11.1 8.4-3.3 11.6-1.3 10.3 7.7-1.1 7.3 1.4 11.2 9.4 9.9 7.2-1.2 7.2 3.4 7 8.5-.2 5 1.2 11-7.1 9.8-8.2-1.1-10 3.1-9.4 10.3.5 5.4.3 11 .1 16.4-.3 6.7 2.4 10.7 9.5 10.1 9.6-.7 6.3 6.2 7 11.1.8 6.1-2.4 6.9-7.5 7.2-21.9 1.1-28.1-6.4-28-35zm-343.7-19.2c0-14.8.4-29.7-.2-44.5-.3-7.3 2.8-8.5 8.9-8 5.1.5 10.8-1.7 10.7 7.6-.5 29.7-.4 59.3-.1 89 .1 9.2-5.4 9.2-12 9.9-8.3.8-7.4-4.3-7.3-9.5.1-14.8.1-29.7 0-44.5zm-139 16.6c0-8.6-.2-17.2.1-25.8.1-3.3-1.9-8.3 2.1-9.4 5-1.3 13.3-3.3 15.4.9 3.8 7.7 6.1 2.4 9.3.8 4.1-2.1 9-6.2 12.8-2.5 3.7 3.5.8 9.7 1.3 14.6.7 6.5-4.7 4.7-8.1 5.6-9 2.5-13.9 8.2-14 17.8 0 9.4-.6 18.8 0 28.2.5 7.4-3.7 7.4-8.8 7.1-4.6-.3-10.7 2.2-10.3-6.7.5-10.2.2-20.4.2-30.6z" fill="#fff"/><path d="M659.6 26.7c-1.7 1.7-3.8 2-6.1 1.6 1.5-2.6 4-1.5 6.1-1.6z" fill="#000"/></g><defs><clipPath id="clip0"><path fill="#fff" d="M0 0h1737.1v747.2H0z"/></clipPath></defs></svg>