<svg width="20" height="22" fill="none" xmlns="http://www.w3.org/2000/svg"><g clip-path="url(#clip0)"><path fill-rule="evenodd" clip-rule="evenodd" d="M19.189 17.303a3.895 3.895 0 00-.922-1.906 3.953 3.953 0 00-1.79-1.152l-3.166-1.023v-.451h-.733v.968l1.244.396-1.722 3.047-1.111.572a1.966 1.966 0 00-.256-.011h-.11l1.91-3.377-.644-.341L10 17.358l-1.889-3.333-.644.341 1.91 3.377h-.11a1.965 1.965 0 00-.256.011L7.9 17.182l-1.722-3.047 1.244-.396v-.968H6.69v.451l-3.167 1.023a3.958 3.958 0 00-1.788 1.153 3.899 3.899 0 00-.923 1.905L0 22h20l-.811-4.697zm-4.656-2.937l1.711.55.167.066-3.133 1.595 1.255-2.211zm-4.9 4.081h.734v.715h-.734v-.715zm-5.877-3.531l1.71-.55 1.256 2.211-3.133-1.595.167-.066zm2.933 5.302v1.067H4.156l.322-3.157-.734-.066-.333 3.223H.87l.667-3.861A3.15 3.15 0 012.824 15.4l5.2 2.651a2.462 2.462 0 00-.973.899 2.43 2.43 0 00-.362 1.268zm.733 1.034v-1.034c.007-.414.157-.813.427-1.13A1.82 1.82 0 018.9 18.48v1.034a1.777 1.777 0 01-.424 1.131 1.81 1.81 0 01-1.054.607zm1.434.033c.399-.38.664-.878.755-1.419h.778c.086.543.352 1.042.755 1.419H8.856zm3.722-.033a1.81 1.81 0 01-1.054-.607 1.777 1.777 0 01-.424-1.131V18.48c.412.075.784.29 1.054.607s.42.717.424 1.131v1.034zm4.01.033l-.332-3.223-.734.066.322 3.157h-2.533v-1.067a2.45 2.45 0 00-.364-1.266 2.483 2.483 0 00-.97-.901l5.2-2.662a3.218 3.218 0 011.29 2.035l.666 3.861H16.59zM3.745 7.799c.007.44.177.864.478 1.188a1.82 1.82 0 001.156.572A3.834 3.834 0 006.4 11.22l1.433 1.386a1.9 1.9 0 001.3.517h1.734a1.9 1.9 0 001.3-.517L13.6 11.22c.48-.458.831-1.03 1.022-1.661a1.82 1.82 0 001.156-.572c.3-.324.471-.747.478-1.188a1.712 1.712 0 00-.734-1.397l.811-3.916h-1.677A5.551 5.551 0 0012.645.661a5.616 5.616 0 00-5.29 0 5.55 5.55 0 00-2.01 1.825H3.666l.81 3.916a1.73 1.73 0 00-.733 1.397zm10.3.66a3.126 3.126 0 01-.966 2.266L11.644 12.1a1.093 1.093 0 01-.777.319H9.133a1.103 1.103 0 01-.777-.319l-1.434-1.375a3.153 3.153 0 01-.966-2.266V6.743h8.088v1.716zm.723.352c.01-.121.01-.231.01-.352v-1.65a1.051 1.051 0 01.745.99 1.07 1.07 0 01-.213.627 1.087 1.087 0 01-.542.385zM10 .704c.722 0 1.436.16 2.087.468a4.834 4.834 0 011.68 1.314H6.233a4.834 4.834 0 011.68-1.314A4.882 4.882 0 0110 .704zm5.433 2.486l-.589 2.838H5.156L5 5.324h9.044v-.715H4.856l-.29-1.419h10.867zM5.223 6.809v1.65c0 .121 0 .231.01.352a1.087 1.087 0 01-.542-.385 1.07 1.07 0 01-.213-.627 1.053 1.053 0 01.744-.99z" fill="#000"/></g><defs><clipPath id="clip0"><path fill="#fff" d="M0 0h20v22H0z"/></clipPath></defs></svg>