<svg width="32" height="32" fill="none" xmlns="http://www.w3.org/2000/svg"><path d="M27.3 4.7C24.27 1.668 20.258 0 16 0 11.743 0 7.73 1.669 4.7 4.7 1.668 7.73 0 11.742 0 16c0 4.257 1.669 8.27 4.7 11.3C7.73 30.332 11.742 32 16 32c4.257 0 8.27-1.669 11.3-4.7C30.332 24.27 32 20.258 32 16c0-4.257-1.669-8.27-4.7-11.3zM16 30.124C8.211 30.125 1.875 23.789 1.875 16S8.211 1.875 16 1.875 30.125 8.211 30.125 16 23.789 30.125 16 30.125z" fill="#B7934D"/><path d="M16 3.813C9.28 3.813 3.812 9.28 3.812 16S9.28 28.188 16 28.188c6.72 0 12.188-5.468 12.188-12.188C28.188 9.28 22.72 3.812 16 3.812zm0 22.5c-5.686 0-10.313-4.627-10.313-10.313 0-5.686 4.627-10.313 10.313-10.313 5.686 0 10.313 4.627 10.313 10.313 0 5.686-4.627 10.313-10.313 10.313z" fill="#B7934D"/><path d="M18.813 13.178a.938.938 0 001.875 0c0-1.038-.537-2.037-1.474-2.739-.64-.48-1.426-.8-2.276-.936V8.49a.938.938 0 00-1.875 0v1.013c-.85.136-1.638.457-2.277.936-.936.703-1.473 1.7-1.473 2.739 0 1.038.537 2.036 1.473 2.739.64.48 1.426.8 2.277.936v3.713c-1.08-.264-1.876-.964-1.876-1.763a.938.938 0 00-1.874 0c0 1.038.537 2.037 1.473 2.739.64.48 1.426.8 2.277.936V23.5a.938.938 0 001.874 0v-1.022c.85-.136 1.638-.457 2.277-.936.937-.703 1.474-1.7 1.474-2.739 0-1.038-.537-2.037-1.474-2.739-.64-.48-1.426-.8-2.276-.936v-3.713c1.08.264 1.875.965 1.875 1.763zm-5.625 0c0-.798.794-1.5 1.874-1.763v3.526c-1.08-.264-1.874-.965-1.874-1.763zm5.624 5.625c0 .799-.795 1.5-1.875 1.763V17.04c1.08.264 1.875.965 1.875 1.763z" fill="#B7934D"/></svg>