<svg width="32" height="32" fill="none" xmlns="http://www.w3.org/2000/svg"><path d="M26.165 7.413a14.256 14.256 0 00-9.227-4.188v-1.35h1.375a.938.938 0 000-1.875h-4.625a.937.937 0 100 1.875h1.374v1.35c-2.39.153-4.669.891-6.668 2.145l-.891-.892a2.278 2.278 0 00-1.624-.673c-.613 0-1.19.239-1.623.673L2.9 5.835a2.297 2.297 0 000 3.24l.897.9a14.328 14.328 0 00-2.173 7.622c0 3.847 1.495 7.464 4.21 10.184A14.267 14.267 0 0016 32c3.84 0 7.45-1.498 10.165-4.22a14.323 14.323 0 004.21-10.183c0-3.847-1.495-7.463-4.21-10.184zM4.23 7.16l1.354-1.357a.417.417 0 01.593 0l.68.68a14.647 14.647 0 00-1.947 1.95l-.68-.682a.42.42 0 010-.591zM16 30.125c-6.893 0-12.5-5.62-12.5-12.528S9.107 5.07 16 5.07c6.892 0 12.5 5.62 12.5 12.528S22.892 30.125 16 30.125z" fill="#B7934D"/><path d="M16 6.827c-5.928 0-10.75 4.831-10.75 10.77 0 5.939 4.822 10.77 10.75 10.77s10.75-4.831 10.75-10.77c0-5.939-4.822-10.77-10.75-10.77zm.938 19.616v-1.096a.938.938 0 00-1.875 0v1.096c-4.148-.438-7.452-3.751-7.889-7.908H8.25a.938.938 0 000-1.875H7.174c.437-4.157 3.741-7.47 7.888-7.909v1.096a.938.938 0 001.876 0V8.751c4.147.439 7.451 3.752 7.888 7.909H23.75a.938.938 0 000 1.875h1.076c-.437 4.157-3.741 7.47-7.889 7.908z" fill="#B7934D"/><path d="M18.313 17.056H16.99v-3.792a.938.938 0 00-1.875 0v4.73c0 .517.42.937.937.937h2.26a.937.937 0 100-1.875z" fill="#B7934D"/></svg>