<svg width="27" height="14" fill="none" xmlns="http://www.w3.org/2000/svg"><g clip-path="url(#clip0)"><path fill-rule="evenodd" clip-rule="evenodd" d="M17.563 10.213a.443.443 0 01.411.256.42.42 0 01-.087.469.439.439 0 01-.747-.299.412.412 0 01.122-.299.429.429 0 01.301-.127zm1.808 0a.443.443 0 01.41.256.418.418 0 01-.086.469.44.44 0 01-.748-.299.414.414 0 01.122-.299.429.429 0 01.302-.127zm2.181.219a.36.36 0 00-.167-.17.442.442 0 00-.513.08.423.423 0 00-.068.506.362.362 0 00.167.17.442.442 0 00.513-.082.423.423 0 00.068-.505zm5.25-1.737a.342.342 0 00-.184-.05H24.04l-1.95-1.719-.01-.005-3.55-3.128a.329.329 0 00-.133-.117L16.902 2.36a.332.332 0 00-.216-.084h-3.491l-2.6-2.178A.401.401 0 0010.334 0H6.702a.338.338 0 00-.183.051.419.419 0 00-.193.278.406.406 0 00.081.326l1.287 1.62H5.658a.424.424 0 00-.36.224.403.403 0 00.027.416.34.34 0 00.298.166h10.886l.635.558H14.95a.34.34 0 00-.204.065.418.418 0 00-.175.312.409.409 0 00.136.33l3.625 3.185c.072.064.166.1.263.1h3.077l1.15 1.01H9.832V8.09h.503a.424.424 0 00.36-.224.403.403 0 00-.028-.417.34.34 0 00-.297-.166H5.313V6.72h1.474a.341.341 0 00.237-.1.328.328 0 00.096-.235v-.977a.397.397 0 00-.077-.24.41.41 0 00-.209-.149L4.93 4.443h2.671l3.522 3.101c.06.054.138.084.22.084h4.867a.42.42 0 00.32-.162.403.403 0 00.07-.347.344.344 0 00-.11-.184L12.918 3.79a.34.34 0 00-.29-.155H2.601V3.08h1.407a.424.424 0 00.36-.224.403.403 0 00-.027-.417.34.34 0 00-.298-.166h-1.91a.344.344 0 00-.237.1.33.33 0 00-.096.236v1.446a.47.47 0 00.068.22.34.34 0 00.27.165l4.18 1.262v.208H4.844a.344.344 0 00-.237.1.33.33 0 00-.096.236v1.03H3.105a.424.424 0 00-.36.223.403.403 0 00.027.417.34.34 0 00.298.166h.538v.558h-.794c-.263.001-.52.08-.736.228a1.277 1.277 0 00-.475.597L.025 13.447c-.04.1-.039.21.003.308.041.098.12.177.22.22A.335.335 0 00.382 14h22.59a.404.404 0 00.31-.15l3.63-4.55a.41.41 0 00-.11-.605zM8.719 2.275L7.552.805h.783l1.167 1.47h-.783zm1.808 0L9.36.805h.829l1.75 1.47h-1.412zm8.222 4.55l-2.707-2.38h2.016l2.698 2.38h-2.007zm-6.304-2.38l2.698 2.38h-3.625L8.82 4.444h3.625zm-4.42 3.64H9.03v.56H8.024v-.556l.002-.003zm-1.806 0h1.006v.56H6.213v-.556l.006-.003zm-1.808 0h1.007v.56h-1.01v-.556l.003-.003zm18.368 5.108H.985l.584-1.47h7.695l.806.812a.33.33 0 00.239.098h12.916l-.446.56zm1.089-1.364h-13.37l-.807-.813a.327.327 0 00-.238-.098H1.888l.457-1.15a.508.508 0 01.467-.319h22.953l-1.897 2.38z" fill="#000"/></g><defs><clipPath id="clip0"><path fill="#fff" d="M0 0h27v14H0z"/></clipPath></defs></svg>